<svg width="30" height="30" viewBox="0 0 30 30" fill="none" xmlns="http://www.w3.org/2000/svg">
<path d="M22.907 16.1785C23.5498 16.0071 24.0256 15.4285 24.0256 14.7343C24.0256 13.9028 23.3484 13.23 22.5213 13.23H22.3541L16.7056 4.77425C17.0655 4.37568 17.2756 3.84854 17.2756 3.27425C17.2756 2.01854 16.2556 0.998535 14.9998 0.998535C13.7441 0.998535 12.7241 2.01854 12.7241 3.27425C12.7241 3.84425 12.9341 4.37139 13.2898 4.76996L7.64126 13.23H7.47412C6.64698 13.23 5.96984 13.9028 5.96984 14.7343C5.96984 15.4285 6.44555 16.0071 7.08841 16.1785C6.00841 16.56 5.22412 17.5928 5.22412 18.7971C5.22412 20.1514 6.22269 21.2914 7.52126 21.5228C7.52126 22.5214 7.71412 23.4943 8.08698 24.39C8.45555 25.2857 9.00412 26.1085 9.71126 26.8114C11.1255 28.2257 13.0027 29.0014 14.9998 29.0014C19.1227 29.0014 22.4784 25.65 22.4784 21.5228V21.5185C23.777 21.2914 24.7756 20.1471 24.7756 18.7971C24.7756 17.5928 23.9913 16.56 22.907 16.1785ZM7.52126 20.6485C6.69412 20.4342 6.08126 19.68 6.08126 18.7971C6.08126 17.91 6.69412 17.1557 7.52126 16.9414V20.6485ZM21.6213 21.5228C21.6213 25.1742 18.6513 28.1442 14.9998 28.1442C13.2298 28.1442 11.567 27.4585 10.3155 26.2071C9.06412 24.96 8.37841 23.2971 8.37841 21.5228V17.91C9.23555 18.12 10.1398 18.2314 11.087 18.2314C13.3756 18.2314 15.5056 17.5757 16.9156 16.4614C17.8156 17.5757 19.1613 18.2314 20.6098 18.2314C20.9527 18.2314 21.2913 18.1928 21.6213 18.12V21.5228ZM7.47412 15.3814C7.11841 15.3814 6.82698 15.09 6.82698 14.7343C6.82698 14.3743 7.11841 14.0871 7.47412 14.0871H22.5213C22.877 14.0871 23.1684 14.3743 23.1684 14.7343C23.1684 15.09 22.877 15.3814 22.5213 15.3814H7.47412ZM22.4784 20.6485V16.9414C23.3013 17.1557 23.9184 17.91 23.9184 18.7971C23.9184 19.68 23.3013 20.4342 22.4784 20.6485Z" fill="#929094"/>
<path d="M14.9998 22.9382C14.2168 22.9382 13.5812 23.6556 13.5812 24.5402C13.5812 25.4247 14.2168 26.1422 14.9998 26.1422C15.7798 26.1422 16.4184 25.4247 16.4184 24.5402C16.4184 23.6556 15.7798 22.9382 14.9998 22.9382ZM11.3055 20.3325C10.8787 20.3329 10.4694 20.5027 10.1676 20.8046C9.86583 21.1065 9.69614 21.5157 9.6958 21.9426C9.6958 22.0563 9.74095 22.1653 9.82133 22.2456C9.9017 22.326 10.0107 22.3712 10.1244 22.3712C10.238 22.3712 10.347 22.326 10.4274 22.2456C10.5078 22.1653 10.5529 22.0563 10.5529 21.9426C10.5529 21.7426 10.6324 21.5508 10.7738 21.4094C10.9152 21.268 11.107 21.1885 11.307 21.1885C11.507 21.1885 11.6988 21.268 11.8402 21.4094C11.9816 21.5508 12.0611 21.7426 12.0611 21.9426C12.0611 22.0563 12.1062 22.1653 12.1866 22.2456C12.267 22.326 12.376 22.3712 12.4897 22.3712C12.6033 22.3712 12.7123 22.326 12.7927 22.2456C12.8731 22.1653 12.9182 22.0563 12.9182 21.9426C12.9173 21.5154 12.747 21.1061 12.4447 20.8043C12.1424 20.5025 11.7327 20.333 11.3055 20.3329V20.3325ZM18.6894 20.3325C18.2625 20.3329 17.8533 20.5027 17.5515 20.8046C17.2497 21.1065 17.08 21.5157 17.0797 21.9426C17.0797 22.0563 17.1248 22.1653 17.2052 22.2456C17.2856 22.326 17.3946 22.3712 17.5082 22.3712C17.6219 22.3712 17.7309 22.326 17.8113 22.2456C17.8916 22.1653 17.9368 22.0563 17.9368 21.9426C17.9368 21.7427 18.0162 21.5509 18.1576 21.4095C18.299 21.2682 18.4907 21.1887 18.6907 21.1887C18.8906 21.1887 19.0823 21.2682 19.2237 21.4095C19.3651 21.5509 19.4445 21.7427 19.4445 21.9426C19.4445 22.0563 19.4897 22.1653 19.57 22.2456C19.6504 22.326 19.7594 22.3712 19.8731 22.3712C19.9868 22.3712 20.0958 22.326 20.1761 22.2456C20.2565 22.1653 20.3017 22.0563 20.3017 21.9426C20.3007 21.5155 20.1305 21.1062 19.8283 20.8045C19.526 20.5027 19.1165 20.3331 18.6894 20.3329V20.3325ZM12.4897 18.853H10.1244C10.0107 18.853 9.9017 18.8982 9.82133 18.9786C9.74095 19.0589 9.6958 19.1679 9.6958 19.2816C9.6958 19.3953 9.74095 19.5043 9.82133 19.5846C9.9017 19.665 10.0107 19.7102 10.1244 19.7102H12.4897C12.6033 19.7102 12.7123 19.665 12.7927 19.5846C12.8731 19.5043 12.9182 19.3953 12.9182 19.2816C12.9182 19.1679 12.8731 19.0589 12.7927 18.9786C12.7123 18.8982 12.6033 18.853 12.4897 18.853ZM19.8731 18.853H17.5082C17.3946 18.853 17.2856 18.8982 17.2052 18.9786C17.1248 19.0589 17.0797 19.1679 17.0797 19.2816C17.0797 19.3953 17.1248 19.5043 17.2052 19.5846C17.2856 19.665 17.3946 19.7102 17.5082 19.7102H19.8731C19.9868 19.7102 20.0958 19.665 20.1761 19.5846C20.2565 19.5043 20.3017 19.3953 20.3017 19.2816C20.3017 19.1679 20.2565 19.0589 20.1761 18.9786C20.0958 18.8982 19.9868 18.853 19.8731 18.853Z" fill="#929094"/>
</svg>
