<svg width="56" height="56" viewBox="0 0 56 56" fill="none" xmlns="http://www.w3.org/2000/svg">
<rect width="56" height="56" rx="28" fill="#FCFCFC"/>
<g clip-path="url(#clip0_6648_131817)">
<path d="M31.3066 22.413C31.1904 22.4315 31.0985 22.5235 31.08 22.6397C30.5408 26.027 33.7744 25.5582 34.127 25.4973C34.127 28.2488 34.1102 28.0845 34.172 28.249C34.4003 28.8537 35.2594 28.8553 35.4883 28.249C35.5503 28.084 35.5333 28.2297 35.5333 25.4973C35.8841 25.5579 39.12 26.0281 38.5806 22.6398C38.5621 22.5236 38.4702 22.4315 38.354 22.4131C36.4308 22.1069 35.7508 23.0172 35.5333 23.9258V20.6261C35.8841 20.6867 39.12 21.1569 38.5806 17.7686C38.5621 17.6524 38.4702 17.5604 38.354 17.5419C36.4307 17.2357 35.7507 18.146 35.5332 19.0547V16.7241C35.5332 16.3457 35.2426 16.0199 34.8646 16.0018C34.4608 15.9825 34.127 16.3046 34.127 16.7041V19.0533C33.9091 18.1451 33.2289 17.2359 31.3066 17.5419C31.1904 17.5604 31.0985 17.6524 31.08 17.7686C30.5408 21.1558 33.7744 20.687 34.127 20.6262V23.9244C33.9091 23.0162 33.2289 22.107 31.3066 22.413Z" fill="#8582FF"/>
<path d="M30.029 33.4844H25.9697L23.6287 37.5391C22.9972 38.6326 23.7852 40 25.0495 40H30.9492C32.2118 40 33.0023 38.6339 32.37 37.5391L30.029 33.4844Z" fill="#8582FF"/>
<path d="M39.0625 29.6543H16.9375C16.4197 29.6543 16 30.074 16 30.5918V31.1351C16 31.6529 16.4197 32.0726 16.9375 32.0726H39.0625C39.5803 32.0726 40 31.6529 40 31.1351V30.5918C40 30.0741 39.5803 29.6543 39.0625 29.6543Z" fill="#8582FF"/>
<path d="M22.1473 17.4344V16.705C22.1473 16.316 21.8323 16.0005 21.4428 16.0005C21.0537 16.0005 20.7383 16.316 20.7383 16.705V19.2142C20.982 18.4774 21.4709 17.8408 22.1473 17.4344Z" fill="#8582FF"/>
<path d="M22.1401 20.5914C22.6939 20.5914 23.4365 20.5598 23.901 20.0959C24.2444 19.7525 24.3782 19.1936 24.3007 18.4308C22.8047 18.2783 22.0806 18.9252 22.1401 20.5914Z" fill="#8582FF"/>
<path d="M19.2275 28.2476H23.7314C23.971 28.189 24.1936 28.048 24.3496 27.8559C26.7542 24.8832 25.2297 22.1857 23.6591 21.9861C23.0504 21.9091 22.4811 22.2049 22.0133 22.8409C21.7311 23.2238 21.1584 23.2227 20.878 22.8409C20.4102 22.2049 19.8404 21.9091 19.2317 21.9861C17.6605 22.1859 16.1372 24.8833 18.5417 27.8559C18.7042 28.057 18.9522 28.1983 19.2275 28.2476Z" fill="#8582FF"/>
</g>
<defs>
<clipPath id="clip0_6648_131817">
<rect width="24" height="24" fill="white" transform="translate(16 16)"/>
</clipPath>
</defs>
</svg>
