<svg width="44" height="44" viewBox="0 0 44 44" fill="none" xmlns="http://www.w3.org/2000/svg">
<path d="M14 30C13.45 30 12.9793 29.8043 12.588 29.413C12.196 29.021 12 28.55 12 28V16C12 15.45 12.196 14.9793 12.588 14.588C12.9793 14.196 13.45 14 14 14H30C30.55 14 31.021 14.196 31.413 14.588C31.8043 14.9793 32 15.45 32 16V28C32 28.55 31.8043 29.021 31.413 29.413C31.021 29.8043 30.55 30 30 30H14ZM22 23L14 18V28H30V18L22 23ZM22 21L30 16H14L22 21ZM14 18V16V28V18Z" fill="#DB4437"/>
<rect x="0.5" y="0.5" width="43" height="43" rx="21.5" stroke="#4C42E8"/>
</svg>
