<svg width="168" height="36" viewBox="0 0 168 36" fill="none" xmlns="http://www.w3.org/2000/svg">
<g clip-path="url(#clip0_7074_1442)">
<path d="M167.76 0H0V36H167.76V0Z" fill="white"/>
<path d="M13.1809 10.1927C13.1291 10.1995 13.0774 10.2062 13.0279 10.2152C12.4372 9.62219 11.8997 8.97843 11.4214 8.29148C11.2504 8.00672 11.1988 7.66595 11.2776 7.34324C11.3563 7.02059 11.5592 6.742 11.8421 6.568C12.0248 6.45605 12.2333 6.39327 12.4474 6.38574C12.4541 6.42624 12.4587 6.469 12.4654 6.51174C12.5777 7.38248 12.8164 8.62002 13.1809 10.1927Z" fill="#4C42E8"/>
<path d="M17.3711 8.29148C16.8928 8.97843 16.3553 9.62219 15.7646 10.2152C15.7174 10.2062 15.6678 10.1995 15.6206 10.1927C15.9896 8.60648 16.2281 7.36671 16.3316 6.51174C16.3361 6.469 16.3428 6.42624 16.3474 6.38574C16.5608 6.39327 16.7685 6.45607 16.9504 6.568C17.2333 6.742 17.4362 7.02059 17.5149 7.34324C17.5937 7.66595 17.5421 8.00672 17.3711 8.29148Z" fill="#4C42E8"/>
<path d="M15.9491 5.6023C15.9469 5.88688 15.9258 6.17101 15.8861 6.4528C15.7601 7.4968 15.4496 8.94357 15.1706 10.1383C15.0513 10.127 14.9321 10.118 14.8106 10.1136C14.6733 10.1046 14.5361 10.1023 14.3966 10.1023C14.2571 10.1023 14.1198 10.1046 13.9826 10.1136C13.8656 10.118 13.7463 10.127 13.6293 10.136C13.3503 8.93681 13.0421 7.49227 12.9093 6.45506C12.8696 6.17319 12.8471 5.88916 12.8418 5.60456C12.8415 5.19251 13.005 4.79722 13.296 4.50564C13.5872 4.21407 13.9823 4.0501 14.3943 4.04981C14.8064 4.04951 15.2017 4.21291 15.4932 4.50405C15.7848 4.79521 15.9487 5.19026 15.9491 5.6023Z" fill="#4C42E8"/>
<path d="M18.2588 15.0986C18.1997 15.1071 18.1397 15.0917 18.0919 15.0558C18.0442 15.0201 18.0126 14.9667 18.0042 14.9076C17.9957 14.8485 18.0111 14.7884 18.0469 14.7407C18.0827 14.6929 18.1361 14.6614 18.1952 14.6529C19.1382 14.544 20.0902 14.5338 21.0354 14.6228C19.9866 12.2409 17.4088 10.5522 14.3992 10.5522C10.5553 10.5522 7.41203 13.306 7.26465 16.7422C8.41449 16.6527 9.57095 16.7073 10.7072 16.905C10.7616 16.9163 10.8099 16.9474 10.8428 16.9922C10.8757 17.0371 10.8908 17.0925 10.8852 17.1478C10.8796 17.2032 10.8537 17.2544 10.8125 17.2918C10.7713 17.3292 10.7178 17.35 10.6622 17.3502C10.6471 17.3502 10.632 17.3487 10.6172 17.3457C9.51069 17.1562 8.3849 17.1051 7.2658 17.1938C7.33197 19.1963 8.37978 21.3237 9.86054 22.4255C10.1764 22.6616 10.4782 22.9159 10.7644 23.1872C11.693 23.1594 12.622 23.2288 13.5364 23.394C13.5901 23.4062 13.6376 23.4378 13.6696 23.4828C13.7017 23.5278 13.7161 23.583 13.71 23.6379C13.704 23.6927 13.678 23.7435 13.6369 23.7804C13.5959 23.8175 13.5427 23.838 13.4875 23.8383C13.4709 23.8383 13.4544 23.8365 13.4382 23.8329C12.7001 23.6991 11.9516 23.6313 11.2015 23.6304C11.6821 24.1462 12.0888 24.7264 12.4098 25.3541C13.114 26.7648 13.8992 28.5378 14.2772 31.7508C14.2832 31.8056 14.3093 31.8562 14.3505 31.8928C14.3916 31.9294 14.4449 31.9493 14.5 31.9488H14.5022C14.5578 31.9486 14.6114 31.9277 14.6525 31.8904C14.6936 31.8529 14.7195 31.8017 14.725 31.7464C15.0805 28.1846 15.994 26.2384 16.93 24.6678C17.4902 23.758 18.2179 22.9625 19.0742 22.3234C19.3118 22.1355 19.5324 21.9272 19.7338 21.701C18.8387 21.6329 17.9393 21.6506 17.0476 21.7539C17.0364 21.7555 17.025 21.7563 17.0137 21.7564C16.9571 21.7561 16.9027 21.7346 16.8613 21.696C16.8199 21.6575 16.7946 21.6047 16.7903 21.5483C16.7861 21.4919 16.8032 21.436 16.8383 21.3916C16.8735 21.3473 16.9241 21.3178 16.98 21.309C18.0099 21.188 19.05 21.1787 20.082 21.281C21.0028 20.0389 21.512 18.5399 21.5384 16.994C21.5385 16.3481 21.4315 15.7067 21.2218 15.0957C20.2373 14.9838 19.2432 14.9847 18.2588 15.0986ZM13.6238 19.915C13.6127 19.9648 13.585 20.0094 13.5451 20.0414C13.5053 20.0734 13.4558 20.0908 13.4047 20.0909C13.3881 20.0909 13.3716 20.0891 13.3554 20.0855C12.5505 19.9063 11.723 19.8508 10.9014 19.921C10.843 19.9242 10.7856 19.9045 10.7415 19.866C10.6974 19.8276 10.67 19.7736 10.6651 19.7153C10.6602 19.657 10.6782 19.5991 10.7152 19.5538C10.7523 19.5086 10.8055 19.4795 10.8636 19.4728C11.7306 19.3989 12.6039 19.4574 13.4533 19.6463C13.4822 19.6527 13.5095 19.6647 13.5338 19.6817C13.558 19.6987 13.5786 19.7202 13.5945 19.7452C13.6104 19.7701 13.6212 19.798 13.6263 19.8271C13.6314 19.8562 13.6302 19.8861 13.6238 19.915ZM13.7346 14.6626C13.7234 14.7125 13.6956 14.757 13.6557 14.7891C13.6158 14.8211 13.5663 14.8385 13.5152 14.8385C13.4986 14.8385 13.4821 14.8367 13.4659 14.8334C12.5885 14.6379 11.6865 14.5772 10.7908 14.6534C10.7614 14.6562 10.7316 14.6532 10.7033 14.6444C10.675 14.6356 10.6488 14.6212 10.6261 14.6021C10.6034 14.583 10.5849 14.5595 10.5713 14.5331C10.5579 14.5068 10.5498 14.4779 10.5476 14.4484C10.5452 14.4189 10.5485 14.3893 10.5574 14.3611C10.5664 14.333 10.5808 14.3068 10.5999 14.2843C10.6189 14.2617 10.6422 14.243 10.6685 14.2295C10.6947 14.2159 10.7234 14.2077 10.7528 14.2052C11.694 14.1243 12.642 14.1877 13.564 14.393C13.5929 14.3994 13.6204 14.4114 13.6447 14.4285C13.669 14.4455 13.6897 14.4672 13.7056 14.4922C13.7215 14.5173 13.7323 14.5452 13.7373 14.5745C13.7423 14.6037 13.7411 14.6336 13.7346 14.6626ZM18.2712 18.119C18.2601 18.169 18.2323 18.2136 18.1924 18.2457C18.1526 18.2776 18.103 18.2951 18.0518 18.2952C18.0353 18.2952 18.0187 18.2933 18.0026 18.2896C17.1976 18.1105 16.3701 18.0551 15.5485 18.1253C15.4891 18.1303 15.43 18.1115 15.3844 18.073C15.3388 18.0345 15.3104 17.9795 15.3054 17.92C15.3004 17.8605 15.3192 17.8016 15.3577 17.7559C15.3962 17.7103 15.4513 17.6819 15.5107 17.6769C16.3778 17.6029 17.2512 17.6615 18.1006 17.8506C18.1589 17.8636 18.2095 17.8992 18.2415 17.9495C18.2734 17.9999 18.2842 18.0608 18.2712 18.119Z" fill="#4C42E8"/>
<path d="M31.5282 27.36V6.88496H43.7485V9.6412H34.7625V15.449H43.2V18.2193H34.7625V27.36H31.5282ZM53.7469 27.6834C52.5376 27.6834 51.4453 27.4865 50.4704 27.0928C49.5047 26.699 48.7125 26.1599 48.0938 25.4756C47.4844 24.7912 47.0157 23.999 46.6876 23.099C46.3688 22.1896 46.2094 21.2053 46.2094 20.1459C46.2094 18.7022 46.4907 17.4178 47.0532 16.2928C47.6157 15.1584 48.4735 14.2537 49.6266 13.5787C50.7891 12.9037 52.1672 12.5662 53.761 12.5662C54.9797 12.5662 56.0672 12.7584 57.0235 13.1428C57.9797 13.5272 58.7579 14.0662 59.3579 14.76C59.9578 15.4443 60.4125 16.2459 60.7219 17.1646C61.0406 18.0741 61.2 19.0772 61.2 20.174C61.2 21.2146 61.036 22.185 60.7079 23.085C60.3891 23.985 59.9251 24.7819 59.3157 25.4756C58.7157 26.1599 57.9328 26.699 56.9672 27.0928C56.011 27.4865 54.9376 27.6834 53.7469 27.6834ZM53.7329 25.124C55.1204 25.124 56.161 24.66 56.8547 23.7318C57.5579 22.8037 57.9094 21.6037 57.9094 20.1318C57.9094 18.6412 57.5532 17.4318 56.8407 16.5037C56.1281 15.5756 55.0875 15.1115 53.7188 15.1115C52.35 15.1115 51.3047 15.5756 50.5829 16.5037C49.861 17.4318 49.5 18.6412 49.5 20.1318C49.5 21.6037 49.8563 22.8037 50.5688 23.7318C51.2813 24.66 52.336 25.124 53.7329 25.124ZM65.025 27.36V16.5318C65.025 16.1381 65.0063 15.6412 64.9688 15.0412C64.9313 14.4412 64.8938 13.9397 64.8563 13.5365L64.8 12.9318H68.1469V14.9709C69.1876 13.3678 70.4157 12.5662 71.8313 12.5662C72.3003 12.5662 72.7877 12.6365 73.2939 12.7772V15.5475C72.7503 15.3599 72.1872 15.2662 71.6063 15.2662C70.5845 15.2662 69.7594 15.6131 69.1313 16.3068C68.5032 16.9912 68.1891 17.9709 68.1891 19.2459V27.36H65.025ZM76.0781 27.36V6.70215H79.2281V18.9084L84.8391 12.9318H89.1706L82.1247 19.8506L89.6487 27.36H85.4576L79.2281 20.8912V27.36H76.0781ZM92.1658 27.36V6.88496H104.386V9.6412H95.4V15.449H103.838V18.2193H95.4V27.36H92.1658ZM114.272 25.124C115.65 25.124 116.677 24.6693 117.351 23.76C118.027 22.8412 118.364 21.6177 118.364 20.0896C118.364 18.5896 118.012 17.3849 117.31 16.4756C116.616 15.5662 115.589 15.1115 114.229 15.1115C112.833 15.1115 111.778 15.5709 111.066 16.4896C110.353 17.3991 109.997 18.6084 109.997 20.1178C109.997 21.599 110.353 22.8037 111.066 23.7318C111.787 24.66 112.856 25.124 114.272 25.124ZM113.836 27.6834C112.711 27.6834 111.694 27.4772 110.784 27.0646C109.875 26.6428 109.139 26.0803 108.577 25.3772C108.014 24.674 107.583 23.8865 107.283 23.0146C106.992 22.1334 106.847 21.2099 106.847 20.2443C106.847 19.2318 107.001 18.2662 107.311 17.3475C107.63 16.4287 108.08 15.6131 108.661 14.9006C109.242 14.1881 109.983 13.6209 110.883 13.199C111.792 12.7772 112.795 12.5662 113.893 12.5662C114.849 12.5662 115.702 12.7725 116.451 13.185C117.202 13.5881 117.801 14.1318 118.251 14.8162V12.9318H121.332V27.36H118.195V25.1943C117.764 25.9444 117.169 26.549 116.41 27.0084C115.659 27.4584 114.802 27.6834 113.836 27.6834ZM132.356 27.6834C130.838 27.6834 129.506 27.3459 128.362 26.6709C127.219 25.9865 126.356 25.0818 125.775 23.9568C125.194 22.8318 124.903 21.5756 124.903 20.1881C124.903 18.7256 125.203 17.4178 125.803 16.2646C126.413 15.1115 127.285 14.2069 128.419 13.5506C129.563 12.8944 130.879 12.5662 132.371 12.5662C134.517 12.5662 136.186 13.185 137.377 14.4224L136.266 16.4756C135.244 15.5756 134.039 15.1256 132.651 15.1256C131.273 15.1256 130.181 15.5709 129.375 16.4615C128.578 17.3522 128.179 18.5896 128.179 20.174C128.179 21.6741 128.583 22.874 129.389 23.774C130.195 24.674 131.292 25.124 132.679 25.124C133.973 25.124 135.215 24.6787 136.406 23.7881L137.377 26.0943C135.895 27.1537 134.222 27.6834 132.356 27.6834ZM148.866 27.3459H147.516C146.485 27.3459 145.636 27.2803 144.971 27.149C144.305 27.0177 143.714 26.7694 143.199 26.4037C142.683 26.0381 142.308 25.5131 142.073 24.8287C141.849 24.1444 141.736 23.2631 141.736 22.185V15.0412H138.867V12.9318H141.821V9.4162L144.872 8.50216V12.9318H148.81V15.0412H144.872V22.3678C144.872 22.9584 144.924 23.4177 145.027 23.7459C145.13 24.0647 145.345 24.3177 145.673 24.5053C146.002 24.6928 146.395 24.8099 146.855 24.8568C147.314 24.9037 147.985 24.9272 148.866 24.9272V27.3459ZM157.528 27.6834C156.272 27.6834 155.138 27.5006 154.125 27.135C153.112 26.7693 152.315 26.3569 151.734 25.8975L152.55 23.5912C153.122 24.0225 153.844 24.3928 154.716 24.7022C155.588 25.0115 156.441 25.1662 157.275 25.1662C158.944 25.1662 159.778 24.5522 159.778 23.324C159.778 22.8553 159.605 22.4943 159.258 22.2412C158.911 21.9787 158.175 21.6553 157.05 21.2709L155.7 20.8068C155.063 20.5912 154.542 20.385 154.139 20.1881C153.736 19.9912 153.342 19.7381 152.958 19.4287C152.574 19.1193 152.287 18.7396 152.1 18.2896C151.922 17.8396 151.833 17.3053 151.833 16.6865C151.833 15.974 151.978 15.3506 152.269 14.8162C152.559 14.2725 152.958 13.8459 153.464 13.5365C153.971 13.2178 154.528 12.9834 155.138 12.8334C155.747 12.6741 156.398 12.5943 157.093 12.5943C158.067 12.5943 158.995 12.7162 159.877 12.96C160.758 13.2037 161.508 13.5272 162.127 13.9303L161.283 16.124C160.786 15.8615 160.172 15.6225 159.44 15.4068C158.719 15.1912 158.039 15.0834 157.401 15.0834C155.743 15.0834 154.912 15.5803 154.912 16.574C154.912 17.024 155.058 17.3615 155.349 17.5865C155.648 17.8115 156.3 18.1021 157.303 18.4584C157.341 18.4677 157.571 18.5475 157.993 18.6975C158.424 18.8475 158.667 18.9319 158.723 18.9506C159.267 19.1381 159.713 19.3115 160.06 19.4709C160.406 19.6209 160.762 19.8177 161.128 20.0615C161.503 20.3053 161.794 20.5678 162 20.849C162.206 21.1303 162.375 21.4771 162.506 21.8896C162.647 22.3022 162.717 22.7756 162.717 23.31C162.717 24.0975 162.562 24.7865 162.253 25.3772C161.953 25.9584 161.545 26.4131 161.029 26.7412C160.514 27.0599 159.961 27.2944 159.371 27.4443C158.789 27.6037 158.175 27.6834 157.528 27.6834Z" fill="#4C42E8"/>
</g>
<defs>
<clipPath id="clip0_7074_1442">
<rect width="167.76" height="36" fill="white"/>
</clipPath>
</defs>
</svg>
