<svg width="30" height="30" viewBox="0 0 30 30" fill="none" xmlns="http://www.w3.org/2000/svg">
<path d="M11.1256 8.5835C11.1256 9.87231 10.0808 10.9171 8.79206 10.9171C7.50325 10.9171 6.4585 9.87231 6.4585 8.5835C6.4585 7.29475 7.50325 6.25 8.79206 6.25C10.0808 6.25 11.1256 7.29475 11.1256 8.5835Z" fill="#929094"/>
<path fill-rule="evenodd" clip-rule="evenodd" d="M6.06016 16.247C5.69419 16.8321 4.92297 17.0103 4.33767 16.6445C3.75225 16.2786 3.57428 15.5074 3.94017 14.922L3.94248 14.9183L3.94692 14.9112L3.962 14.8874C3.97473 14.8674 3.99279 14.8392 4.01563 14.804C4.06126 14.7337 4.12631 14.6348 4.20653 14.5169C4.36573 14.2828 4.5903 13.9652 4.84526 13.6426C5.09439 13.3274 5.40071 12.9714 5.7245 12.6827C5.88635 12.5384 6.08158 12.3845 6.30178 12.261C6.50946 12.1445 6.83421 12.001 7.23071 12.001H10.3535C10.7501 12.001 11.0748 12.1445 11.2825 12.261C11.5027 12.3845 11.698 12.5384 11.8598 12.6827C12.1836 12.9714 12.4899 13.3274 12.739 13.6426C12.994 13.9652 13.2186 14.2828 13.3778 14.5169C13.458 14.6348 13.523 14.7337 13.5687 14.804C13.5915 14.8392 13.6095 14.8674 13.6223 14.8874L13.6374 14.9112L13.6418 14.9183L13.6438 14.9214C13.6438 14.9214 13.6223 14.8874 13.6442 14.922C14.01 15.5074 13.832 16.2786 13.2467 16.6445C12.6613 17.0103 11.8902 16.8325 11.5243 16.2472L11.5225 16.2444L11.5128 16.2291C11.5038 16.215 11.4898 16.193 11.4712 16.1644C11.4562 16.1412 11.4382 16.1136 11.4175 16.0823V17.6347L11.8695 22.3817C11.9339 23.0576 11.447 23.6613 10.7728 23.7415C10.0987 23.8217 9.48378 23.3491 9.38771 22.677L8.75015 18.214L8.11259 22.677C8.01659 23.3491 7.40165 23.8217 6.72746 23.7415C6.05331 23.6613 5.56643 23.0576 5.6308 22.3817L6.15523 16.8752H6.16701V16.082C6.14626 16.1134 6.12818 16.1411 6.11305 16.1644C6.09451 16.193 6.08048 16.215 6.07147 16.2291L6.06183 16.2444L6.06016 16.247Z" fill="#929094"/>
<path d="M23.6252 8.58331C23.6252 9.872 22.5805 10.9167 21.2918 10.9167C20.0032 10.9167 18.9585 9.872 18.9585 8.58331C18.9585 7.29469 20.0032 6.25 21.2918 6.25C22.5805 6.25 23.6252 7.29469 23.6252 8.58331Z" fill="#929094"/>
<path fill-rule="evenodd" clip-rule="evenodd" d="M18.5634 16.1156C18.2004 16.7026 17.4301 16.8846 16.8429 16.5216C16.2557 16.1586 16.0739 15.3883 16.4369 14.8011L16.4392 14.7974L16.4436 14.7904L16.4585 14.7666C16.4711 14.7466 16.4889 14.7183 16.5115 14.6831C16.5566 14.6128 16.6209 14.514 16.7003 14.3961C16.8577 14.1621 17.0798 13.8444 17.332 13.5218C17.5783 13.2067 17.8814 12.8504 18.2022 12.5612C18.3624 12.4167 18.5563 12.2622 18.7754 12.1379C18.9818 12.0209 19.3073 11.875 19.7061 11.875H22.7943C23.1931 11.875 23.5185 12.0209 23.7249 12.1379C23.9441 12.2622 24.1379 12.4167 24.2982 12.5612C24.6189 12.8504 24.922 13.2067 25.1684 13.5218C25.4205 13.8444 25.6426 14.1621 25.8001 14.3961C25.8794 14.514 25.9437 14.6128 25.9888 14.6831C26.0114 14.7183 26.0293 14.7466 26.0419 14.7666L26.0568 14.7904C26.0683 14.8089 26.0634 14.8011 26.0634 14.8011C26.4264 15.3883 26.2446 16.1586 25.6574 16.5216C25.0703 16.8845 24.3003 16.7029 23.9372 16.1161L23.9353 16.1129L23.9257 16.0977C23.9168 16.0836 23.9029 16.0616 23.8846 16.033C23.8478 15.9757 23.7935 15.8922 23.7257 15.7914C23.6976 15.7496 23.6673 15.7052 23.6353 15.6587C23.9274 17.1152 24.5037 19.1122 24.8054 20.1226C24.9093 20.4702 24.6992 20.8358 24.3441 20.9099C22.1331 21.3707 20.5856 21.3587 18.1853 20.9016C17.8195 20.8319 17.6 20.4566 17.7104 20.101C18.0254 19.0864 18.6126 17.1101 18.8907 15.6215C18.8491 15.6816 18.8102 15.7386 18.7746 15.7914C18.7068 15.8922 18.6525 15.9757 18.6158 16.033C18.5974 16.0616 18.5835 16.0836 18.5746 16.0977L18.5651 16.1129L18.5634 16.1156ZM18.5001 21.9697V22.8125C18.5001 23.2826 18.8483 23.6801 19.3144 23.7418C19.7804 23.8036 20.2202 23.5107 20.3428 23.0568L20.5898 22.1415C19.9135 22.1186 19.2266 22.0616 18.5001 21.9697ZM22.0346 22.1384L22.2826 23.0567C22.4051 23.5106 22.8448 23.8036 23.3109 23.7417C23.7769 23.6799 24.1251 23.2825 24.1251 22.8124V21.9611C23.3984 22.0534 22.7113 22.1127 22.0346 22.1384Z" fill="#929094"/>
</svg>
