<svg width="20" height="20" viewBox="0 0 20 20" fill="none" xmlns="http://www.w3.org/2000/svg">
<path fill-rule="evenodd" clip-rule="evenodd" d="M10 0C7.2375 0 5 2.2375 5 5C5 7.7625 7.2375 10 10 10C12.7625 10 15 7.7625 15 5C15 2.2375 12.7625 0 10 0ZM12.5 5C12.5 3.625 11.375 2.5 10 2.5C8.625 2.5 7.5 3.625 7.5 5C7.5 6.375 8.625 7.5 10 7.5C11.375 7.5 12.5 6.375 12.5 5ZM17.5 16.25C17.25 15.3625 13.375 13.75 10 13.75C6.625 13.75 2.75 15.3625 2.5 16.2625V17.5H17.5V16.25ZM0 16.25C0 12.925 6.6625 11.25 10 11.25C13.3375 11.25 20 12.925 20 16.25V20H0V16.25Z" fill="#929094"/>
</svg>
