<svg width="44" height="44" viewBox="0 0 44 44" fill="none" xmlns="http://www.w3.org/2000/svg">
<path fill-rule="evenodd" clip-rule="evenodd" d="M19.429 18.969H23.143V20.819C23.678 19.755 25.05 18.799 27.111 18.799C31.062 18.799 32 20.917 32 24.803V32H28V25.688C28 23.475 27.465 22.227 26.103 22.227C24.214 22.227 23.429 23.572 23.429 25.687V32H19.429V18.969ZM12.57 31.83H16.57V18.799H12.57V31.83ZM17.143 14.55C17.1431 14.8853 17.0767 15.2172 16.9474 15.5266C16.8181 15.8359 16.6287 16.1165 16.39 16.352C15.9064 16.8326 15.2518 17.1017 14.57 17.1C13.8894 17.0995 13.2363 16.8312 12.752 16.353C12.5142 16.1167 12.3254 15.8358 12.1963 15.5264C12.0673 15.217 12.0006 14.8852 12 14.55C12 13.873 12.27 13.225 12.753 12.747C13.2369 12.2682 13.8902 11.9997 14.571 12C15.253 12 15.907 12.269 16.39 12.747C16.872 13.225 17.143 13.873 17.143 14.55Z" fill="#0072B1"/>
<rect x="0.5" y="0.5" width="43" height="43" rx="21.5" stroke="#4C42E8"/>
</svg>
