<svg width="30" height="30" viewBox="0 0 30 30" fill="none" xmlns="http://www.w3.org/2000/svg">
<path fill-rule="evenodd" clip-rule="evenodd" d="M10.3489 8.62508C10.4629 9.91958 10.7506 11.3524 10.9393 12.1603C10.5193 11.7913 8.75977 10.0342 8.84887 11.5879C8.95807 13.4821 10.5304 13.7677 10.5343 13.7686L10.7974 13.8244V14.092C10.7974 14.0977 10.7608 16.0537 12.4054 16.9504C13.228 17.3992 14.1145 17.6239 15.0004 17.6239C15.886 17.6239 16.7719 17.3992 17.5945 16.9504C19.2394 16.0537 19.2028 14.0977 19.2028 14.092V13.8244L19.4653 13.7686C19.4698 13.7677 21.0421 13.4821 21.1513 11.5879C21.238 10.0732 19.549 11.7241 19.1146 12.0922C19.2598 11.3362 19.5073 10.0336 19.6252 8.81558C19.5433 8.53418 19.4407 8.30528 19.3141 8.18828C18.7783 7.69448 17.0725 8.87948 16.2367 7.92518C15.4009 6.97058 15.3001 6.80648 14.2633 6.93788C13.2268 7.06988 14.2294 8.25428 12.6913 8.02388C11.2156 7.80338 10.711 7.99388 10.3843 8.56058L10.3489 8.62508ZM9.70417 10.3573C9.56347 10.0126 9.45697 9.55658 9.51397 9.01118C9.64747 7.72778 8.61067 6.83888 9.94867 5.29238C11.2867 3.74588 10.8856 3.21938 12.19 3.18608C13.4938 3.15338 14.6311 2.23148 15.7012 2.88968C16.7719 3.54758 17.5078 2.59388 18.2764 4.00898C19.0462 5.42378 19.7485 4.46978 20.1163 5.81888C20.4841 7.16828 20.986 7.29998 20.6182 8.41898C20.4046 9.06848 20.2135 9.89528 20.0908 10.4746C20.8426 10.0144 21.9238 9.67268 21.8119 11.6236C21.7033 13.5166 20.4103 14.1565 19.8544 14.3452C19.8028 14.9809 19.5124 16.657 17.9101 17.5309C17.8186 17.5807 17.7268 17.6278 17.6338 17.6728C18.4069 17.8603 19.4506 17.6329 20.4226 18.3538C21.7066 19.3072 21.5821 20.9233 21.5821 20.9233C21.5821 20.9233 23.4472 20.6746 24.3583 22.4974C25.27 24.3205 24.5656 26.5993 24.5656 26.5993C13.0129 27.5953 16.9873 27.5953 5.43457 26.5993C5.43457 26.5993 4.73017 24.3205 5.64127 22.4974C6.55297 20.6746 8.41807 20.9233 8.41807 20.9233C8.41807 20.9233 8.29357 19.3072 9.57757 18.3538C10.5496 17.6329 11.5927 17.8603 12.3664 17.6728C12.2734 17.6278 12.1813 17.5807 12.0895 17.5309C10.4878 16.657 10.1974 14.9809 10.1458 14.3452C9.58987 14.1565 8.29687 13.5166 8.18827 11.6236C8.08597 9.84458 8.97667 9.97208 9.70417 10.3573ZM16.9354 17.9614C16.8865 18.7069 16.8175 19.8883 16.8175 20.3428C16.8175 21.0472 17.398 20.5087 18.3091 21.0472C21.1669 22.7359 8.83357 22.7359 11.6911 21.0472C12.6022 20.5087 13.1827 21.0472 13.1827 20.3428C13.1827 19.8883 13.1137 18.7072 13.0648 17.9614C13.6972 18.1786 14.3488 18.2869 15.0004 18.2869C15.6517 18.2869 16.3033 18.1783 16.9354 17.9614Z" fill="#929094"/>
</svg>
