<svg width="16" height="17" viewBox="0 0 16 17" fill="none" xmlns="http://www.w3.org/2000/svg">
<path d="M7.7998 15.3823C8.71143 15.3823 9.08643 15.8736 9.57505 15.9827C10.0637 16.0922 10.4739 16.1222 10.8939 15.9373C11.7261 15.5706 12.2331 15.1341 12.8484 14.4819C13.9892 13.2729 14.5498 11.6113 14.5498 9.38569C14.5498 7.16006 13.9498 6.00956 13.0247 5.25731C12.0999 4.50506 11.5637 4.36106 10.4454 4.50506C9.32718 4.64906 8.71818 5.85056 7.8028 5.85056C6.8878 5.85056 5.77218 4.66594 4.80205 4.50506C3.83155 4.34381 3.2998 4.50506 2.4598 5.25731C1.6198 6.00956 1.0498 7.18106 1.0498 9.38606C1.0498 11.5903 1.6318 13.2246 2.77218 14.4336C3.38718 15.0857 3.87355 15.5709 4.7053 15.9373C5.1253 16.1226 5.55993 16.0926 6.0313 15.9831C6.50305 15.8743 6.87805 15.3831 7.7998 15.3831V15.3823Z" stroke="#1C1B1F" stroke-width="1.5"/>
<path d="M7.80302 5.85075C8.0974 2.9505 9.34765 1.5 11.5534 1.5C11.7559 2.1105 11.8084 2.70112 11.7101 3.27225C11.664 3.54375 11.5196 3.93075 11.2778 4.43325M4.13552 9.75C4.03165 10.2547 4.03165 10.7741 4.13552 11.3089C4.23902 11.8432 4.4599 12.2558 4.79815 12.5464" stroke="#1C1B1F" stroke-width="1.5" stroke-linecap="round"/>
</svg>
