<svg width="30" height="30" viewBox="0 0 30 30" fill="none" xmlns="http://www.w3.org/2000/svg">
<g clip-path="url(#clip0_4726_116428)">
<path d="M18.9997 22.7652C18.9989 22.7624 18.9967 22.7602 18.9939 22.7595C16.885 22.2098 14.9931 21.2459 13.2372 19.8326C13.1209 19.7392 12.9739 19.6857 12.8178 19.6796C11.7018 19.6325 11.1718 19.2244 10.9218 18.8754C10.919 18.8715 10.9137 18.871 10.91 18.8741C9.30216 20.2266 8.27477 22.0837 8.15097 23.9546C8.05452 25.4056 8.43872 27.5331 10.8081 29.4326C11.1479 29.7036 11.5536 29.8642 11.9806 29.8979C14.2723 30.0793 17.3224 30.1287 19.3781 29.1036C20.4173 28.5862 20.8444 27.3173 20.3286 26.2765C19.7934 25.1911 19.353 24.0323 18.9997 22.7652Z" fill="#929094"/>
<path d="M21.4762 16.6521C20.5766 13.0887 20.7862 12.7572 20.714 12.2762C20.3038 10.8358 19.3364 10.4149 18.5757 10.499C17.6879 10.597 17.0068 11.3148 16.9563 12.2072C16.9211 12.8149 17.0481 13.5434 17.3558 14.5C17.3808 14.5999 18.5941 17.1177 19.247 19.4161C19.249 19.4232 19.2415 19.4287 19.2351 19.4252C18.709 19.1365 18.15 19.0759 17.564 19.0123C16.6457 18.9144 15.6033 18.8011 14.3405 17.7909C14.2399 17.7114 14.1366 17.5744 14.111 17.4205C13.9436 16.458 12.9417 15.855 11.9972 16.4149C11.564 16.6689 11.2135 17.1036 11.0375 17.6103C10.756 18.4126 11.2222 19.3062 12.8299 19.3736C13.0518 19.3827 13.2599 19.4592 13.4299 19.5939C15.3722 21.1582 17.4844 22.1607 19.8891 22.6552C20.5873 22.804 21.3657 22.4853 21.7258 21.8271C22.4481 20.5154 21.9966 18.7246 21.4762 16.6521Z" fill="#929094"/>
<path d="M9.15816 5.60558C9.17961 5.59639 9.20257 5.58109 9.22554 5.56732C9.61455 6.15308 10.0203 6.67498 10.4669 6.95424C10.4697 6.95599 10.4711 6.95928 10.4705 6.96256C10.3795 7.46998 10.363 7.91517 10.4179 8.32392C10.4604 8.59867 10.7519 8.74516 10.9873 8.62088C11.1199 8.55379 11.2192 8.51424 11.3119 8.49103C11.3279 8.48705 11.3432 8.49707 11.3472 8.51312C11.369 8.60107 11.4082 8.68914 11.4663 8.78306C11.5597 8.93922 11.7587 8.99582 11.921 8.90857L12.1 8.8106L12.0526 9.00502C12.025 9.12133 12.0587 9.24221 12.1459 9.32951C12.3194 9.49691 12.4481 9.64199 12.5485 9.78678C12.7895 10.1344 13.2386 10.1734 13.5372 9.94943C13.8273 9.73334 14.0104 9.48695 14.2643 9.28668C14.7152 8.93623 15.2857 9.6165 15.03 10.2269C15.0296 10.2276 15.0292 10.2283 15.0288 10.229L12.1982 14.0068C12.198 14.007 12.1978 14.0072 12.1977 14.0075C11.7163 14.7862 11.7613 15.4662 12.0337 16.0431C12.0356 16.0472 12.0406 16.0489 12.0447 16.047C13.0767 15.5749 14.2165 16.235 14.4127 17.3683C14.4222 17.4353 14.4832 17.5128 14.5305 17.5504C15.7275 18.5086 16.7208 18.6142 17.5963 18.7076C17.9802 18.7499 18.3731 18.7922 18.7602 18.9038C18.7665 18.9056 18.7723 18.8999 18.7703 18.8936C18.1112 16.8299 17.1037 14.7201 17.0622 14.5871C16.7438 13.5968 16.6137 12.8346 16.6504 12.1887C16.7101 11.1479 17.5045 10.3091 18.5422 10.1943C19.3749 10.1056 20.2346 10.528 20.7295 11.48C20.4234 10.6091 19.978 9.70603 19.3948 8.77545C19.2446 8.53516 19.1709 8.24764 18.2825 7.31125C18.2804 7.30902 18.2797 7.30568 18.2807 7.30275C18.8109 5.85045 18.5811 4.22793 17.3652 2.85039C17.1525 2.6101 16.955 2.32381 16.7575 1.97482C15.3021 -0.609689 11.6186 -0.548868 9.58203 1.52178C9.42746 1.67945 9.2392 1.80801 9.04478 1.93656C8.04834 2.59164 7.58615 4.26924 8.12797 5.26258C8.33005 5.63002 8.7923 5.78312 9.15816 5.60558ZM9.78875 5.44785C10.5035 5.67596 11.0882 4.93668 11.2505 4.704C11.4038 4.48492 11.8418 4.48094 11.9821 4.80959C12.3655 5.70742 13.0596 5.81676 13.8158 5.27951C13.9949 5.15248 14.2383 5.1693 14.3837 5.31473C15.0985 6.04023 15.3434 6.8132 15.1306 7.67646C15.0648 7.94283 15.1092 8.22596 15.2515 8.45559C15.4744 8.81131 15.8342 8.92088 16.2556 8.92088C17.0908 8.92088 17.77 8.3565 18.1406 7.62267C18.1432 7.61758 18.1501 7.61664 18.1539 7.62086C18.5363 8.03119 18.8667 8.43689 19.0765 8.82139C18.0375 9.75162 16.755 10.4085 15.3693 10.1775C15.5793 9.32928 14.7394 8.53293 14.076 9.04486C13.812 9.25351 13.5971 9.52832 13.344 9.71113C13.1726 9.83494 12.9259 9.79375 12.804 9.61885C12.6917 9.45631 12.5521 9.29529 12.3645 9.11482C12.3601 9.10041 12.3564 9.0884 12.352 9.07404L12.4765 8.54746C12.5098 8.42113 12.372 8.31385 12.2545 8.3776L11.7754 8.63933C11.7601 8.64701 11.7387 8.64238 11.728 8.62404C11.6851 8.55519 11.656 8.49092 11.6422 8.43121C11.5933 8.25361 11.4142 8.14803 11.2427 8.19244C11.0973 8.22765 10.9565 8.29346 10.8479 8.34859C10.7903 8.38 10.7295 8.33728 10.7209 8.27969C10.6657 7.87715 10.6902 7.42867 10.7913 6.90824C10.8051 6.84244 10.7729 6.77512 10.7132 6.74447C10.2969 6.52099 9.88671 6.00519 9.50252 5.43121C9.58214 5.41117 9.67396 5.41117 9.78875 5.44785Z" fill="#929094"/>
</g>
<defs>
<clipPath id="clip0_4726_116428">
<rect width="30" height="30" fill="white"/>
</clipPath>
</defs>
</svg>
