<svg width="44" height="45" viewBox="0 0 44 45" fill="none" xmlns="http://www.w3.org/2000/svg">
<path d="M32 15.9506C31.2483 16.2767 30.4534 16.4923 29.64 16.5906C30.4982 16.0779 31.1413 15.2714 31.45 14.3206C30.6436 14.8007 29.7608 15.1389 28.84 15.3206C28.2245 14.6532 27.405 14.2089 26.5098 14.0575C25.6147 13.906 24.6945 14.056 23.8938 14.4838C23.093 14.9116 22.4569 15.5931 22.0852 16.4214C21.7135 17.2497 21.6273 18.178 21.84 19.0606C20.2094 18.9781 18.6144 18.5536 17.1587 17.8145C15.7029 17.0754 14.4188 16.0383 13.39 14.7706C13.0291 15.4008 12.8395 16.1144 12.84 16.8406C12.8387 17.515 13.0042 18.1792 13.3218 18.7742C13.6393 19.3691 14.099 19.8763 14.66 20.2506C14.008 20.2329 13.3699 20.0579 12.8 19.7406V19.7906C12.8049 20.7355 13.136 21.6497 13.7373 22.3786C14.3386 23.1074 15.1733 23.6062 16.1 23.7906C15.7433 23.8992 15.3729 23.9564 15 23.9606C14.7419 23.9576 14.4844 23.9342 14.23 23.8906C14.4939 24.7034 15.0046 25.4137 15.6911 25.9228C16.3775 26.4318 17.2056 26.7142 18.06 26.7306C16.6172 27.8659 14.8359 28.4855 13 28.4906C12.6657 28.4917 12.3317 28.4717 12 28.4306C13.8744 29.6409 16.0588 30.2833 18.29 30.2806C19.8297 30.2966 21.3571 30.0056 22.7831 29.4247C24.2091 28.8437 25.505 27.9845 26.5952 26.8971C27.6854 25.8097 28.548 24.516 29.1326 23.0915C29.7172 21.667 30.012 20.1403 30 18.6006V18.0706C30.7847 17.4854 31.4615 16.768 32 15.9506Z" fill="#1DA1F2"/>
<rect x="0.5" y="0.5" width="43" height="43.2812" rx="21.5" stroke="#4C42E8"/>
</svg>
