<svg width="30" height="30" viewBox="0 0 30 30" fill="none" xmlns="http://www.w3.org/2000/svg">
<path d="M13.2839 14.67C13.3873 14.6607 13.4856 14.6209 13.5664 14.5558C13.6472 14.4907 13.7069 14.4031 13.7379 14.304C13.7689 14.205 13.7699 14.099 13.7407 13.9994C13.7115 13.8998 13.6534 13.8111 13.5738 13.7445C13.4943 13.6778 13.3967 13.6363 13.2935 13.6251C13.1903 13.6139 13.0862 13.6336 12.9941 13.6816C12.9021 13.7296 12.8264 13.8038 12.7765 13.8948C12.7266 13.9858 12.7049 14.0896 12.7139 14.193C12.72 14.2617 12.7395 14.3286 12.7714 14.3899C12.8034 14.4511 12.847 14.5054 12.9 14.5497C12.9529 14.594 13.0141 14.6274 13.08 14.6481C13.1459 14.6687 13.2152 14.6761 13.2839 14.67ZM17.6639 18.537C15.1679 19.365 13.5359 18.465 13.5209 18.456C13.4524 18.4201 13.3726 18.4121 13.2983 18.4337C13.224 18.4552 13.1609 18.5047 13.1221 18.5717C13.0834 18.6386 13.0721 18.718 13.0905 18.7932C13.1089 18.8683 13.1556 18.9335 13.2209 18.975C13.9521 19.3404 14.7618 19.5207 15.5789 19.5C16.3526 19.495 17.1205 19.3653 17.8529 19.116C17.9285 19.0909 17.991 19.0368 18.0268 18.9657C18.0625 18.8945 18.0685 18.812 18.0434 18.7365C18.0184 18.6609 17.9643 18.5983 17.8931 18.5626C17.822 18.5269 17.7395 18.5209 17.6639 18.546V18.537ZM18.6779 14.721C18.7813 14.7117 18.8796 14.6719 18.9604 14.6068C19.0412 14.5417 19.1009 14.4541 19.1319 14.355C19.1629 14.256 19.1639 14.15 19.1347 14.0504C19.1055 13.9508 19.0474 13.8621 18.9678 13.7955C18.8883 13.7288 18.7907 13.6873 18.6875 13.6761C18.5843 13.6649 18.4802 13.6846 18.3881 13.7326C18.2961 13.7806 18.2204 13.8548 18.1705 13.9458C18.1206 14.0368 18.0989 14.1406 18.1079 14.244C18.1209 14.3825 18.188 14.5104 18.2948 14.5997C18.4015 14.6891 18.5392 14.7326 18.6779 14.721Z" fill="#929094"/>
<path d="M26.847 21.6241L25.455 20.9431C23.421 19.9531 23.328 17.8861 23.229 15.6991C23.2186 14.8147 23.1282 13.9331 22.959 13.0651C22.314 10.2691 21.351 8.22606 19.929 6.64206C18.3 4.82106 16.929 4.64406 16.299 4.67706C16.92 5.68506 16.938 7.15206 16.899 7.79706L17.478 8.24106L17.634 8.36106L17.7 8.40006C18.711 9.12906 19.272 10.0831 19.569 11.5921L19.659 12.0481C19.695 12.2311 19.731 12.4201 19.77 12.6061C18.6459 12.6375 17.5373 12.8765 16.5 13.3111L15.741 13.2871C15.1052 12.9205 14.4042 12.681 13.677 12.5821C12.378 12.3751 10.698 12.8551 10.419 12.9391H10.281C10.581 11.3971 11.739 10.2961 12.657 9.63906C13.2792 9.22865 13.9416 8.88286 14.634 8.60706C15.152 8.39212 15.6578 8.14875 16.149 7.87806L16.317 7.77306C16.347 7.03506 16.317 5.05206 15.252 4.43106V4.41606C14.5994 4.2424 13.9189 4.19939 13.2496 4.28948C12.5804 4.37958 11.9355 4.60101 11.352 4.94106C8.52602 6.51606 6.60002 10.5001 6.14102 13.6021C6.03344 14.4978 5.99433 15.4004 6.02402 16.3021C6.05209 17.1201 6.02302 17.9391 5.93702 18.7531C5.74502 20.2771 3.33902 20.2351 3.31502 20.2291C3.27178 20.2288 3.22896 20.2375 3.18922 20.2545C3.14948 20.2716 3.11367 20.2966 3.08402 20.3281C3.05531 20.3599 3.03375 20.3975 3.02082 20.4384C3.00788 20.4793 3.00386 20.5225 3.00902 20.5651C3.08473 21.3345 3.38171 22.0656 3.86406 22.6698C4.34641 23.2741 4.99347 23.7257 5.72702 23.9701C7.88402 24.7801 10.905 24.3001 12.6 22.9141C13.3738 23.4385 14.2872 23.7186 15.222 23.7181C15.9033 23.7066 16.5785 23.5882 17.223 23.3671C18.6752 24.1784 20.3115 24.603 21.975 24.6001C22.173 24.6001 22.374 24.6001 22.575 24.5791C25.821 24.3781 26.934 22.1221 26.979 22.0291C26.9971 21.9938 27.008 21.9554 27.0112 21.9159C27.0143 21.8764 27.0096 21.8367 26.9974 21.7991C26.9851 21.7614 26.9655 21.7266 26.9397 21.6965C26.9139 21.6665 26.8824 21.6419 26.847 21.6241ZM19.872 13.2001C20.1838 13.2009 20.4945 13.2351 20.799 13.3021C20.799 14.2831 20.682 15.2191 20.499 15.3271C20.418 15.3451 20.307 15.3601 20.199 15.3781C19.53 15.4621 18.369 15.5101 18.06 15.5221C17.958 15.4441 17.601 15.0991 16.968 13.7701C17.894 13.4073 18.8777 13.2142 19.872 13.2001ZM13.572 13.1731C14.1555 13.2549 14.7212 13.4334 15.246 13.7011C14.9304 14.3042 14.5534 14.8732 14.121 15.3991C13.1298 15.5064 12.1272 15.4042 11.178 15.0991C11.1 14.8861 10.938 14.1271 10.812 13.4581C11.355 13.3081 12.6 13.0231 13.578 13.1761L13.572 13.1731ZM19.671 19.6531C19.602 19.8151 19.524 19.9741 19.44 20.1301C19.413 20.1811 19.383 20.2321 19.353 20.2831C19.296 20.3881 19.239 20.4931 19.176 20.5831L19.059 20.7571C18.999 20.8471 18.942 20.9401 18.879 21.0301L18.744 21.2071C18.681 21.2881 18.621 21.3721 18.555 21.4531L18.408 21.6211C18.342 21.6961 18.279 21.7711 18.213 21.8431C18.147 21.9151 18.108 21.9451 18.057 21.9991C18.006 22.0531 17.925 22.1341 17.856 22.1971L17.694 22.3351C17.625 22.3921 17.559 22.4521 17.49 22.5061C17.421 22.5601 17.379 22.5841 17.325 22.6231C17.271 22.6621 17.196 22.7191 17.13 22.7581C15.381 23.3581 14.031 23.1991 12.756 22.2871C12.1794 21.8973 11.6454 21.4478 11.163 20.9461C10.263 19.9291 9.81302 18.5221 9.79802 16.7461C9.81718 15.6642 9.93771 14.5865 10.158 13.5271H10.224C10.434 14.6401 10.593 15.2851 10.698 15.4381C10.905 15.7381 12.219 16.0171 13.44 16.0171C13.741 16.0192 14.0417 16.0001 14.34 15.9601C14.4113 15.9492 14.4763 15.9129 14.523 15.8581C15.0121 15.28 15.4367 14.6503 15.789 13.9801L16.164 16.6051L15.033 16.8481C14.9936 16.8522 14.9554 16.864 14.9206 16.8829C14.8858 16.9018 14.855 16.9274 14.8301 16.9582C14.8052 16.989 14.7866 17.0244 14.7753 17.0624C14.764 17.1003 14.7604 17.1402 14.7645 17.1796C14.7687 17.219 14.7805 17.2571 14.7994 17.292C14.8183 17.3268 14.8439 17.3575 14.8747 17.3825C14.9054 17.4074 14.9408 17.426 14.9788 17.4373C15.0168 17.4485 15.0566 17.4522 15.096 17.4481H15.159L16.563 17.1481C16.6367 17.1321 16.7018 17.089 16.7451 17.0273C16.7885 16.9656 16.807 16.8898 16.797 16.8151L16.386 13.9321C17.04 15.3181 17.586 16.0741 17.961 16.1221H18C18.069 16.1221 19.422 16.0711 20.238 15.9721C20.34 17.2265 20.1457 18.4874 19.671 19.6531Z" fill="#929094"/>
</svg>
