<svg width="1128" height="223" viewBox="0 0 1128 223" fill="none" xmlns="http://www.w3.org/2000/svg">
<g clip-path="url(#clip0_7602_143286)">
<rect width="1128" height="223" fill="#FCF8FF"/>
<circle cx="8.5" cy="-21.5" r="87.5" fill="#E2DFFF"/>
<path d="M21 256.25C46.8884 256.25 67.875 235.263 67.875 209.375C67.875 183.487 46.8884 162.5 21 162.5C-4.88835 162.5 -25.875 183.487 -25.875 209.375C-25.875 235.263 -4.88835 256.25 21 256.25Z" fill="#FFA426" fill-opacity="0.5"/>
<path d="M-13.375 209.375C-13.3689 198.032 -9.24794 187.077 -1.77692 178.542C5.6941 170.007 16.0078 164.473 27.25 162.966C20.6027 162.018 13.8294 162.51 7.38873 164.408C0.948042 166.306 -5.00978 169.565 -10.0815 173.965C-15.1531 178.366 -19.2203 183.804 -22.0077 189.913C-24.795 196.021 -26.2375 202.657 -26.2375 209.372C-26.2375 216.086 -24.795 222.722 -22.0077 228.831C-19.2203 234.94 -15.1531 240.378 -10.0815 244.778C-5.00978 249.178 0.948042 252.438 7.38873 254.336C13.8294 256.233 20.6027 256.725 27.25 255.778C16.0088 254.271 5.69602 248.737 -1.77486 240.204C-9.24574 231.671 -13.3674 220.717 -13.375 209.375Z" fill="#FE8205" fill-opacity="0.5"/>
<path d="M21 162.5C18.9086 162.516 16.8206 162.671 14.75 162.966C25.989 164.473 36.2991 170.008 43.7654 178.543C51.2318 187.078 55.3471 198.032 55.3471 209.372C55.3471 220.712 51.2318 231.666 43.7654 240.201C36.2991 248.735 25.989 254.271 14.75 255.778C21.1138 256.644 27.5878 256.193 33.7699 254.452C39.9519 252.711 45.71 249.718 50.6865 245.658C55.6631 241.598 59.7518 236.558 62.6987 230.852C65.6457 225.145 67.388 218.894 67.8173 212.485C68.2467 206.077 67.354 199.649 65.1947 193.601C63.0354 187.552 59.6556 182.012 55.2651 177.324C50.8747 172.637 45.5674 168.902 39.6729 166.352C33.7784 163.802 27.4225 162.491 21 162.5Z" fill="#FFC247" fill-opacity="0.5"/>
<path d="M38.975 146.378C43.8125 141.563 52.5438 125 47.7156 120.159C42.8875 115.319 26.3125 124.063 21.4969 128.9C19.2126 131.225 17.939 134.358 17.9532 137.617C17.9675 140.876 19.2685 143.997 21.5731 146.302C23.8777 148.606 26.9992 149.908 30.2584 149.922C33.5175 149.936 36.6503 148.662 38.975 146.378Z" fill="#A5E887" fill-opacity="0.5"/>
<path d="M38.975 137.003C37.534 138.442 35.7599 139.503 33.8103 140.091C31.8607 140.679 29.796 140.776 27.7997 140.374C25.8035 139.972 23.9374 139.083 22.3673 137.787C20.7973 136.49 19.5719 134.825 18.8 132.941C17.7121 135.583 17.5737 138.522 18.4083 141.255C19.2429 143.988 20.9989 146.348 23.3775 147.932C25.7562 149.516 28.6103 150.227 31.4542 149.944C34.298 149.661 36.9558 148.401 38.975 146.378C43.6469 141.709 51.9469 126.066 48.1032 120.694C46.1912 126.69 43.0862 132.238 38.975 137.003Z" fill="#86C983" fill-opacity="0.5"/>
<path d="M41.9594 130.335L37.5406 125.916L14.75 148.713C11.8442 145.95 8.40602 143.807 4.64508 142.417C0.884139 141.026 -3.12066 140.417 -7.125 140.625V146.875C17.4719 146.875 17.875 170.863 17.875 171.875V175H24.125V171.875C23.8498 165.435 21.9712 159.165 18.6594 153.635L41.9594 130.335Z" fill="#98BA5C" fill-opacity="0.5"/>
<path d="M21 243.75C11.8865 243.739 3.14931 240.114 -3.29492 233.67C-9.73915 227.226 -13.3642 218.489 -13.375 209.375H-7.125C-7.1159 216.831 -4.14982 223.98 1.12267 229.252C6.39516 234.525 13.5436 237.491 21 237.5V243.75Z" fill="#F5E3A7" fill-opacity="0.5"/>
<path d="M39.75 184.375H46V190.625H39.75V184.375Z" fill="#F5E3A7" fill-opacity="0.5"/>
<path d="M52.25 196.875H58.5V203.125H52.25V196.875Z" fill="#F5E3A7" fill-opacity="0.5"/>
<path d="M39.75 196.875H46V203.125H39.75V196.875Z" fill="#F5E3A7" fill-opacity="0.5"/>
<path d="M75.1563 225.844C71.2685 226.458 67.4415 227.41 63.7187 228.688C61.2851 229.501 58.9398 230.559 56.7187 231.844L49.125 232.75L34.5625 234.5L30.375 230.313L39.3437 221.344C46.0625 214.625 48.2812 198.969 48.2812 198.969C50.1573 200.839 52.4031 202.297 54.875 203.25C54.8387 205.36 55.2297 207.455 56.0245 209.41C56.8194 211.365 58.0016 213.139 59.5 214.625C61.5399 216.681 64.1174 218.121 66.9375 218.781V218.813C68.2253 219.129 69.549 219.276 70.875 219.25C71.8277 221.722 73.2859 223.968 75.1563 225.844Z" fill="#98BA5C" fill-opacity="0.5"/>
<path d="M70.875 219.25C69.549 219.276 68.2253 219.129 66.9375 218.813V218.781C66.5781 218.7 66.2281 218.566 65.875 218.469C62.8123 219.065 59.7946 219.873 56.8438 220.887C54.4101 221.701 52.0648 222.759 49.8437 224.044L42.25 224.95L34.8625 225.838C31.5969 229.088 30.375 230.313 30.375 230.313L34.5625 234.5L49.125 232.75L56.7187 231.844C58.9398 230.559 61.2851 229.501 63.7187 228.688C67.4415 227.41 71.2685 226.458 75.1563 225.844C73.2859 223.968 71.8277 221.722 70.875 219.25Z" fill="#7A9E51"/>
<path d="M113.25 183.281C116.208 186.26 117.867 190.287 117.867 194.484C117.867 198.682 116.208 202.709 113.25 205.688C111.584 207.339 109.564 208.589 107.344 209.344C108.108 213.984 107.124 218.743 104.582 222.699C102.04 226.656 98.12 229.528 93.5816 230.761C89.0433 231.994 84.209 231.499 80.0144 229.373C75.8198 227.246 72.5633 223.639 70.875 219.25C69.5491 219.276 68.2254 219.129 66.9375 218.813V218.781C64.1174 218.121 61.5399 216.681 59.5 214.625C58.0016 213.139 56.8194 211.365 56.0245 209.41C55.2297 207.456 54.8387 205.36 54.875 203.25C51.9215 202.114 49.2989 200.257 47.2456 197.849C45.1924 195.441 43.7736 192.558 43.1184 189.462C42.4632 186.366 42.5923 183.156 43.494 180.122C44.3956 177.089 46.0413 174.329 48.2813 172.094C48.4375 171.938 48.5938 171.781 48.7813 171.625C50.8989 169.646 53.4431 168.18 56.2172 167.34C58.9914 166.5 61.9215 166.309 64.7813 166.781C65.536 164.561 66.7863 162.541 68.4375 160.875C71.416 157.918 75.4432 156.258 79.6406 156.258C83.8381 156.258 87.8652 157.918 90.8438 160.875C91.1563 161.188 91.375 161.563 91.6563 161.875C94.5351 160.721 97.6896 160.437 100.728 161.06C103.767 161.682 106.556 163.183 108.749 165.376C110.942 167.569 112.443 170.358 113.065 173.397C113.688 176.436 113.404 179.59 112.25 182.469C112.563 182.75 112.938 182.969 113.25 183.281Z" fill="#A5E887" fill-opacity="0.5"/>
<path d="M113.25 183.281C112.938 182.969 112.563 182.75 112.25 182.469C113.404 179.59 113.688 176.435 113.065 173.397C112.443 170.358 110.942 167.569 108.749 165.376C106.556 163.183 103.767 161.682 100.728 161.06C97.6896 160.437 94.5351 160.721 91.6562 161.875C91.375 161.562 91.1562 161.187 90.8437 160.875C88.4454 158.505 85.3541 156.962 82.0189 156.469C78.6836 155.976 75.278 156.56 72.2969 158.134C73.7144 158.848 75.0157 159.772 76.1563 160.875C76.4688 161.187 76.6875 161.562 76.9687 161.875C79.8476 160.721 83.0021 160.437 86.0406 161.06C89.0792 161.682 91.8681 163.183 94.0613 165.376C96.2545 167.569 97.7554 170.358 98.3778 173.397C99.0002 176.435 98.7167 179.59 97.5625 182.469C97.875 182.75 98.25 182.969 98.5625 183.281C101.52 186.26 103.18 190.287 103.18 194.484C103.18 198.682 101.52 202.709 98.5625 205.687C96.8967 207.339 94.877 208.589 92.6562 209.344C93.3541 213.555 92.608 217.878 90.539 221.611C88.4701 225.345 85.1999 228.269 81.2594 229.909C84.3852 231.225 87.8064 231.679 91.167 231.223C94.5276 230.768 97.7048 229.42 100.368 227.321C103.031 225.221 105.083 222.446 106.31 219.284C107.536 216.123 107.894 212.69 107.344 209.344C109.564 208.589 111.584 207.339 113.25 205.687C116.208 202.709 117.867 198.682 117.867 194.484C117.867 190.287 116.208 186.26 113.25 183.281Z" fill="#86C983" fill-opacity="0.5"/>
<path d="M282.611 181.433C276.211 169.522 259.444 166.089 245.167 173.761C230.889 181.433 226.444 196.486 232.847 208.4L236.164 204.845C241.194 199.503 243.456 198.447 249.631 194.442C249.631 194.442 266.558 181.847 282.611 181.433Z" fill="#5C9E31" fill-opacity="0.5"/>
<path d="M285.569 178.469C279.069 176.022 271.819 178.022 266.339 183.042C263.308 185.851 260.981 189.334 259.544 193.208C255.072 205.083 259.475 217.728 269.378 221.458C269.972 205.925 275.767 190.533 285.569 178.469Z" fill="#B1CC33" fill-opacity="0.5"/>
<path d="M339.25 155.439C334.342 142.839 318.117 137.392 303.011 143.275C293.442 147.003 286.614 154.383 284.144 162.497C282.717 167.186 282.744 172.125 284.544 176.742C284.544 176.742 308.506 153.247 339.25 155.439Z" fill="#5C9E31" fill-opacity="0.5"/>
<path d="M353.397 196.867C357.561 181.05 345.564 164.18 326.603 159.189C323.743 158.433 320.812 157.98 317.858 157.836C302.18 157.086 288.247 165.419 284.73 178.786C308.705 177.236 333.292 183.711 353.397 196.867Z" fill="#B1CC33" fill-opacity="0.5"/>
<path d="M216.108 165.956C216.108 165.956 250.936 163.319 280.961 173.242L283.128 174.469C283.128 174.469 289.353 155.444 273.956 147.436C261.039 140.722 228.417 134.892 216.108 165.956Z" fill="#5C9E31" fill-opacity="0.5"/>
<path d="M293.047 190.117C299.789 209.192 304.928 236.867 301.214 274.344M282.611 178.655C276.211 166.744 259.445 163.311 245.167 170.983C230.889 178.655 224.5 194.536 230.903 206.447C235.957 201.097 241.633 196.372 247.811 192.372M338.75 152.864C333.017 140.619 316.467 136.267 301.786 143.142C292.483 147.497 286.167 155.317 284.242 163.578C283.131 168.355 283.486 173.278 285.589 177.764" stroke="black" stroke-width="2" stroke-linecap="round" stroke-linejoin="round"/>
<path d="M285.57 178.469C279.07 176.022 271.82 178.022 266.339 183.042C263.309 185.851 260.981 189.334 259.545 193.208C255.072 205.083 259.475 217.728 269.378 221.458C269.972 205.925 275.767 190.533 285.57 178.469Z" stroke="black" stroke-width="2" stroke-linecap="round" stroke-linejoin="round"/>
<path d="M276.964 152.806C276.718 152.569 276.469 152.335 276.217 152.106C271.283 147.594 264.661 143.919 257.1 142.053C238.067 137.353 219.589 147.453 216.108 163.433C222.486 162.75 228.911 162.622 235.311 163.053M338.753 152.864L334.778 152.517M353.397 196.867C357.561 181.05 345.564 164.181 326.603 159.189C323.743 158.433 320.812 157.98 317.858 157.836C302.181 157.086 288.247 165.419 284.731 178.786C308.706 177.236 333.292 183.711 353.397 196.867Z" stroke="black" stroke-width="2" stroke-linecap="round" stroke-linejoin="round"/>
<path d="M543 243.25C568.888 243.25 589.875 222.263 589.875 196.375C589.875 170.487 568.888 149.5 543 149.5C517.112 149.5 496.125 170.487 496.125 196.375C496.125 222.263 517.112 243.25 543 243.25Z" fill="#FFA426" fill-opacity="0.5"/>
<path d="M508.625 196.375C508.631 185.032 512.752 174.077 520.223 165.542C527.694 157.007 538.008 151.473 549.25 149.966C542.603 149.018 535.829 149.51 529.389 151.408C522.948 153.306 516.99 156.565 511.919 160.965C506.847 165.366 502.78 170.804 499.992 176.913C497.205 183.021 495.762 189.657 495.762 196.372C495.762 203.086 497.205 209.722 499.992 215.831C502.78 221.94 506.847 227.378 511.919 231.778C516.99 236.178 522.948 239.438 529.389 241.336C535.829 243.233 542.603 243.725 549.25 242.778C538.009 241.271 527.696 235.737 520.225 227.204C512.754 218.671 508.633 207.717 508.625 196.375Z" fill="#FE8205" fill-opacity="0.5"/>
<path d="M543 149.5C540.909 149.516 538.821 149.671 536.75 149.966C547.989 151.473 558.299 157.008 565.765 165.543C573.232 174.078 577.347 185.032 577.347 196.372C577.347 207.712 573.232 218.666 565.765 227.201C558.299 235.735 547.989 241.271 536.75 242.778C543.114 243.644 549.588 243.193 555.77 241.452C561.952 239.711 567.71 236.718 572.687 232.658C577.663 228.598 581.752 223.558 584.699 217.852C587.646 212.145 589.388 205.894 589.817 199.485C590.247 193.077 589.354 186.649 587.195 180.601C585.035 174.552 581.656 169.012 577.265 164.324C572.875 159.637 567.567 155.902 561.673 153.352C555.778 150.802 549.423 149.491 543 149.5Z" fill="#FFC247" fill-opacity="0.5"/>
<path d="M560.975 133.378C565.812 128.563 574.544 112 569.716 107.159C564.888 102.319 548.313 111.063 543.497 115.9C541.213 118.225 539.939 121.358 539.953 124.617C539.968 127.876 541.269 130.997 543.573 133.302C545.878 135.606 548.999 136.908 552.258 136.922C555.517 136.936 558.65 135.662 560.975 133.378Z" fill="#A5E887" fill-opacity="0.5"/>
<path d="M560.975 124.003C559.534 125.442 557.76 126.503 555.81 127.091C553.861 127.679 551.796 127.776 549.8 127.374C547.803 126.972 545.937 126.083 544.367 124.787C542.797 123.49 541.572 121.825 540.8 119.941C539.712 122.583 539.574 125.522 540.408 128.255C541.243 130.988 542.999 133.348 545.377 134.932C547.756 136.516 550.61 137.227 553.454 136.944C556.298 136.661 558.956 135.401 560.975 133.378C565.647 128.709 573.947 113.066 570.103 107.694C568.191 113.69 565.086 119.238 560.975 124.003Z" fill="#86C983" fill-opacity="0.5"/>
<path d="M563.959 117.335L559.541 112.916L536.75 135.713C533.844 132.95 530.406 130.807 526.645 129.417C522.884 128.026 518.879 127.417 514.875 127.625V133.875C539.472 133.875 539.875 157.863 539.875 158.875V162H546.125V158.875C545.85 152.435 543.971 146.165 540.659 140.635L563.959 117.335Z" fill="#98BA5C" fill-opacity="0.5"/>
<path d="M543 230.75C533.886 230.739 525.149 227.114 518.705 220.67C512.261 214.226 508.636 205.489 508.625 196.375H514.875C514.884 203.831 517.85 210.98 523.123 216.252C528.395 221.525 535.544 224.491 543 224.5V230.75Z" fill="#F5E3A7" fill-opacity="0.5"/>
<path d="M508.625 183.875H514.875V190.125H508.625V183.875Z" fill="#F5E3A7" fill-opacity="0.5"/>
<path d="M561.75 171.375H568V177.625H561.75V171.375Z" fill="#F5E3A7" fill-opacity="0.5"/>
<path d="M574.25 183.875H580.5V190.125H574.25V183.875Z" fill="#F5E3A7" fill-opacity="0.5"/>
<path d="M561.75 183.875H568V190.125H561.75V183.875Z" fill="#F5E3A7" fill-opacity="0.5"/>
<path d="M483.625 180.75C488.956 181.055 494.222 182.075 499.281 183.781C504.531 185.375 508.625 187 508.625 187L504.063 189.281L496.125 193.25L502.375 202.625L483.625 196.375L464.875 202.625L471.125 193.25L463.188 189.281L458.625 187C458.625 187 473.25 181.156 482.688 180.781C483 180.75 483.312 180.75 483.625 180.75Z" fill="#A5E887" fill-opacity="0.5"/>
<path d="M521.125 215.125C521.127 218.86 520.384 222.557 518.938 226L505.5 227.625C501.356 227.625 497.382 229.271 494.451 232.201C491.521 235.132 489.875 239.106 489.875 243.25H474.25C467.777 243.242 461.505 241.002 456.492 236.907C451.478 232.813 448.031 227.114 446.731 220.773C445.431 214.431 446.359 207.836 449.357 202.099C452.354 196.362 457.24 191.835 463.188 189.281L471.125 193.25L464.875 202.625L483.625 196.375L502.375 202.625L496.125 193.25L504.063 189.281C509.126 191.444 513.442 195.046 516.475 199.641C519.509 204.235 521.125 209.619 521.125 215.125Z" fill="#FF475A" fill-opacity="0.5"/>
<path d="M504.063 195.531C508.66 197.506 512.645 200.674 515.607 204.707C518.568 208.74 520.398 213.491 520.906 218.469C521.667 212.432 520.433 206.312 517.392 201.043C514.351 195.773 509.67 191.642 504.063 189.281L496.125 193.25L499.25 197.938L504.063 195.531Z" fill="#F03049" fill-opacity="0.5"/>
<path d="M464.875 208.875L483.625 202.625L502.375 208.875L497.019 200.841L483.625 196.375L470.231 200.841L464.875 208.875Z" fill="#F03049" fill-opacity="0.5"/>
<path d="M454.375 201.5C456.904 198.965 459.895 196.939 463.187 195.531L468 197.938L471.125 193.25L463.187 189.281C457.623 191.64 452.972 195.736 449.929 200.958C446.887 206.18 445.617 212.246 446.309 218.25C447.008 211.91 449.854 206 454.375 201.5Z" fill="#F03049" fill-opacity="0.5"/>
<path d="M608.625 243.25C608.616 249.338 606.391 255.214 602.365 259.78C598.34 264.347 592.789 267.291 586.75 268.062C585.713 268.188 584.67 268.251 583.625 268.25C582.579 268.256 581.535 268.183 580.5 268.031C579.615 267.936 578.738 267.779 577.875 267.562L561.75 265.625L555.5 264.875L521.125 260.75L505.5 258.875C501.356 258.875 497.382 257.229 494.451 254.299C491.521 251.368 489.875 247.394 489.875 243.25C489.875 239.106 491.521 235.132 494.451 232.201C497.382 229.271 501.356 227.625 505.5 227.625L518.937 226L533.625 224.25L539.875 223.5L568 220.125L583.625 218.25C589.713 218.247 595.593 220.47 600.156 224.5C601.19 225.403 602.142 226.397 603 227.469C603.954 228.623 604.791 229.869 605.5 231.188C607.56 234.873 608.637 239.028 608.625 243.25Z" fill="#FFC247" fill-opacity="0.5"/>
<path d="M639.875 237V249.5H618L630.5 255.75L627.375 265.125L603 259.031C606.639 254.577 608.626 249.002 608.625 243.25C608.637 239.028 607.56 234.873 605.5 231.187C604.791 229.869 603.954 228.623 603 227.469L605.5 226.844L627.375 221.375L630.5 230.75L618 237H639.875Z" fill="#A5E887" fill-opacity="0.5"/>
<path d="M574.25 219.375V237H568V220.125L574.25 219.375Z" fill="#FF9500" fill-opacity="0.5"/>
<path d="M480.5 190.125C480.444 187.183 480.148 184.25 479.616 181.356C479.2 177.374 477.656 173.594 475.166 170.459L479.584 166.041C483.035 170.042 485.191 174.995 485.769 180.247C486.371 183.506 486.699 186.811 486.75 190.125H480.5Z" fill="#98BA5C" fill-opacity="0.5"/>
<path d="M574.25 219.375V237H568V220.125L574.25 219.375Z" fill="#FF9500" fill-opacity="0.5"/>
<path d="M597.156 212.844C593.268 213.458 589.442 214.41 585.719 215.688C583.285 216.501 580.94 217.559 578.719 218.844L571.125 219.75L556.562 221.5L552.375 217.313L561.344 208.344C568.062 201.625 570.281 185.969 570.281 185.969C572.157 187.839 574.403 189.297 576.875 190.25C576.839 192.36 577.23 194.455 578.025 196.41C578.819 198.365 580.002 200.139 581.5 201.625C583.54 203.681 586.117 205.121 588.938 205.781V205.813C590.225 206.129 591.549 206.276 592.875 206.25C593.828 208.722 595.286 210.968 597.156 212.844Z" fill="#98BA5C" fill-opacity="0.5"/>
<path d="M592.875 206.25C591.549 206.276 590.225 206.129 588.938 205.813V205.781C588.578 205.7 588.228 205.566 587.875 205.469C584.812 206.065 581.795 206.873 578.844 207.887C576.41 208.701 574.065 209.759 571.844 211.044L564.25 211.95L556.863 212.838C553.597 216.088 552.375 217.313 552.375 217.313L556.562 221.5L571.125 219.75L578.719 218.844C580.94 217.559 583.285 216.501 585.719 215.688C589.442 214.41 593.268 213.458 597.156 212.844C595.286 210.968 593.828 208.722 592.875 206.25Z" fill="#7A9E51"/>
<path d="M635.25 170.281C638.208 173.26 639.867 177.287 639.867 181.484C639.867 185.682 638.208 189.709 635.25 192.688C633.584 194.339 631.564 195.589 629.344 196.344C630.108 200.984 629.124 205.743 626.582 209.699C624.04 213.656 620.12 216.528 615.582 217.761C611.043 218.994 606.209 218.499 602.014 216.373C597.82 214.246 594.563 210.639 592.875 206.25C591.549 206.276 590.225 206.129 588.938 205.813V205.781C586.117 205.121 583.54 203.681 581.5 201.625C580.002 200.139 578.819 198.365 578.025 196.41C577.23 194.456 576.839 192.36 576.875 190.25C573.922 189.114 571.299 187.257 569.246 184.849C567.192 182.441 565.774 179.558 565.118 176.462C564.463 173.366 564.592 170.156 565.494 167.122C566.396 164.089 568.041 161.329 570.281 159.094C570.438 158.938 570.594 158.781 570.781 158.625C572.899 156.646 575.443 155.18 578.217 154.34C580.991 153.5 583.921 153.309 586.781 153.781C587.536 151.561 588.786 149.541 590.438 147.875C593.416 144.918 597.443 143.258 601.641 143.258C605.838 143.258 609.865 144.918 612.844 147.875C613.156 148.188 613.375 148.563 613.656 148.875C616.535 147.721 619.69 147.437 622.728 148.06C625.767 148.682 628.556 150.183 630.749 152.376C632.942 154.569 634.443 157.358 635.065 160.397C635.688 163.436 635.404 166.59 634.25 169.469C634.563 169.75 634.938 169.969 635.25 170.281Z" fill="#A5E887" fill-opacity="0.5"/>
<path d="M635.25 170.281C634.938 169.969 634.563 169.75 634.25 169.469C635.404 166.59 635.688 163.435 635.065 160.397C634.443 157.358 632.942 154.569 630.749 152.376C628.556 150.183 625.767 148.682 622.728 148.06C619.69 147.437 616.535 147.721 613.656 148.875C613.375 148.562 613.156 148.187 612.844 147.875C610.445 145.505 607.354 143.962 604.019 143.469C600.684 142.976 597.278 143.56 594.297 145.134C595.714 145.848 597.016 146.772 598.156 147.875C598.469 148.187 598.687 148.562 598.969 148.875C601.848 147.721 605.002 147.437 608.041 148.06C611.079 148.682 613.868 150.183 616.061 152.376C618.254 154.569 619.755 157.358 620.378 160.397C621 163.435 620.717 166.59 619.562 169.469C619.875 169.75 620.25 169.969 620.562 170.281C623.52 173.26 625.18 177.287 625.18 181.484C625.18 185.682 623.52 189.709 620.562 192.687C618.897 194.339 616.877 195.589 614.656 196.344C615.354 200.555 614.608 204.878 612.539 208.611C610.47 212.345 607.2 215.269 603.259 216.909C606.385 218.225 609.806 218.679 613.167 218.223C616.528 217.768 619.705 216.42 622.368 214.321C625.031 212.221 627.083 209.446 628.31 206.284C629.536 203.123 629.894 199.69 629.344 196.344C631.564 195.589 633.584 194.339 635.25 192.687C638.208 189.709 639.867 185.682 639.867 181.484C639.867 177.287 638.208 173.26 635.25 170.281Z" fill="#86C983" fill-opacity="0.5"/>
<path d="M826.611 184.433C820.211 172.522 803.444 169.089 789.167 176.761C774.889 184.433 770.444 199.486 776.847 211.4L780.164 207.845C785.194 202.503 787.456 201.447 793.631 197.442C793.631 197.442 810.558 184.847 826.611 184.433Z" fill="#5C9E31" fill-opacity="0.5"/>
<path d="M829.569 181.469C823.069 179.022 815.819 181.022 810.339 186.042C807.308 188.851 804.981 192.334 803.544 196.208C799.072 208.083 803.475 220.728 813.378 224.458C813.972 208.925 819.767 193.533 829.569 181.469Z" fill="#B1CC33" fill-opacity="0.5"/>
<path d="M883.25 158.439C878.342 145.839 862.117 140.392 847.011 146.275C837.442 150.003 830.614 157.383 828.144 165.497C826.717 170.186 826.744 175.125 828.544 179.742C828.544 179.742 852.506 156.247 883.25 158.439Z" fill="#5C9E31" fill-opacity="0.5"/>
<path d="M897.397 199.867C901.561 184.05 889.564 167.18 870.603 162.189C867.743 161.433 864.812 160.98 861.858 160.836C846.18 160.086 832.247 168.419 828.73 181.786C852.705 180.236 877.292 186.711 897.397 199.867Z" fill="#B1CC33" fill-opacity="0.5"/>
<path d="M760.108 168.956C760.108 168.956 794.936 166.319 824.961 176.242L827.128 177.469C827.128 177.469 833.353 158.444 817.956 150.436C805.039 143.722 772.417 137.892 760.108 168.956Z" fill="#5C9E31" fill-opacity="0.5"/>
<path d="M837.047 193.117C843.789 212.192 848.928 239.867 845.214 277.344M826.611 181.655C820.211 169.744 803.445 166.311 789.167 173.983C774.889 181.655 768.5 197.536 774.903 209.447C779.957 204.097 785.633 199.372 791.811 195.372M882.75 155.864C877.017 143.619 860.467 139.267 845.786 146.142C836.483 150.497 830.167 158.317 828.242 166.578C827.131 171.355 827.486 176.278 829.589 180.764" stroke="black" stroke-width="2" stroke-linecap="round" stroke-linejoin="round"/>
<path d="M829.57 181.469C823.07 179.022 815.82 181.022 810.339 186.042C807.309 188.851 804.981 192.334 803.545 196.208C799.072 208.083 803.475 220.728 813.378 224.458C813.972 208.925 819.767 193.533 829.57 181.469Z" stroke="black" stroke-width="2" stroke-linecap="round" stroke-linejoin="round"/>
<path d="M820.964 155.806C820.718 155.569 820.469 155.335 820.217 155.106C815.283 150.594 808.661 146.919 801.1 145.053C782.067 140.353 763.589 150.453 760.108 166.433C766.486 165.75 772.911 165.622 779.311 166.053M882.753 155.864L878.778 155.517M897.397 199.867C901.561 184.05 889.564 167.181 870.603 162.189C867.743 161.433 864.812 160.98 861.858 160.836C846.181 160.086 832.247 168.419 828.731 181.786C852.706 180.236 877.292 186.711 897.397 199.867Z" stroke="black" stroke-width="2" stroke-linecap="round" stroke-linejoin="round"/>
<path d="M1103 243.25C1128.89 243.25 1149.88 222.263 1149.88 196.375C1149.88 170.487 1128.89 149.5 1103 149.5C1077.11 149.5 1056.12 170.487 1056.12 196.375C1056.12 222.263 1077.11 243.25 1103 243.25Z" fill="#FFA426" fill-opacity="0.5"/>
<path d="M1068.62 196.375C1068.63 185.032 1072.75 174.077 1080.22 165.542C1087.69 157.007 1098.01 151.473 1109.25 149.966C1102.6 149.018 1095.83 149.51 1089.39 151.408C1082.95 153.306 1076.99 156.565 1071.92 160.965C1066.85 165.366 1062.78 170.804 1059.99 176.913C1057.2 183.021 1055.76 189.657 1055.76 196.372C1055.76 203.086 1057.2 209.722 1059.99 215.831C1062.78 221.94 1066.85 227.378 1071.92 231.778C1076.99 236.178 1082.95 239.438 1089.39 241.336C1095.83 243.233 1102.6 243.725 1109.25 242.778C1098.01 241.271 1087.7 235.737 1080.23 227.204C1072.75 218.671 1068.63 207.717 1068.62 196.375Z" fill="#FE8205" fill-opacity="0.5"/>
<path d="M1103 149.5C1100.91 149.516 1098.82 149.671 1096.75 149.966C1107.99 151.473 1118.3 157.008 1125.77 165.543C1133.23 174.078 1137.35 185.032 1137.35 196.372C1137.35 207.712 1133.23 218.666 1125.77 227.201C1118.3 235.735 1107.99 241.271 1096.75 242.778C1103.11 243.644 1109.59 243.193 1115.77 241.452C1121.95 239.711 1127.71 236.718 1132.69 232.658C1137.66 228.598 1141.75 223.558 1144.7 217.852C1147.65 212.145 1149.39 205.894 1149.82 199.485C1150.25 193.077 1149.35 186.649 1147.19 180.601C1145.04 174.552 1141.66 169.012 1137.27 164.324C1132.87 159.637 1127.57 155.902 1121.67 153.352C1115.78 150.802 1109.42 149.491 1103 149.5Z" fill="#FFC247" fill-opacity="0.5"/>
<path d="M1120.97 133.378C1125.81 128.563 1134.54 112 1129.72 107.159C1124.89 102.319 1108.31 111.063 1103.5 115.9C1101.21 118.225 1099.94 121.358 1099.95 124.617C1099.97 127.876 1101.27 130.997 1103.57 133.302C1105.88 135.606 1109 136.908 1112.26 136.922C1115.52 136.936 1118.65 135.662 1120.97 133.378Z" fill="#A5E887" fill-opacity="0.5"/>
<path d="M1120.97 124.003C1119.53 125.442 1117.76 126.503 1115.81 127.091C1113.86 127.679 1111.8 127.776 1109.8 127.374C1107.8 126.972 1105.94 126.083 1104.37 124.787C1102.8 123.49 1101.57 121.825 1100.8 119.941C1099.71 122.583 1099.57 125.522 1100.41 128.255C1101.24 130.988 1103 133.348 1105.38 134.932C1107.76 136.516 1110.61 137.227 1113.45 136.944C1116.3 136.661 1118.96 135.401 1120.97 133.378C1125.65 128.709 1133.95 113.066 1130.1 107.694C1128.19 113.69 1125.09 119.238 1120.97 124.003Z" fill="#86C983" fill-opacity="0.5"/>
<path d="M1123.96 117.335L1119.54 112.916L1096.75 135.713C1093.84 132.95 1090.41 130.807 1086.65 129.417C1082.88 128.026 1078.88 127.417 1074.88 127.625V133.875C1099.47 133.875 1099.88 157.863 1099.88 158.875V162H1106.12V158.875C1105.85 152.435 1103.97 146.165 1100.66 140.635L1123.96 117.335Z" fill="#98BA5C" fill-opacity="0.5"/>
<path d="M1103 230.75C1093.89 230.739 1085.15 227.114 1078.71 220.67C1072.26 214.226 1068.64 205.489 1068.62 196.375H1074.88C1074.88 203.831 1077.85 210.98 1083.12 216.252C1088.4 221.525 1095.54 224.491 1103 224.5V230.75Z" fill="#F5E3A7" fill-opacity="0.5"/>
<path d="M1068.62 183.875H1074.88V190.125H1068.62V183.875Z" fill="#F5E3A7" fill-opacity="0.5"/>
<path d="M1121.75 171.375H1128V177.625H1121.75V171.375Z" fill="#F5E3A7" fill-opacity="0.5"/>
<path d="M1121.75 183.875H1128V190.125H1121.75V183.875Z" fill="#F5E3A7" fill-opacity="0.5"/>
<path d="M1043.62 180.75C1048.96 181.055 1054.22 182.075 1059.28 183.781C1064.53 185.375 1068.62 187 1068.62 187L1064.06 189.281L1056.12 193.25L1062.38 202.625L1043.62 196.375L1024.88 202.625L1031.12 193.25L1023.19 189.281L1018.62 187C1018.62 187 1033.25 181.156 1042.69 180.781C1043 180.75 1043.31 180.75 1043.62 180.75Z" fill="#A5E887" fill-opacity="0.5"/>
<path d="M1081.13 215.125C1081.13 218.86 1080.38 222.557 1078.94 226L1065.5 227.625C1061.36 227.625 1057.38 229.271 1054.45 232.201C1051.52 235.132 1049.88 239.106 1049.88 243.25H1034.25C1027.78 243.242 1021.5 241.002 1016.49 236.907C1011.48 232.813 1008.03 227.114 1006.73 220.773C1005.43 214.431 1006.36 207.836 1009.36 202.099C1012.35 196.362 1017.24 191.835 1023.19 189.281L1031.13 193.25L1024.88 202.625L1043.63 196.375L1062.38 202.625L1056.13 193.25L1064.06 189.281C1069.13 191.444 1073.44 195.046 1076.48 199.641C1079.51 204.235 1081.13 209.619 1081.13 215.125Z" fill="#FF475A" fill-opacity="0.5"/>
<path d="M1064.06 195.531C1068.66 197.506 1072.65 200.674 1075.61 204.707C1078.57 208.74 1080.4 213.491 1080.91 218.469C1081.67 212.432 1080.43 206.312 1077.39 201.043C1074.35 195.773 1069.67 191.642 1064.06 189.281L1056.12 193.25L1059.25 197.938L1064.06 195.531Z" fill="#F03049" fill-opacity="0.5"/>
<path d="M1024.88 208.875L1043.62 202.625L1062.38 208.875L1057.02 200.841L1043.62 196.375L1030.23 200.841L1024.88 208.875Z" fill="#F03049" fill-opacity="0.5"/>
<path d="M1014.37 201.5C1016.9 198.965 1019.9 196.939 1023.19 195.531L1028 197.938L1031.12 193.25L1023.19 189.281C1017.62 191.64 1012.97 195.736 1009.93 200.958C1006.89 206.18 1005.62 212.246 1006.31 218.25C1007.01 211.91 1009.85 206 1014.37 201.5Z" fill="#F03049" fill-opacity="0.5"/>
<path d="M1168.62 243.25C1168.62 249.338 1166.39 255.214 1162.37 259.78C1158.34 264.347 1152.79 267.291 1146.75 268.062C1145.71 268.188 1144.67 268.251 1143.62 268.25C1142.58 268.256 1141.53 268.183 1140.5 268.031C1139.62 267.936 1138.74 267.779 1137.88 267.562L1121.75 265.625L1115.5 264.875L1081.12 260.75L1065.5 258.875C1061.36 258.875 1057.38 257.229 1054.45 254.299C1051.52 251.368 1049.88 247.394 1049.88 243.25C1049.88 239.106 1051.52 235.132 1054.45 232.201C1057.38 229.271 1061.36 227.625 1065.5 227.625L1078.94 226L1093.62 224.25L1099.88 223.5L1128 220.125L1143.62 218.25C1149.71 218.247 1155.59 220.47 1160.16 224.5C1161.19 225.403 1162.14 226.397 1163 227.469C1163.95 228.623 1164.79 229.869 1165.5 231.188C1167.56 234.873 1168.64 239.028 1168.62 243.25Z" fill="#FFC247" fill-opacity="0.5"/>
<path d="M1040.5 190.125C1040.44 187.183 1040.15 184.25 1039.62 181.356C1039.2 177.374 1037.66 173.594 1035.17 170.459L1039.58 166.041C1043.03 170.042 1045.19 174.995 1045.77 180.247C1046.37 183.506 1046.7 186.811 1046.75 190.125H1040.5Z" fill="#98BA5C" fill-opacity="0.5"/>
<path d="M1157.16 212.844C1153.27 213.458 1149.44 214.41 1145.72 215.688C1143.29 216.501 1140.94 217.559 1138.72 218.844L1131.12 219.75L1116.56 221.5L1112.38 217.313L1121.34 208.344C1128.06 201.625 1130.28 185.969 1130.28 185.969C1132.16 187.839 1134.4 189.297 1136.87 190.25C1136.84 192.36 1137.23 194.455 1138.02 196.41C1138.82 198.365 1140 200.139 1141.5 201.625C1143.54 203.681 1146.12 205.121 1148.94 205.781V205.813C1150.23 206.129 1151.55 206.276 1152.87 206.25C1153.83 208.722 1155.29 210.968 1157.16 212.844Z" fill="#98BA5C" fill-opacity="0.5"/>
<path d="M1152.87 206.25C1151.55 206.276 1150.23 206.129 1148.94 205.813V205.781C1148.58 205.7 1148.23 205.566 1147.88 205.469C1144.81 206.065 1141.79 206.873 1138.84 207.887C1136.41 208.701 1134.06 209.759 1131.84 211.044L1124.25 211.95L1116.86 212.838C1113.6 216.088 1112.38 217.313 1112.38 217.313L1116.56 221.5L1131.12 219.75L1138.72 218.844C1140.94 217.559 1143.29 216.501 1145.72 215.688C1149.44 214.41 1153.27 213.458 1157.16 212.844C1155.29 210.968 1153.83 208.722 1152.87 206.25Z" fill="#7A9E51"/>
<path d="M1195.25 170.281C1198.21 173.26 1199.87 177.287 1199.87 181.484C1199.87 185.682 1198.21 189.709 1195.25 192.688C1193.58 194.339 1191.56 195.589 1189.34 196.344C1190.11 200.984 1189.12 205.743 1186.58 209.699C1184.04 213.656 1180.12 216.528 1175.58 217.761C1171.04 218.994 1166.21 218.499 1162.01 216.373C1157.82 214.246 1154.56 210.639 1152.88 206.25C1151.55 206.276 1150.23 206.129 1148.94 205.813V205.781C1146.12 205.121 1143.54 203.681 1141.5 201.625C1140 200.139 1138.82 198.365 1138.02 196.41C1137.23 194.456 1136.84 192.36 1136.88 190.25C1133.92 189.114 1131.3 187.257 1129.25 184.849C1127.19 182.441 1125.77 179.558 1125.12 176.462C1124.46 173.366 1124.59 170.156 1125.49 167.122C1126.4 164.089 1128.04 161.329 1130.28 159.094C1130.44 158.938 1130.59 158.781 1130.78 158.625C1132.9 156.646 1135.44 155.18 1138.22 154.34C1140.99 153.5 1143.92 153.309 1146.78 153.781C1147.54 151.561 1148.79 149.541 1150.44 147.875C1153.42 144.918 1157.44 143.258 1161.64 143.258C1165.84 143.258 1169.87 144.918 1172.84 147.875C1173.16 148.188 1173.38 148.563 1173.66 148.875C1176.54 147.721 1179.69 147.437 1182.73 148.06C1185.77 148.682 1188.56 150.183 1190.75 152.376C1192.94 154.569 1194.44 157.358 1195.07 160.397C1195.69 163.436 1195.4 166.59 1194.25 169.469C1194.56 169.75 1194.94 169.969 1195.25 170.281Z" fill="#A5E887" fill-opacity="0.5"/>
</g>
<defs>
<clipPath id="clip0_7602_143286">
<rect width="1128" height="223" fill="white"/>
</clipPath>
</defs>
</svg>
