<svg width="173" height="172" viewBox="0 0 173 172" fill="none" xmlns="http://www.w3.org/2000/svg">
<rect x="0.5" width="172" height="172" rx="86" fill="#F2EFFF" fill-opacity="0.5"/>
<g clip-path="url(#clip0_6659_495)">
<path d="M53.7169 123.9C57.8094 125.378 62.13 126.125 66.4813 126.107C71.2329 126.09 75.9481 125.278 80.4313 123.704C89.4433 120.57 96.9261 114.737 101.501 107.28C106.138 99.7227 107.246 91.4047 104.621 83.8582C104.57 83.7145 104.512 83.5737 104.445 83.4364C105.104 83.9026 105.858 84.2168 106.653 84.3562C107.448 84.4955 108.264 84.4566 109.042 84.2422L133.843 72.2078C134.403 71.9386 134.905 71.5605 135.317 71.0956C135.73 70.6307 136.047 70.0883 136.248 69.5C136.449 68.9118 136.531 68.2893 136.49 67.6689C136.448 67.0486 136.283 66.4427 136.005 65.8866L135.639 65.1547C135.099 64.0704 134.16 63.2377 133.019 62.8317C131.878 62.4257 130.623 62.4781 129.52 62.9778L106.164 73.6418C105.001 73.9647 103.975 74.6609 103.245 75.6233C102.516 76.5857 102.123 77.7611 102.126 78.9688C102.126 79.5888 102.231 80.2043 102.438 80.7887L101.979 81.0951C95.8478 78.0287 80.9782 80.5008 67.0853 85.3334C66.269 85.6173 65.4552 85.9099 64.6438 86.2112C63.1085 80.5231 67.0817 76.383 67.298 76.1637L65.0843 73.9582C63.5702 75.5956 62.4377 77.548 61.7681 79.6752C60.9775 82.1669 60.9556 84.8389 61.7054 87.3432C59.2054 88.3414 56.803 89.3967 54.5298 90.4934C53.269 85.8133 53.1571 80.9844 53.3288 77.495C53.3625 76.7907 53.2551 76.0867 53.0129 75.4245C52.7707 74.7623 52.3987 74.1552 51.9185 73.6388C51.4384 73.1224 50.86 72.7071 50.2171 72.4174C49.5743 72.1277 48.88 71.9694 48.1751 71.9518C47.4702 71.9342 46.7689 72.0576 46.1124 72.3148C45.4559 72.572 44.8574 72.9579 44.3521 73.4496C43.8468 73.9414 43.4448 74.5292 43.1698 75.1784C42.8949 75.8277 42.7524 76.5254 42.7509 77.2305V88.2813C42.7504 88.5051 42.6612 88.7196 42.5029 88.8777C42.3445 89.0359 42.13 89.1248 41.9062 89.125C41.3829 89.1248 40.8647 89.2281 40.3816 89.429C39.8984 89.6298 39.4597 89.9242 39.0907 90.2952C38.7217 90.6663 38.4298 91.1066 38.2316 91.5909C38.0335 92.0752 37.9331 92.594 37.9362 93.1172C38.0055 95.6524 38.4573 98.1626 39.2763 100.563C36.8854 103.122 36.0304 105.443 36.7353 107.47C39.3604 115.016 45.3913 120.851 53.7169 123.9ZM79.4048 120.752C71.0724 123.65 62.3313 123.726 54.7913 120.965C49.2202 118.925 44.8108 115.515 41.9788 111.134C43.6126 111.454 45.2751 111.604 46.9397 111.581C47.8969 111.581 48.919 111.543 50.0062 111.469C55.3935 111.099 61.8771 109.814 68.6814 107.794C68.8181 107.816 72.5438 106.595 74.2724 105.994C78.2151 104.63 82.0844 103.062 85.8649 101.297L85.9446 101.26C90.0323 99.3364 93.6903 97.2905 96.6981 95.2282C99.3893 93.3831 101.416 91.6371 102.779 89.9901C103.955 102.468 94.4229 115.528 79.4048 120.752ZM95.6718 89.3065C95.3425 92.1073 94.794 92.6842 94.771 92.7075L94.8013 92.7377C93.5077 93.6186 92.089 94.4971 90.563 95.3641C91.5826 93.3459 92.2561 91.1709 92.5556 88.9297C92.6071 88.5513 92.7939 88.2043 93.0815 87.953C93.3691 87.7017 93.7379 87.563 94.1198 87.5625C94.3404 87.5625 94.5585 87.6091 94.7597 87.6994C94.961 87.7896 95.1409 87.9215 95.2875 88.0863C95.4341 88.2511 95.5442 88.445 95.6105 88.6554C95.6768 88.8658 95.6978 89.0878 95.6722 89.3069L95.6718 89.3065ZM130.808 65.8242C131.175 65.6586 131.593 65.6417 131.973 65.7773C132.352 65.9128 132.665 66.1902 132.844 66.5512L133.21 67.283C133.303 67.469 133.358 67.6717 133.372 67.8793C133.386 68.0868 133.358 68.2949 133.29 68.4915C133.222 68.6881 133.116 68.8692 132.977 69.0241C132.838 69.179 132.67 69.3047 132.482 69.3938L113.061 78.8545C113.045 78.0819 112.865 77.3215 112.533 76.6236C112.202 75.9257 111.725 75.3062 111.136 74.8061L130.808 65.8242ZM107.595 76.625C108.084 76.6244 108.56 76.777 108.958 77.0612C109.356 77.3454 109.655 77.7471 109.813 78.2098C109.971 78.6725 109.98 79.1731 109.839 79.6412C109.698 80.1094 109.414 80.5216 109.027 80.8201L108.167 81.2391C107.889 81.3124 107.6 81.3311 107.315 81.2942L107.681 81.0502C107.854 80.9374 108.003 80.7914 108.119 80.6207C108.235 80.45 108.316 80.2579 108.358 80.0556C108.399 79.8534 108.4 79.6449 108.36 79.4422C108.321 79.2395 108.242 79.0467 108.127 78.8749C108.012 78.7031 107.865 78.5557 107.693 78.4412C107.521 78.3268 107.328 78.2475 107.126 78.208C106.923 78.1685 106.715 78.1696 106.512 78.2112C106.31 78.2527 106.118 78.334 105.947 78.4502L105.254 78.9121C105.27 78.3011 105.523 77.7202 105.96 77.293C106.397 76.8658 106.983 76.6261 107.595 76.625ZM64.988 93.2504L67.3888 91.2498C66.8214 90.5739 66.3118 89.8515 65.8653 89.0903C66.6108 88.8151 67.3614 88.5459 68.1114 88.2848C76.6563 85.3127 84.9864 83.4272 91.5649 82.976C94.6261 82.7662 97.2063 82.8885 99.0259 83.3301C100.507 83.6891 101.445 84.241 101.669 84.8842C101.892 85.5274 101.499 86.5424 100.561 87.7428C100.018 88.4205 99.4218 89.0535 98.7778 89.636C98.9098 88.4087 98.553 87.1789 97.7848 86.2127C97.0166 85.2465 95.8988 84.6218 94.6733 84.4738C93.4479 84.3258 92.2135 84.6664 91.2373 85.4218C90.2611 86.1773 89.6218 87.2868 89.4577 88.5102C88.664 94.3522 85.2105 97.7567 84.2472 98.6043C80.6561 100.267 76.9839 101.748 73.2442 103.043C71.6502 103.597 70.0672 104.113 68.495 104.59C62.3218 103.398 57.9569 99.668 55.5128 93.4868C57.8433 92.35 60.3253 91.2571 62.9118 90.225C63.5033 91.299 64.1987 92.3123 64.988 93.2504ZM41.3056 92.4996C41.3841 92.4202 41.4776 92.3572 41.5807 92.3143C41.6838 92.2715 41.7945 92.2496 41.9062 92.25C42.9586 92.2488 43.9677 91.8302 44.7119 91.086C45.4561 90.3418 45.8747 89.3328 45.8759 88.2803V77.2305C45.8762 76.6556 46.1048 76.1044 46.5113 75.6979C46.9178 75.2914 47.469 75.0629 48.0438 75.0625C48.3378 75.0627 48.6286 75.1226 48.8986 75.2386C49.1686 75.3546 49.4122 75.5243 49.6146 75.7374C49.8171 75.9505 49.974 76.2026 50.076 76.4782C50.178 76.7538 50.2229 77.0473 50.2079 77.3409C49.9845 81.8805 50.2167 88.559 52.5921 94.5951C53.9603 98.0717 55.8954 100.933 58.3435 103.098C59.7376 104.327 61.3067 105.343 62.9993 106.111C59.4258 107.036 55.7927 107.713 52.1259 108.137L50.8206 107.896C47.3308 107.315 44.6804 105.11 42.9429 101.343C41.7829 98.7441 41.1438 95.9427 41.0616 93.0977C41.0605 92.9868 41.0815 92.8768 41.1234 92.7741C41.1653 92.6714 41.2272 92.5781 41.3056 92.4996ZM39.687 106.443C39.4708 105.822 39.8286 104.874 40.662 103.762C41.5844 105.514 42.8449 107.067 44.3706 108.329C43.6836 108.265 43.0018 108.154 42.33 107.997C40.8501 107.638 39.9118 107.087 39.6876 106.444V106.443L39.687 106.443Z" fill="#4C42E8"/>
<path d="M50.5625 56.3125C49.6354 56.3125 48.7291 56.5874 47.9583 57.1025C47.1874 57.6176 46.5866 58.3496 46.2318 59.2062C45.877 60.0627 45.7842 61.0052 45.9651 61.9145C46.1459 62.8238 46.5924 63.659 47.2479 64.3146C47.9035 64.9701 48.7387 65.4166 49.648 65.5974C50.5573 65.7783 51.4998 65.6855 52.3563 65.3307C53.2129 64.9759 53.9449 64.3751 54.46 63.6042C54.9751 62.8334 55.25 61.9271 55.25 61C55.2486 59.7572 54.7543 58.5658 53.8755 57.687C52.9967 56.8082 51.8053 56.3139 50.5625 56.3125ZM50.5625 62.5625C50.2535 62.5625 49.9514 62.4709 49.6944 62.2992C49.4375 62.1275 49.2372 61.8835 49.1189 61.5979C49.0007 61.3124 48.9697 60.9983 49.03 60.6952C49.0903 60.3921 49.2391 60.1137 49.4576 59.8951C49.6762 59.6766 49.9546 59.5278 50.2577 59.4675C50.5608 59.4072 50.8749 59.4382 51.1604 59.5564C51.446 59.6747 51.69 59.875 51.8617 60.1319C52.0334 60.3889 52.125 60.691 52.125 61C52.1245 61.4143 51.9598 61.8114 51.6668 62.1043C51.3739 62.3973 50.9768 62.562 50.5625 62.5625Z" fill="#4C42E8"/>
<path d="M66.1875 50.0625C66.1875 49.1354 65.9126 48.2291 65.3975 47.4583C64.8824 46.6874 64.1504 46.0866 63.2938 45.7318C62.4373 45.377 61.4948 45.2842 60.5855 45.4651C59.6762 45.6459 58.841 46.0924 58.1854 46.7479C57.5299 47.4035 57.0834 48.2387 56.9026 49.148C56.7217 50.0573 56.8145 50.9998 57.1693 51.8563C57.5241 52.7129 58.1249 53.4449 58.8958 53.96C59.6666 54.4751 60.5729 54.75 61.5 54.75C62.7428 54.7486 63.9343 54.2543 64.813 53.3755C65.6918 52.4967 66.1861 51.3053 66.1875 50.0625ZM59.9375 50.0625C59.9375 49.7535 60.0291 49.4514 60.2008 49.1944C60.3725 48.9375 60.6165 48.7372 60.9021 48.6189C61.1876 48.5007 61.5017 48.4697 61.8048 48.53C62.1079 48.5903 62.3863 48.7391 62.6049 48.9576C62.8234 49.1762 62.9722 49.4546 63.0325 49.7577C63.0928 50.0608 63.0618 50.3749 62.9436 50.6604C62.8253 50.946 62.625 51.19 62.3681 51.3617C62.1111 51.5334 61.809 51.625 61.5 51.625C61.0857 51.6245 60.6886 51.4598 60.3957 51.1668C60.1027 50.8739 59.938 50.4768 59.9375 50.0625Z" fill="#4C42E8"/>
<path d="M56.8125 67.25H59.9375V70.375H56.8125V67.25Z" fill="#4C42E8"/>
<path d="M55.25 81.3125H58.375V84.4375H55.25V81.3125Z" fill="#4C42E8"/>
<path d="M64.625 95.375H67.75V98.5H64.625V95.375Z" fill="#4C42E8"/>
<path d="M39.625 65.6875H42.75V68.8125H39.625V65.6875Z" fill="#4C42E8"/>
<path d="M52.8209 107.612L54.5543 105.012C50.7355 102.467 50.567 100.121 50.5625 100.022C50.5639 100.049 50.5625 100.062 50.5625 100.062H47.4375C47.4375 100.468 47.5885 104.125 52.8209 107.612Z" fill="#4C42E8"/>
<path d="M68.2361 60.1579C68.8816 59.1815 69.6119 58.2639 70.4188 57.4159L68.2076 55.2075C67.9977 55.4177 63.0625 60.414 63.0625 65.6874H66.1875C66.1875 64.094 66.8959 62.1819 68.2361 60.1579Z" fill="#4C42E8"/>
</g>
<defs>
<clipPath id="clip0_6659_495">
<rect width="100" height="100" fill="white" transform="translate(36.5 36)"/>
</clipPath>
</defs>
</svg>
