<svg width="18" height="18" viewBox="0 0 18 18" fill="none" xmlns="http://www.w3.org/2000/svg">
<path d="M9 0C4.02571 0 0 4.02528 0 9C0 13.9743 4.02528 18 9 18C13.9743 18 18 13.9747 18 9C18 4.02571 13.9747 0 9 0ZM16.9453 9C16.9453 11.0012 16.2014 12.8316 14.9759 14.2301L12.7523 12.0066C13.3343 10.8714 13.1734 9.49785 13.1646 9.42761C13.1347 9.18809 12.9461 8.9994 12.7066 8.96955C12.6956 8.96818 12.6526 8.96309 12.5838 8.95771C13.3636 7.78159 13.1741 6.16609 13.1646 6.08973C13.1347 5.85021 12.9461 5.66153 12.7066 5.63168C12.6526 5.62496 11.8286 5.52829 10.9346 5.74815C10.9733 5.56766 10.9953 5.38077 10.9953 5.18857C10.9953 3.54037 9.39217 2.27373 9.32393 2.22061C9.13345 2.07236 8.86662 2.07236 8.67614 2.22061C8.6079 2.27373 7.00478 3.54037 7.00478 5.18857C7.00478 5.38073 7.02679 5.56763 7.06542 5.74812C6.82671 5.68941 6.5931 5.65323 6.3777 5.63196L3.76988 3.02414C5.16836 1.79863 6.99884 1.05469 9 1.05469C13.3811 1.05469 16.9453 4.61893 16.9453 9ZM8.46288 12.5969C7.929 12.5933 7.03466 12.499 6.498 11.9623C5.9612 11.4255 5.86691 10.5309 5.86329 9.99749C6.39717 10.0011 7.29151 10.0955 7.82817 10.6321C8.36497 11.1689 8.45926 12.0635 8.46288 12.5969ZM8.46285 9.25777C6.72887 9.24205 5.87563 8.4825 5.86332 6.65961C7.59161 6.67118 8.45009 7.43906 8.46285 9.25777ZM12.1366 6.65954C12.1249 8.41416 11.3354 9.24648 9.53849 9.25907C9.55487 7.4456 10.3902 6.67122 12.1366 6.65954ZM9.00004 7.02664C8.52219 6.5424 8.05943 5.87166 8.05943 5.18854C8.05943 4.42941 8.6253 3.73018 8.99996 3.35043C9.37491 3.73043 9.94057 4.42955 9.94057 5.18854C9.94057 5.87148 9.47524 6.545 9.00004 7.02664ZM10.1718 10.6321C10.7086 10.0953 11.6032 10.001 12.1366 9.99742C12.1331 10.5313 12.0387 11.4256 11.502 11.9623C10.9652 12.4991 10.0706 12.5934 9.53719 12.597C9.54077 12.0632 9.63513 11.1688 10.1718 10.6321ZM1.05469 9C1.05469 6.99884 1.79863 5.16836 3.02414 3.76988L5.01209 5.75782C4.91695 5.84089 4.85191 5.95744 4.83543 6.0897C4.8259 6.16605 4.63644 7.78152 5.41628 8.95764C5.34748 8.96305 5.30448 8.96815 5.29348 8.96952C5.05396 8.9994 4.86527 9.18805 4.83543 9.42757C4.8247 9.51335 4.5868 11.5426 5.75227 12.7081C6.55523 13.5111 7.76777 13.6478 8.47269 13.6517V15.3633C8.47269 15.6545 8.7088 15.8906 9.00004 15.8906C9.29127 15.8906 9.52738 15.6545 9.52738 15.3633V13.6517C10.1901 13.648 11.3014 13.5267 12.0993 12.845L14.2301 14.9759C12.8316 16.2014 11.0012 16.9453 9 16.9453C4.61893 16.9453 1.05469 13.3811 1.05469 9Z" fill="#1A1A2C"/>
</svg>
