<svg width="158" height="152" viewBox="0 0 158 152" fill="none" xmlns="http://www.w3.org/2000/svg">
<rect width="158" height="152" rx="76" fill="#F2EFFF"/>
<g clip-path="url(#clip0_8724_153356)">
<path d="M100.03 36H57.97C53.0267 36 49 40.0467 49 45.02V110.233C49 112.4 50.1933 114.363 52.1133 115.357C54.0233 116.34 56.2967 116.18 58.05 114.933L78.5833 100.323C78.83 100.147 79.1667 100.147 79.4167 100.323L99.95 114.933C100.94 115.637 102.1 115.993 103.263 115.993C104.16 115.993 105.057 115.783 105.887 115.357C107.807 114.367 109 112.403 109 110.237V45.02C109 40.0467 104.973 36 100.03 36Z" fill="#2196F3"/>
<path d="M95.7406 72.7627L80.8173 88.5493C80.344 89.0493 79.6873 89.3327 79.0006 89.3327C78.314 89.3327 77.6573 89.0493 77.184 88.5527L62.2606 72.766C57.934 68.1927 57.934 60.7493 62.2606 56.1727C66.5306 51.656 74.054 51.656 78.3306 56.1727L79.0006 56.8827L79.6706 56.1727C83.944 51.656 91.4673 51.656 95.7406 56.1727C100.067 60.746 100.067 68.1893 95.7406 72.7627Z" fill="#FAFAFA"/>
</g>
<defs>
<clipPath id="clip0_8724_153356">
<rect width="80" height="80" fill="white" transform="translate(39 36)"/>
</clipPath>
</defs>
</svg>
