<svg width="148" height="32" viewBox="0 0 148 32" fill="none" xmlns="http://www.w3.org/2000/svg">
<g clip-path="url(#clip0_8326_153463)">
<path d="M147.2 0H0V32H147.2V0Z" fill="white"/>
<path d="M11.5649 9.05976C11.5195 9.06577 11.4741 9.07179 11.4307 9.07979C10.9124 8.55262 10.4407 7.9804 10.021 7.36977C9.87105 7.11665 9.82575 6.81374 9.89487 6.52689C9.96398 6.24009 10.142 5.99245 10.3902 5.83778C10.5505 5.73828 10.7335 5.68247 10.9213 5.67578C10.9272 5.71178 10.9312 5.74978 10.9371 5.78778C11.0356 6.56177 11.2451 7.6618 11.5649 9.05976Z" fill="#4C42E8"/>
<path d="M15.243 7.36977C14.8234 7.9804 14.3517 8.55262 13.8334 9.07979C13.7919 9.07179 13.7485 9.06577 13.707 9.05976C14.0308 7.64977 14.2401 6.54776 14.3309 5.78778C14.3349 5.74978 14.3408 5.71178 14.3447 5.67578C14.532 5.68248 14.7142 5.7383 14.8738 5.83778C15.1221 5.99245 15.3001 6.24009 15.3692 6.52689C15.4383 6.81374 15.393 7.11665 15.243 7.36977Z" fill="#4C42E8"/>
<path d="M13.9941 4.97961C13.9921 5.23257 13.9737 5.48513 13.9388 5.73561C13.8282 6.66361 13.5557 7.94963 13.3109 9.01158C13.2063 9.00159 13.1017 8.99359 12.9951 8.98963C12.8746 8.98163 12.7542 8.97958 12.6318 8.97958C12.5094 8.97958 12.389 8.98163 12.2685 8.98963C12.1659 8.99359 12.0613 9.00159 11.9586 9.00959C11.7138 7.94361 11.4433 6.65958 11.3268 5.73761C11.292 5.48706 11.2722 5.23459 11.2676 4.98161C11.2673 4.61535 11.4107 4.26398 11.6662 4.0048C11.9216 3.74563 12.2683 3.59987 12.6298 3.59961C12.9914 3.59935 13.3382 3.74459 13.594 4.00339C13.8499 4.26219 13.9937 4.61334 13.9941 4.97961Z" fill="#4C42E8"/>
<path d="M16.0218 13.4221C15.9699 13.4296 15.9173 13.4159 15.8753 13.3841C15.8335 13.3523 15.8057 13.3048 15.7983 13.2523C15.7909 13.1997 15.8044 13.1464 15.8359 13.1039C15.8673 13.0614 15.9141 13.0334 15.9659 13.0259C16.7934 12.9291 17.6287 12.9201 18.458 12.9991C17.5378 10.8819 15.2759 9.38086 12.6352 9.38086C9.26239 9.38086 6.50432 11.8287 6.375 14.8831C7.38392 14.8035 8.39865 14.852 9.39563 15.0277C9.44339 15.0378 9.48578 15.0654 9.51466 15.1053C9.54346 15.1451 9.55673 15.1944 9.5518 15.2436C9.54688 15.2928 9.5242 15.3384 9.48806 15.3716C9.45192 15.4048 9.40492 15.4233 9.35615 15.4235C9.34288 15.4235 9.32968 15.4221 9.31666 15.4195C8.34577 15.251 7.35795 15.2056 6.37601 15.2845C6.43407 17.0645 7.35347 18.9555 8.65275 19.9349C8.9299 20.1447 9.19467 20.3707 9.44579 20.6119C10.2606 20.5873 11.0758 20.6489 11.8781 20.7957C11.9253 20.8066 11.9669 20.8347 11.995 20.8747C12.0231 20.9147 12.0358 20.9638 12.0304 21.0125C12.0251 21.0613 12.0023 21.1064 11.9663 21.1393C11.9303 21.1722 11.8836 21.1905 11.8352 21.1907C11.8206 21.1907 11.8062 21.1891 11.792 21.1859C11.1443 21.0669 10.4876 21.0067 9.8294 21.0059C10.2511 21.4644 10.6079 21.9801 10.8896 22.5381C11.5075 23.7921 12.1965 25.3681 12.5281 28.2241C12.5334 28.2728 12.5563 28.3177 12.5924 28.3502C12.6285 28.3828 12.6753 28.4005 12.7236 28.4001H12.7256C12.7743 28.3999 12.8213 28.3813 12.8574 28.3481C12.8935 28.3148 12.9162 28.2692 12.921 28.2201C13.233 25.0541 14.0345 23.3241 14.8558 21.9281C15.3474 21.1193 15.9858 20.4122 16.7372 19.8441C16.9457 19.6771 17.1392 19.492 17.3159 19.2909C16.5306 19.2303 15.7414 19.2461 14.959 19.3379C14.9492 19.3393 14.9392 19.34 14.9293 19.3401C14.8796 19.3398 14.8319 19.3207 14.7955 19.2865C14.7592 19.2522 14.737 19.2053 14.7332 19.1551C14.7295 19.105 14.7446 19.0553 14.7754 19.0159C14.8062 18.9764 14.8506 18.9503 14.8996 18.9425C15.8034 18.8349 16.716 18.8266 17.6215 18.9175C18.4294 17.8134 18.8763 16.481 18.8994 15.1069C18.8995 14.5327 18.8056 13.9626 18.6217 13.4195C17.7578 13.32 16.8855 13.3208 16.0218 13.4221ZM11.9548 17.7033C11.9451 17.7476 11.9207 17.7872 11.8858 17.8157C11.8508 17.8441 11.8074 17.8596 11.7626 17.8597C11.748 17.8596 11.7335 17.858 11.7193 17.8549C11.0131 17.6955 10.2869 17.6463 9.56602 17.7087C9.51478 17.7115 9.46443 17.6939 9.42577 17.6598C9.38704 17.6257 9.36297 17.5776 9.35867 17.5258C9.35438 17.474 9.37017 17.4225 9.40264 17.3823C9.43518 17.3421 9.48187 17.3162 9.53285 17.3103C10.2936 17.2445 11.0599 17.2966 11.8052 17.4645C11.8306 17.4701 11.8545 17.4808 11.8758 17.4959C11.897 17.511 11.9152 17.5302 11.9291 17.5524C11.943 17.5745 11.9525 17.5993 11.957 17.6252C11.9615 17.6511 11.9605 17.6776 11.9548 17.7033ZM12.052 13.0345C12.0422 13.0788 12.0178 13.1185 11.9828 13.1469C11.9478 13.1754 11.9043 13.1908 11.8595 13.1909C11.845 13.1908 11.8305 13.1893 11.8163 13.1863C11.0464 13.0125 10.255 12.9586 9.46904 13.0263C9.4432 13.0289 9.41705 13.0261 9.39222 13.0183C9.36739 13.0105 9.3444 12.9977 9.3245 12.9807C9.3046 12.9638 9.2883 12.9429 9.27642 12.9194C9.26461 12.896 9.25753 12.8703 9.25563 12.8441C9.25349 12.8179 9.25639 12.7915 9.26423 12.7665C9.27212 12.7415 9.28476 12.7183 9.3015 12.6982C9.31818 12.6781 9.33865 12.6616 9.36171 12.6495C9.3847 12.6374 9.40985 12.6301 9.43569 12.6279C10.2615 12.556 11.0933 12.6123 11.9023 12.7949C11.9277 12.8006 11.9518 12.8113 11.9731 12.8264C11.9944 12.8415 12.0126 12.8608 12.0265 12.8831C12.0405 12.9053 12.05 12.9302 12.0544 12.9562C12.0588 12.9821 12.0577 13.0088 12.052 13.0345ZM16.0326 16.1069C16.0229 16.1513 15.9985 16.191 15.9635 16.2195C15.9286 16.2479 15.8851 16.2634 15.8401 16.2635C15.8256 16.2635 15.8111 16.2618 15.7969 16.2585C15.0906 16.0993 14.3645 16.0501 13.6436 16.1125C13.5915 16.1169 13.5397 16.1002 13.4997 16.066C13.4596 16.0317 13.4347 15.9828 13.4303 15.93C13.4259 15.8771 13.4424 15.8247 13.4762 15.7841C13.51 15.7436 13.5583 15.7183 13.6105 15.7139C14.3713 15.6481 15.1376 15.7002 15.883 15.8683C15.9341 15.8799 15.9785 15.9115 16.0066 15.9562C16.0346 16.001 16.044 16.0552 16.0326 16.1069Z" fill="#4C42E8"/>
<path d="M27.6641 24.3195V6.11953H38.3867V8.56952H30.502V13.732H37.9055V16.1945H30.502V24.3195H27.6641ZM47.1597 24.607C46.0986 24.607 45.1402 24.4321 44.2848 24.082C43.4375 23.732 42.7423 23.2529 42.1995 22.6445C41.6647 22.0362 41.2535 21.332 40.9656 20.532C40.6858 19.7237 40.546 18.8487 40.546 17.9071C40.546 16.6237 40.7928 15.482 41.2864 14.482C41.7799 13.4737 42.5326 12.6696 43.5444 12.0696C44.5644 11.4696 45.7736 11.1695 47.1721 11.1695C48.2415 11.1695 49.1957 11.3404 50.0347 11.682C50.8738 12.0237 51.5566 12.5029 52.083 13.1195C52.6095 13.7279 53.0084 14.4404 53.2799 15.257C53.5596 16.0654 53.6994 16.957 53.6994 17.932C53.6994 18.857 53.5555 19.7195 53.2676 20.5195C52.9879 21.3195 52.5807 22.0279 52.046 22.6445C51.5195 23.2529 50.8326 23.732 49.9854 24.082C49.1463 24.4321 48.2045 24.607 47.1597 24.607ZM47.1474 22.332C48.3649 22.332 49.2779 21.9195 49.8866 21.0945C50.5036 20.2696 50.8121 19.2029 50.8121 17.8945C50.8121 16.5695 50.4995 15.4945 49.8743 14.6696C49.2491 13.8445 48.3361 13.432 47.1351 13.432C45.934 13.432 45.0168 13.8445 44.3834 14.6696C43.75 15.4945 43.4333 16.5695 43.4333 17.8945C43.4333 19.2029 43.7459 20.2696 44.3711 21.0945C44.9963 21.9195 45.9217 22.332 47.1474 22.332ZM57.0557 24.3195V14.6945C57.0557 14.3446 57.0392 13.9029 57.0063 13.3695C56.9734 12.8362 56.9405 12.3904 56.9076 12.032L56.8582 11.4945H59.7949V13.3071C60.708 11.882 61.7856 11.1695 63.0277 11.1695C63.4393 11.1695 63.867 11.232 64.3111 11.357V13.8196C63.8341 13.6528 63.3401 13.5695 62.8303 13.5695C61.9337 13.5695 61.2098 13.8779 60.6586 14.4945C60.1075 15.1029 59.8319 15.9737 59.8319 17.1071V24.3195H57.0557ZM66.7541 24.3195V5.95703H69.5181V16.807L74.4414 11.4945H78.242L72.0596 17.6445L78.6615 24.3195H74.984L69.5181 18.5695V24.3195H66.7541ZM80.8701 24.3195V6.11953H91.5924V8.56952H83.708V13.732H91.1116V16.1945H83.708V24.3195H80.8701ZM100.267 22.332C101.476 22.332 102.377 21.9279 102.969 21.1195C103.562 20.3029 103.858 19.2153 103.858 17.857C103.858 16.5237 103.549 15.4528 102.932 14.6445C102.323 13.8362 101.423 13.432 100.23 13.432C99.0042 13.432 98.0786 13.8404 97.4538 14.657C96.8284 15.4654 96.5157 16.5404 96.5157 17.882C96.5157 19.1987 96.8284 20.2696 97.4538 21.0945C98.0868 21.9195 99.025 22.332 100.267 22.332ZM99.8842 24.607C98.8974 24.607 98.0047 24.4237 97.2068 24.057C96.4089 23.682 95.7632 23.1821 95.2698 22.557C94.7764 21.932 94.398 21.2321 94.1346 20.457C93.8793 19.6737 93.7517 18.8529 93.7517 17.9945C93.7517 17.0945 93.8875 16.2362 94.1592 15.4196C94.4391 14.6029 94.8339 13.8779 95.3438 13.2445C95.8536 12.6112 96.5037 12.1071 97.2934 11.732C98.0913 11.357 98.9713 11.1695 99.9341 11.1695C100.773 11.1695 101.522 11.3529 102.179 11.7195C102.838 12.0779 103.364 12.5612 103.759 13.1695V11.4945H106.461V24.3195H103.71V22.3945C103.331 23.0612 102.809 23.5987 102.143 24.007C101.484 24.407 100.732 24.607 99.8842 24.607ZM116.135 24.607C114.803 24.607 113.634 24.3071 112.631 23.7071C111.627 23.0987 110.87 22.2945 110.361 21.2945C109.85 20.2945 109.596 19.1778 109.596 17.9446C109.596 16.6445 109.858 15.482 110.385 14.457C110.92 13.432 111.685 12.6279 112.68 12.0445C113.684 11.4612 114.839 11.1695 116.148 11.1695C118.031 11.1695 119.495 11.7195 120.54 12.8195L119.565 14.6445C118.669 13.8445 117.611 13.4445 116.394 13.4445C115.185 13.4445 114.226 13.8404 113.519 14.632C112.82 15.4237 112.47 16.5237 112.47 17.932C112.47 19.2654 112.824 20.332 113.531 21.132C114.239 21.932 115.201 22.332 116.419 22.332C117.554 22.332 118.644 21.9362 119.689 21.1446L120.54 23.1945C119.24 24.1362 117.772 24.607 116.135 24.607ZM130.621 24.3071H129.437C128.532 24.3071 127.787 24.2487 127.203 24.132C126.619 24.0154 126.101 23.7945 125.649 23.4696C125.196 23.1446 124.867 22.6779 124.661 22.0696C124.464 21.4612 124.365 20.6779 124.365 19.7195V13.3695H121.848V11.4945H124.439V8.36952L127.117 7.55704V11.4945H130.572V13.3695H127.117V19.882C127.117 20.407 127.162 20.8153 127.253 21.1071C127.343 21.3904 127.532 21.6153 127.82 21.7821C128.108 21.9487 128.454 22.0529 128.857 22.0945C129.26 22.1362 129.848 22.157 130.621 22.157V24.3071ZM138.222 24.607C137.119 24.607 136.124 24.4445 135.236 24.1195C134.347 23.7945 133.648 23.4279 133.138 23.0196L133.854 20.9695C134.356 21.3529 134.989 21.682 135.754 21.957C136.519 22.2321 137.268 22.3695 138 22.3695C139.464 22.3695 140.196 21.8237 140.196 20.732C140.196 20.3154 140.044 19.9945 139.739 19.7695C139.435 19.5362 138.79 19.2487 137.802 18.9071L136.618 18.4945C136.059 18.3029 135.602 18.1195 135.248 17.9446C134.894 17.7695 134.549 17.5446 134.211 17.2696C133.875 16.9945 133.623 16.657 133.459 16.257C133.303 15.857 133.225 15.3821 133.225 14.832C133.225 14.1987 133.352 13.6445 133.607 13.1695C133.862 12.6862 134.211 12.3071 134.656 12.032C135.1 11.7487 135.589 11.5404 136.124 11.407C136.659 11.2654 137.231 11.1945 137.84 11.1945C138.695 11.1945 139.509 11.3029 140.283 11.5195C141.056 11.7362 141.714 12.0237 142.257 12.3821L141.517 14.332C141.081 14.0987 140.542 13.8862 139.9 13.6945C139.267 13.5029 138.67 13.407 138.111 13.407C136.655 13.407 135.927 13.8487 135.927 14.732C135.927 15.132 136.054 15.432 136.31 15.6321C136.572 15.8321 137.144 16.0904 138.025 16.407C138.058 16.4153 138.259 16.4862 138.629 16.6196C139.008 16.7529 139.221 16.8279 139.271 16.8445C139.748 17.0112 140.139 17.1654 140.443 17.3071C140.747 17.4404 141.06 17.6153 141.381 17.8321C141.71 18.0487 141.965 18.282 142.146 18.532C142.326 18.7821 142.475 19.0904 142.59 19.457C142.713 19.8237 142.775 20.2445 142.775 20.7195C142.775 21.4196 142.639 22.0321 142.368 22.557C142.105 23.0737 141.746 23.4779 141.294 23.7695C140.842 24.0529 140.357 24.2612 139.839 24.3945C139.328 24.5362 138.79 24.607 138.222 24.607Z" fill="#4C42E8"/>
</g>
<defs>
<clipPath id="clip0_8326_153463">
<rect width="147.2" height="32" fill="white"/>
</clipPath>
</defs>
</svg>
