<svg width="86" height="80" viewBox="0 0 86 80" fill="none" xmlns="http://www.w3.org/2000/svg">
<path fill-rule="evenodd" clip-rule="evenodd" d="M2.81848 67.6495L59.0807 77.5868V50.8351L2.81848 42.9015V67.6495ZM60.1818 80.0001C60.1183 80.0001 60.0539 79.9949 59.9902 79.9834L1.52645 69.6574C1.00029 69.5645 0.616699 69.1073 0.616699 68.5733L0.617026 41.6346C0.617026 41.3158 0.755026 41.0127 0.99538 40.8037C1.23704 40.5941 1.56079 40.5002 1.87145 40.5444L60.3355 48.7884C60.8793 48.8652 61.2828 49.3299 61.2828 49.879L61.2832 78.8987C61.2832 79.2244 61.1393 79.5338 60.8891 79.7421C60.6893 79.9102 60.4382 80.0001 60.1818 80.0001Z" fill="#8582FF"/>
<path fill-rule="evenodd" clip-rule="evenodd" d="M61.2829 50.5685V77.1428L83.1817 66.5466V39.9722L61.2829 50.5685ZM60.1819 80C59.9785 80 59.7751 79.9437 59.5968 79.8319C59.276 79.6304 59.0808 79.2782 59.0808 78.8989L59.0811 49.8791C59.0811 49.4569 59.3225 49.0717 59.7025 48.8879L83.8027 37.2263C84.1447 37.0612 84.546 37.0828 84.8674 37.2845C85.1889 37.4856 85.3831 37.8382 85.3831 38.2172L85.3835 67.2373C85.3835 67.6591 85.1421 68.0447 84.7625 68.2291L60.6616 79.8907C60.5089 79.9637 60.3454 80 60.1819 80Z" fill="#8582FF"/>
<path fill-rule="evenodd" clip-rule="evenodd" d="M18.7586 19.9899L34.7878 22.074L40.1351 19.9504C40.2162 19.9177 40.3025 19.8951 40.3905 19.883L62.3121 16.8526L66.99 6.49641L12.8877 2.25211L7.9969 10.5334L18.0195 17.3333C18.2766 17.5079 18.4489 17.7833 18.4917 18.0913L18.7586 19.9899ZM34.9287 24.3036C34.8816 24.3036 34.8339 24.301 34.7868 24.2947L17.6435 22.0652C17.152 22.0014 16.7648 21.6175 16.6951 21.127L16.3795 18.8817L5.90499 11.7751C5.42428 11.449 5.27942 10.8048 5.57537 10.3045L11.3406 0.541176C11.5548 0.178845 11.9551 -0.0288079 12.3746 0.00323933L68.7245 4.4238C69.0823 4.4516 69.4034 4.65238 69.5859 4.96108C69.769 5.26946 69.7896 5.64781 69.6421 5.97417L64.0688 18.3133C63.9125 18.6577 63.5901 18.8987 63.2153 18.9504L40.8238 22.0455L35.3352 24.2261C35.2054 24.2771 35.0674 24.3036 34.9287 24.3036Z" fill="#8582FF"/>
<path fill-rule="evenodd" clip-rule="evenodd" d="M31.9326 30.5766L82.4201 36.8751L68.6669 8.13201L64.0685 18.3129C63.9122 18.6576 63.5897 18.8986 63.215 18.9503L40.8234 22.0454L35.3348 24.226C35.1612 24.2946 34.9732 24.3198 34.7864 24.2946L28.5317 23.4813L31.9326 30.5766ZM84.2828 39.3176C84.237 39.3176 84.1916 39.3153 84.1461 39.3098L31.0634 32.6874C30.6913 32.6407 30.3685 32.4085 30.2063 32.0707L25.6696 22.6033C25.495 22.2394 25.5343 21.8093 25.7704 21.4823C26.0071 21.1556 26.4041 20.9839 26.8047 21.0363L34.7874 22.0739L40.1347 19.9503C40.2158 19.9176 40.3022 19.895 40.3901 19.8829L62.3118 16.8525L67.6352 5.0679C67.8121 4.67744 68.1983 4.42532 68.6264 4.42041H68.6382C69.062 4.42041 69.4488 4.66338 69.6316 5.04599L85.2763 37.7417C85.4492 38.1047 85.4107 38.5338 85.1752 38.8604C84.9669 39.1495 84.6337 39.3179 84.2828 39.3176Z" fill="#8582FF"/>
<path fill-rule="evenodd" clip-rule="evenodd" d="M6.44176 41.1888L60.0036 48.7411L80.4497 38.848L31.3147 32.7185L6.44176 41.1888ZM60.1818 50.9792C60.1304 50.9792 60.0788 50.9763 60.0281 50.9691L1.56403 42.7244C1.05978 42.6538 0.669326 42.2454 0.621582 41.7378C0.573839 41.2303 0.88025 40.7568 1.36292 40.5923L30.8444 30.5524C31.0021 30.4987 31.1692 30.4807 31.3353 30.5017L84.4187 37.1237C84.903 37.1842 85.2895 37.556 85.3686 38.0377C85.4478 38.5184 85.2006 38.9952 84.762 39.2074L60.6612 50.8693C60.5107 50.9419 60.3472 50.9792 60.1818 50.9792Z" fill="#8582FF"/>
</svg>
