<svg width="24" height="24" viewBox="0 0 24 24" fill="none" xmlns="http://www.w3.org/2000/svg">
<path d="M10.6901 22.3391C11.1307 23.1326 11.9681 23.625 12.8752 23.625C14.2534 23.625 15.375 22.5037 15.375 21.1252V19.7108C15.375 18.5265 15.0645 17.3572 14.4769 16.329C14.0085 15.5092 13.1314 15 12.1871 15C11.4829 15 10.8202 15.2741 10.3222 15.7725C9.71137 16.383 9.375 17.1953 9.375 18.0593C9.375 19.311 9.69638 20.5507 10.3043 21.6442L10.6901 22.3391ZM10.2158 17.3981C10.7145 17.5676 11.1562 17.8751 11.4757 18.3007L11.7 18.6L12.3 18.1504L12.0761 17.8515C11.6797 17.3231 11.1397 16.929 10.5262 16.7062C10.62 16.5626 10.7284 16.4269 10.8525 16.3027C11.2091 15.9461 11.6831 15.75 12.1871 15.75C12.8629 15.75 13.4906 16.1145 13.8259 16.701C14.3486 17.616 14.625 18.6566 14.625 19.7108V21.1252C14.625 21.3784 14.5684 21.6173 14.4713 21.8348C13.6718 21.5216 13.125 20.7457 13.125 19.875H12.375C12.375 20.9827 13.0245 21.984 14.0002 22.4539C13.695 22.7126 13.3057 22.875 12.8752 22.875C12.2404 22.875 11.6542 22.53 11.3456 21.9754L10.9597 21.2801C10.4137 20.2976 10.125 19.1839 10.125 18.0593C10.125 17.8328 10.1573 17.6111 10.2158 17.3981Z" fill="#4C42E8"/>
<path d="M4.54538 11.625C3.93225 11.625 3.35588 11.8639 2.92238 12.297C2.48888 12.7301 2.25 13.3069 2.25 13.9204V15.0259C2.25 16.0549 2.4555 17.0565 2.86088 18.0026C3.25087 18.9124 4.14225 19.5 5.13188 19.5C5.79188 19.5 6.4125 19.2427 6.879 18.7762C7.52138 18.1335 7.875 17.28 7.875 16.3718V15.4995C7.875 14.6078 7.61363 13.7438 7.11862 13.0024C6.54375 12.1399 5.58188 11.625 4.54538 11.625ZM7.125 15.4995V16.3718C7.125 17.0798 6.84938 17.745 6.34875 18.246C6.02363 18.5707 5.59163 18.75 5.13188 18.75C4.518 18.75 3.96 18.4241 3.65325 17.9055C4.07662 17.4866 4.64625 17.25 5.25 17.25V16.5C4.5495 16.5 3.88463 16.7411 3.35213 17.172C3.1215 16.4801 3 15.7616 3 15.0259V13.9204C3 13.5071 3.16087 13.1194 3.45262 12.8276C3.74437 12.5359 4.13288 12.375 4.54538 12.375C5.20613 12.375 5.8245 12.6536 6.264 13.1306C4.86825 13.1895 3.75 14.34 3.75 15.75H4.5C4.5 14.7161 5.34113 13.875 6.375 13.875H6.753C6.99637 14.3798 7.125 14.9325 7.125 15.4995Z" fill="#4C42E8"/>
<path d="M10.0189 13.7865H10.0193C10.3151 13.8454 10.6166 13.875 10.9155 13.875C12.1988 13.875 13.4051 13.3751 14.3126 12.468C14.9977 11.7825 15.375 10.8716 15.375 9.90262C15.375 8.99137 14.6336 8.25 13.7224 8.25C12.783 8.25 11.8425 8.472 11.0021 8.892L9.4665 9.65963C8.71612 10.0346 8.25 10.7891 8.25 11.628C8.25 12.6735 8.994 13.581 10.0189 13.7865ZM9.80212 10.3309L11.3377 9.56325C12.0742 9.19463 12.8989 9 13.7224 9C14.22 9 14.625 9.405 14.625 9.90262C14.625 10.6714 14.3257 11.394 13.782 11.9377C13.3879 12.3319 12.9263 12.633 12.4238 12.834L12.3622 12.7849C11.8939 12.4099 11.625 11.8504 11.625 11.25H10.875C10.875 11.9314 11.1289 12.5719 11.5774 13.0673C11.3602 13.1025 11.1398 13.125 10.9155 13.125C10.6658 13.125 10.4138 13.1003 10.1663 13.0511C9.4905 12.9154 9 12.3173 9 11.6284C9 11.0753 9.30712 10.578 9.80212 10.3309Z" fill="#4C42E8"/>
<path d="M8.40112 8.8275L9.71887 7.13325C10.2225 6.48525 10.5 5.67675 10.5 4.85625C10.5 3.62587 9.49912 2.625 8.26875 2.625C7.67287 2.625 7.11263 2.85713 6.69113 3.27863L5.19675 4.773C4.50562 5.46412 4.125 6.38288 4.125 7.36013C4.125 8.67788 5.19712 9.75 6.51487 9.75C7.25737 9.75 7.94475 9.414 8.40112 8.8275ZM6.51487 9C5.61037 9 4.875 8.26463 4.875 7.36013C4.875 7.32 4.87912 7.28025 4.881 7.24012C5.21962 7.16887 5.56463 7.125 5.9115 7.125C6.28575 7.125 6.62212 7.33313 6.78937 7.66763L7.46025 7.332C7.16512 6.74175 6.5715 6.375 5.9115 6.375C5.61413 6.375 5.31712 6.40088 5.0235 6.44662C5.16412 6.02062 5.40075 5.6295 5.727 5.30325L7.22137 3.80887C7.50113 3.52912 7.87312 3.375 8.26875 3.375C8.58262 3.375 8.8725 3.47438 9.1125 3.64163L8.5755 4.10213C8.13037 4.48388 7.875 5.03888 7.875 5.625H8.625C8.625 5.25787 8.78475 4.91025 9.06338 4.67175L9.59737 4.21425C9.69225 4.40887 9.75 4.62525 9.75 4.85625C9.75 5.511 9.52875 6.156 9.12675 6.67275L7.809 8.367C7.49587 8.76937 7.02412 9 6.51487 9Z" fill="#4C42E8"/>
<path d="M14.2965 7.125C15.0698 7.125 15.8295 6.91463 16.4929 6.51638C17.1911 6.0975 17.625 5.33138 17.625 4.51688V3.31462C17.625 2.80912 17.5297 2.31488 17.3422 1.84575C16.9845 0.9525 16.1321 0.375 15.1702 0.375C14.4739 0.375 13.8187 0.68175 13.3732 1.21687L12.837 1.86C12.297 2.50763 12 3.3285 12 4.1715C12 4.94737 12.2565 5.71687 12.7222 6.33787C13.0916 6.83062 13.6804 7.125 14.2965 7.125ZM13.413 2.34L13.9489 1.69688C14.2519 1.3335 14.697 1.125 15.1702 1.125C15.8239 1.125 16.4032 1.51725 16.6459 2.124C16.7977 2.50463 16.875 2.90512 16.875 3.31462V4.51688C16.875 5.06962 16.5806 5.58938 16.107 5.87362C16.0822 5.88863 16.0553 5.89875 16.0305 5.913C15.6015 5.13675 15.375 4.26638 15.375 3.375V3H14.625V3.375C14.625 4.3695 14.8714 5.34037 15.3386 6.21112C15.0022 6.31575 14.652 6.375 14.2965 6.375C13.9151 6.375 13.551 6.19275 13.3219 5.88788C12.9533 5.39587 12.75 4.7865 12.75 4.1715C12.75 3.50362 12.9855 2.853 13.413 2.34Z" fill="#4C42E8"/>
<path d="M15.6727 15.7365L15.7432 15.7954C16.8694 16.7332 18.2962 17.25 19.7614 17.25C20.1555 17.25 20.5369 17.1345 20.8643 16.9159C21.4189 16.5465 21.75 15.9281 21.75 15.2614C21.75 14.2755 21.2246 13.3474 20.379 12.84C19.8716 12.5359 19.2908 12.375 18.6998 12.375H17.052C16.6166 12.375 16.1951 12.5025 15.8325 12.744C15.3113 13.0916 15 13.6732 15 14.2999C15 14.856 15.2452 15.3799 15.6727 15.7365ZM16.2488 13.368C16.4873 13.2094 16.7651 13.125 17.052 13.125H18.6998C19.155 13.125 19.6024 13.2488 19.9931 13.4831C20.6141 13.8559 21 14.5376 21 15.2614C21 15.6761 20.7937 16.0616 20.4484 16.2919C20.2444 16.4284 20.007 16.5 19.7614 16.5C19.623 16.5 19.485 16.4921 19.3478 16.482L19.3369 16.4606C19.1981 16.1831 19.125 15.8726 19.125 15.5625C19.125 15.2524 19.1981 14.9419 19.3369 14.6644L19.4603 14.4176L18.7894 14.082L18.666 14.3287C18.4759 14.7101 18.375 15.1365 18.375 15.5625C18.375 15.828 18.4185 16.0927 18.4943 16.3474C17.6655 16.1516 16.8851 15.7702 16.2236 15.219L16.1531 15.1605C15.897 14.9464 15.75 14.6329 15.75 14.2999C15.75 13.9245 15.9364 13.5761 16.2488 13.368Z" fill="#4C42E8"/>
</svg>
