<svg width="24" height="24" viewBox="0 0 24 24" fill="none" xmlns="http://www.w3.org/2000/svg">
<path d="M6.90852 14.7959C6.79934 14.7376 6.67763 14.7068 6.55389 14.7061C6.43371 14.7084 6.31567 14.7382 6.20881 14.7933C6.10195 14.8483 6.0091 14.9271 5.9374 15.0235C5.72813 15.2763 4.93944 15.7902 4.46746 16.0977C4.4083 16.1363 4.34239 16.1754 4.27264 16.2168C3.7272 16.5406 2.98026 16.9841 2.46795 18.6988C1.96733 20.3749 2.77607 21.3201 3.33294 21.6144C3.57303 21.7377 3.83963 21.8006 4.10954 21.7974H4.10965C4.6076 21.7974 5.36422 21.5966 6.14108 20.6401C7.26936 19.2508 7.21498 18.3838 7.1752 17.7507C7.17016 17.6698 7.16532 17.5933 7.16387 17.5219C7.15209 16.9596 7.13245 16.0185 7.22334 15.7031C7.39072 15.1229 7.05898 14.8754 6.90852 14.7959ZM6.7279 15.5603C6.62393 15.9211 6.63092 16.6992 6.64835 17.5336C6.65006 17.615 6.65519 17.6966 6.66064 17.783C6.69695 18.3618 6.7422 19.0821 5.74088 20.315C5.09186 21.1141 4.49562 21.2818 4.10963 21.2818H4.10952C3.92363 21.2844 3.73985 21.2422 3.57381 21.1585C3.15602 20.9377 2.55696 20.2022 2.962 18.8463C3.41661 17.3246 4.03721 16.9562 4.53587 16.6601C4.61035 16.6159 4.68074 16.5741 4.74962 16.5292C5.44823 16.074 6.09507 15.6415 6.33451 15.3523C6.35911 15.3156 6.39155 15.2849 6.42949 15.2623C6.46743 15.2397 6.50992 15.2258 6.55389 15.2216C6.59367 15.2224 6.63268 15.2327 6.66764 15.2517C6.7129 15.2757 6.7972 15.3202 6.7279 15.5603Z" fill="#4C42E8"/>
<path d="M5.03467 16.9684C4.95747 17.0188 4.87913 17.0652 4.80304 17.1104C4.36083 17.3729 3.85966 17.6706 3.46362 18.9963L3.95769 19.1438C4.29607 18.0111 4.67019 17.7889 5.06637 17.5537C5.14674 17.506 5.22992 17.4567 5.31624 17.4004C5.54186 17.2533 5.7811 17.0965 6.00175 16.946L5.71118 16.52C5.4945 16.6679 5.25799 16.8229 5.03467 16.9684Z" fill="#4C42E8"/>
<path d="M17.8479 12.7021C17.9103 12.0754 17.5693 10.879 15.8955 10.3702C15.4023 10.2095 14.888 10.1225 14.3693 10.1123C13.8317 10.1137 13.3028 10.2479 12.8296 10.5031C12.7566 10.5384 12.6876 10.5716 12.6225 10.5998C12.1061 10.823 11.2417 11.1966 10.9153 11.2314C10.4247 11.2837 10.2184 11.6189 10.189 11.915C10.1721 12.0843 10.1952 12.4976 10.7713 12.6787C11.0847 12.7772 11.8585 13.3139 12.3208 13.6345C12.3789 13.6748 12.44 13.721 12.5046 13.77C12.9328 14.0941 13.5192 14.538 14.8262 14.538C15.0327 14.538 15.2541 14.5267 15.4842 14.5044C17.1122 14.3464 17.775 13.4348 17.8479 12.7021ZM15.4344 13.9912C15.2208 14.0119 15.0162 14.0224 14.8261 14.0224C13.6923 14.0224 13.2063 13.6545 12.8158 13.3589C12.7468 13.3066 12.6815 13.2572 12.6146 13.2108C11.9293 12.7355 11.2844 12.2995 10.9259 12.1868C10.6875 12.1119 10.697 12.0171 10.7021 11.9661C10.7151 11.8345 10.8027 11.7619 10.9699 11.7441C11.3434 11.7043 12.0615 11.404 12.8273 11.073C12.9021 11.0407 12.9757 11.0051 13.0538 10.9675C13.3835 10.8083 13.7573 10.6279 14.3693 10.6279C14.8371 10.6393 15.3007 10.7187 15.7456 10.8636C17.0996 11.2751 17.3816 12.1807 17.3348 12.651C17.3154 12.8459 17.1326 13.8264 15.4344 13.9912Z" fill="#4C42E8"/>
<path d="M15.5984 11.3129C14.2744 10.9105 13.7495 11.1639 13.2864 11.3874L13.5105 11.8518C13.9253 11.6516 14.3173 11.4625 15.4484 11.8062C15.8066 11.9151 16.0685 12.0718 16.2057 12.2592L16.6218 11.9547C16.4153 11.6725 16.071 11.4566 15.5984 11.3129Z" fill="#4C42E8"/>
<path d="M13.9092 16.7399C13.8801 16.6755 13.8514 16.6045 13.8211 16.5293C13.5837 15.9411 13.2585 15.1355 11.6412 14.3693C11.2138 14.1554 10.7442 14.0391 10.2664 14.0288C9.47075 14.0288 8.89848 14.4181 8.62818 14.7824C8.18943 15.3737 8.06694 16.4941 9.16566 17.7058C10.3678 19.0314 11.233 19.1091 11.8648 19.1658C11.9457 19.1731 12.0219 19.1799 12.092 19.1892C12.6499 19.2628 13.5836 19.386 13.8816 19.5237C14.009 19.5863 14.1485 19.6205 14.2904 19.6241H14.2905C14.3953 19.6252 14.4988 19.6009 14.5921 19.5532C14.6854 19.5055 14.7656 19.4358 14.826 19.3501C15.0035 19.111 15.0762 18.7242 14.7483 18.3556C14.53 18.1104 14.1416 17.2527 13.9092 16.7399ZM14.4119 19.0429C14.3994 19.0636 14.3815 19.0807 14.3601 19.0922C14.3388 19.1038 14.3147 19.1094 14.2905 19.1085H14.2904C14.2233 19.1043 14.1577 19.0864 14.0979 19.0557C13.7569 18.8981 12.9864 18.7871 12.1594 18.678C12.0787 18.6674 11.9972 18.6601 11.9109 18.6523C11.3333 18.6005 10.6145 18.5359 9.5476 17.3594C8.40145 16.0955 8.92553 15.2469 9.04229 15.0896C9.10979 14.9986 9.48631 14.5445 10.2664 14.5445C10.6678 14.555 11.0619 14.6543 11.4204 14.8353C12.8557 15.5153 13.1259 16.1846 13.3429 16.7223C13.3754 16.8026 13.406 16.8785 13.4397 16.9531C13.7839 17.7127 14.1134 18.4178 14.363 18.6984C14.4747 18.824 14.4907 18.9366 14.4119 19.0428V19.0429Z" fill="#4C42E8"/>
<path d="M11.2271 15.2664C10.7808 15.055 10.3807 14.9833 10.0381 15.0533L10.1413 15.5585C10.3687 15.5119 10.668 15.5721 11.0063 15.7324C12.0748 16.2387 12.2378 16.6421 12.4102 17.0693L12.8883 16.8763C12.6958 16.3994 12.4775 15.8589 11.2271 15.2664Z" fill="#4C42E8"/>
<path d="M8.61114 13.0414C8.75878 12.7829 8.78477 12.3902 8.41507 12.0634C8.16909 11.8459 7.68066 11.0408 7.3888 10.5596C7.35215 10.4991 7.31519 10.432 7.27606 10.361C6.97 9.80542 6.55081 9.04453 4.85356 8.47726C4.5021 8.35495 4.13323 8.29009 3.76113 8.28516C2.80244 8.28516 2.17709 8.78238 1.91157 9.24772C1.54671 9.88724 1.55907 11.0143 2.79489 12.0858C3.94497 13.0831 4.75432 13.2176 5.39431 13.2176C5.4847 13.2176 5.56839 13.2151 5.64931 13.2126C5.7184 13.2105 5.78451 13.2085 5.84815 13.2085L5.87751 13.2086C6.44017 13.215 7.38183 13.2256 7.69428 13.3267C7.79913 13.3623 7.90889 13.3812 8.01959 13.3829C8.14005 13.3858 8.25899 13.3555 8.36335 13.2953C8.4677 13.235 8.55344 13.1472 8.61114 13.0414ZM8.16329 12.7859C8.15069 12.8126 8.13011 12.8348 8.10438 12.8494C8.07866 12.864 8.04905 12.8702 8.01963 12.8673C7.96284 12.8655 7.90666 12.855 7.85305 12.8361C7.49564 12.7205 6.71742 12.7025 5.88337 12.693L5.84817 12.6928C5.77949 12.6928 5.7082 12.695 5.63366 12.6972C5.55657 12.6996 5.47691 12.702 5.39439 12.702H5.39429C4.84946 12.702 4.15467 12.5825 3.13264 11.6963C1.84353 10.5785 2.26237 9.67335 2.3594 9.50328C2.54429 9.17923 3.02236 8.80079 3.7611 8.80079C4.07763 8.80579 4.3913 8.86168 4.69008 8.96631C6.19637 9.46974 6.54461 10.1019 6.82444 10.6098C6.86623 10.6857 6.90571 10.7574 6.94801 10.8271C7.3806 11.5402 7.79214 12.201 8.07357 12.4497C8.19954 12.5611 8.22891 12.671 8.16329 12.7859Z" fill="#4C42E8"/>
<path d="M4.54983 9.41764C4.08123 9.26108 3.67552 9.23775 3.34375 9.34827L3.5067 9.83745C3.66033 9.78624 3.93773 9.75674 4.38638 9.90664C5.50772 10.2815 5.71769 10.6626 5.93995 11.0661L6.39162 10.8173C6.14339 10.3669 5.8622 9.85633 4.54983 9.41764Z" fill="#4C42E8"/>
<path d="M21.8224 13.0356C21.4791 12.7723 21.0566 12.6331 20.6239 12.6409C20.0102 12.6409 19.3972 12.8928 18.8018 13.3895C17.4275 14.5361 17.3143 15.3975 17.2317 16.0264C17.2211 16.1068 17.2111 16.1826 17.1988 16.2533C17.1023 16.8073 16.9407 17.7345 16.7909 18.0265C16.5657 18.4653 16.7328 18.8216 16.9644 19.0087C17.0816 19.1065 17.2291 19.1607 17.3818 19.162C17.5823 19.1536 17.7735 19.0753 17.9222 18.9406C18.1764 18.7326 19.0495 18.3797 19.5712 18.1689C19.6367 18.1424 19.7089 18.1167 19.7852 18.0895C20.3828 17.8765 21.2011 17.5849 22.0334 16.0005C22.794 14.5525 22.3951 13.4984 21.8224 13.0356ZM21.5769 15.7607C20.8384 17.1667 20.1585 17.409 19.6122 17.6037C19.5306 17.6328 19.4535 17.6603 19.378 17.6908C18.6047 18.0033 17.8865 18.3036 17.5957 18.5415C17.5372 18.5981 17.4624 18.6348 17.3818 18.6464C17.347 18.6453 17.3138 18.6315 17.2885 18.6077C17.1856 18.5245 17.1729 18.4114 17.2496 18.2619C17.421 17.9279 17.5637 17.163 17.707 16.3405C17.7209 16.2604 17.7316 16.1794 17.7429 16.0936C17.8184 15.5186 17.9125 14.803 19.1322 13.7854C19.6323 13.3681 20.1343 13.1566 20.6239 13.1566C20.9385 13.1496 21.2464 13.2482 21.4983 13.4367C21.6506 13.5598 22.3703 14.2503 21.5769 15.7607Z" fill="#4C42E8"/>
<path d="M19.427 14.1547C18.3646 15.041 18.2886 15.6189 18.2214 16.129L18.7327 16.196C18.7928 15.7393 18.8496 15.3079 19.7574 14.5506C20.1205 14.2476 20.3896 14.1741 20.5513 14.1658L20.525 13.6509C20.1756 13.6687 19.8062 13.8382 19.427 14.1547Z" fill="#4C42E8"/>
<path d="M16.1963 8.74545C16.5594 9.1751 17.167 9.8942 17.2949 10.1965C17.4325 10.522 17.692 10.7087 18.007 10.7087C18.0582 10.7087 18.1093 10.7037 18.1595 10.6938C18.3264 10.6609 18.7154 10.5192 18.7219 9.9154C18.7255 9.58709 19.0151 8.69118 19.1882 8.15551C19.2099 8.08831 19.2365 8.01646 19.2646 7.9404C19.4847 7.34549 19.7861 6.53074 19.105 4.87571C18.4482 3.27971 17.4053 3.10743 16.9875 3.10743C16.8896 3.10715 16.7918 3.11638 16.6956 3.13497C16.0777 3.25675 15.0312 3.92953 15.0288 5.67876C15.0264 7.46839 15.6143 8.10793 16.0436 8.57492C16.0985 8.63468 16.1503 8.69107 16.1963 8.74545ZM16.7953 3.64091C16.8587 3.62878 16.9231 3.62282 16.9876 3.6231C17.3016 3.6231 18.09 3.76427 18.6282 5.07199C19.2327 6.54074 18.9822 7.21763 18.7811 7.76153C18.751 7.84277 18.7226 7.91948 18.6975 7.99731C18.441 8.79083 18.2105 9.53422 18.2063 9.90981C18.2037 10.1596 18.1101 10.178 18.0599 10.1879C18.0425 10.1913 18.0248 10.1931 18.0071 10.1931C17.9411 10.1931 17.8446 10.1727 17.7699 9.99577C17.6237 9.64988 17.1284 9.04957 16.5898 8.41219C16.5373 8.35005 16.4819 8.28981 16.4232 8.22603C16.0308 7.79907 15.5423 7.26774 15.5445 5.67953C15.5464 4.26447 16.3317 3.73228 16.7953 3.64091Z" fill="#4C42E8"/>
<path d="M17.1372 7.53279C16.8254 7.19363 16.5309 6.87327 16.5325 5.69096C16.533 5.31661 16.6071 5.02065 16.7469 4.83503L16.335 4.5249C16.1246 4.80428 16.0176 5.19634 16.0169 5.69021C16.015 7.07396 16.4095 7.50309 16.7576 7.88171L17.1372 7.53279Z" fill="#4C42E8"/>
<path d="M9.38038 10.3086C9.8525 10.3086 10.3631 10.1656 10.8979 9.88372C12.4809 9.04925 12.7715 8.23057 12.9836 7.63278C13.0108 7.55631 13.0364 7.48408 13.0628 7.41853C13.2729 6.89651 13.6244 6.02281 13.832 5.76838C14.2138 5.30048 14.0059 4.94259 13.8988 4.81038C13.8308 4.72348 13.7438 4.65319 13.6446 4.60483C13.5454 4.55647 13.4365 4.53131 13.3261 4.53125C13.1829 4.53362 13.0423 4.57036 12.9162 4.63838C12.6244 4.78869 11.6971 4.95161 11.1426 5.049C11.073 5.06124 10.9971 5.07133 10.9167 5.08203C10.2879 5.16565 9.42671 5.28017 8.28231 6.65597C7.1636 8.00081 7.53627 9.18775 7.93281 9.67708C8.25326 10.0726 8.79441 10.3086 9.38038 10.3086ZM8.67865 6.98577C9.69434 5.76478 10.4098 5.66964 10.9847 5.59318C11.0705 5.58175 11.1516 5.57097 11.2322 5.55682C12.0535 5.41253 12.8185 5.26877 13.1523 5.09681C13.2055 5.06677 13.265 5.04967 13.3261 5.04691C13.3596 5.04759 13.3925 5.05587 13.4223 5.07114C13.4521 5.08641 13.478 5.10826 13.4981 5.13504C13.5304 5.17482 13.5904 5.24887 13.4325 5.4424C13.195 5.73347 12.8958 6.45217 12.5844 7.22598C12.554 7.30149 12.5266 7.37865 12.4976 7.46036C12.3037 8.00692 12.0623 8.68704 10.6575 9.42761C10.1976 9.67006 9.76785 9.79298 9.38038 9.79298C8.74017 9.79298 8.41711 9.45575 8.33337 9.35243C8.03583 8.98528 7.77368 8.0736 8.67865 6.98577Z" fill="#4C42E8"/>
<path d="M9.44481 7.60994C10.201 6.70101 10.6323 6.64362 11.089 6.58292L11.021 6.07178C10.5112 6.13958 9.93335 6.21642 9.04843 7.28021C8.73261 7.6599 8.56366 8.0295 8.54614 8.37883L9.06117 8.40461C9.07275 8.17255 9.20543 7.89774 9.44481 7.60994Z" fill="#4C42E8"/>
</svg>
