<svg width="20" height="24" viewBox="0 0 20 24" fill="none" xmlns="http://www.w3.org/2000/svg">
<path d="M19.2371 13.5012C18.9155 12.7509 18.2403 12.2547 17.4309 12.1738C17.4185 12.1725 17.406 12.1719 17.3935 12.1719C16.4554 12.1719 15.6179 12.6686 15.2077 13.468C14.8772 14.1122 14.3245 14.5358 13.5627 14.7297C13.2682 14.087 12.9925 13.3992 12.7416 12.6808C12.5629 12.1689 12.56 11.6004 12.7335 11.08L12.7834 10.9303C12.9589 10.4038 13.326 9.936 13.8171 9.61308C14.7496 8.99986 15.7436 8.13544 16.5444 7.24153C17.2045 6.50456 18.0536 5.38903 18.3495 4.26014C18.554 3.47991 18.4297 2.74327 17.9995 2.18592C17.5405 1.59117 16.7969 1.26361 15.9055 1.26361C14.5896 1.26361 13.3892 2.16478 12.7729 3.61547C12.4292 4.42448 11.9465 5.18719 11.3336 5.89111C11.2861 5.19773 11.2647 4.5007 11.2699 3.80981C11.2775 2.7915 10.8872 1.83319 10.1709 1.1115C9.45957 0.394688 8.5126 0 7.50446 0C6.47781 0 5.518 0.404531 4.80179 1.13911C4.08934 1.86984 3.71115 2.83331 3.73698 3.852C3.77875 5.49947 4.10575 9.57398 6.14021 14.0596C5.79737 13.7342 5.48064 13.3618 5.1924 12.9443C4.43696 11.8504 3.02378 11.4778 1.90529 12.0774C1.26789 12.4191 0.82337 12.9917 0.653636 13.6897C0.484183 14.3866 0.620824 15.127 1.02859 15.721C2.22132 17.4585 3.77851 18.6774 5.65698 19.3439C6.92289 19.7931 8.35707 19.987 9.81643 19.9076C10.9008 21.1944 12.1251 22.3777 13.4582 23.4268C13.9407 23.8066 14.5181 24.0001 15.0868 24C15.5381 24 15.984 23.8781 16.3722 23.6307C16.9862 23.2394 17.3948 22.6044 17.4932 21.8885C17.5916 21.1717 17.3709 20.451 16.8874 19.9111C16.5369 19.5197 16.0202 18.8969 15.4385 18.0465C16.8874 17.6193 18.0706 16.8253 18.9609 15.681C19.4497 15.0529 19.553 14.238 19.2371 13.5012ZM15.9055 2.01497C16.5588 2.01497 17.0912 2.2387 17.4047 2.64492C17.6934 3.01908 17.7688 3.51173 17.6226 4.06955C17.5789 4.23637 17.5186 4.40756 17.4448 4.58142C16.4294 3.32559 15.3317 2.69841 14.6667 2.40802C15.0493 2.15531 15.474 2.01497 15.9055 2.01497ZM13.182 4.50923C13.371 4.56942 13.88 4.7558 14.4899 5.17856C14.5552 5.22384 14.6297 5.24555 14.7036 5.24555C14.8226 5.24555 14.9397 5.18911 15.0127 5.08383C15.1309 4.9133 15.0885 4.6792 14.9179 4.56098C14.3087 4.13873 13.7843 3.92166 13.5023 3.82383C13.6476 3.50302 13.8298 3.21567 14.0392 2.96948C14.5093 3.1343 15.8834 3.72656 17.0626 5.31595C16.9053 5.57428 16.7249 5.83444 16.526 6.09248C16.4162 5.95177 16.3027 5.81489 16.1857 5.68439C16.0472 5.52984 15.8096 5.51686 15.6551 5.65538C15.5006 5.79389 15.4876 6.03141 15.6261 6.18595C15.7678 6.34406 15.9044 6.51225 16.034 6.68634C15.8234 6.92419 15.6013 7.15734 15.3716 7.38206C14.4477 6.05527 13.3808 5.41294 12.8195 5.14594C12.9497 4.93748 13.0704 4.72505 13.182 4.50923ZM5.33992 1.66369C5.91343 1.07541 6.68218 0.751453 7.50451 0.751453C8.31085 0.751453 9.06836 1.0673 9.63756 1.64077C9.88445 1.88948 10.0827 2.1735 10.2283 2.48114C7.52785 1.99345 5.51476 2.5477 4.61537 2.8875C4.75267 2.43314 4.99764 2.01473 5.33992 1.66369ZM1.95245 15.7155C1.84839 15.5793 1.74685 15.4395 1.64809 15.2957C1.36103 14.8775 1.2647 14.3569 1.38376 13.8672C1.50235 13.3796 1.81365 12.9791 2.26028 12.7396C2.89407 12.3999 3.69634 12.5295 4.2549 13.0152C4.23432 13.0722 3.65982 14.6115 1.95245 15.7155ZM16.2336 20.3063C16.2649 20.342 16.2963 20.3775 16.3276 20.4125C16.6637 20.7877 16.8171 21.2884 16.7487 21.7862C16.6804 22.2832 16.396 22.7245 15.9684 22.997C15.3599 23.3848 14.5379 23.3202 13.923 22.8363C13.7272 22.6823 13.5342 22.5249 13.3434 22.365C14.9274 21.7361 15.8387 20.7974 16.2336 20.3063ZM14.7508 17.4491C14.6308 17.4761 14.5318 17.5601 14.4854 17.6739C14.4389 17.7876 14.4512 17.9169 14.5181 18.0201C14.9082 18.621 15.3225 19.1959 15.7397 19.7166C15.4663 20.0857 14.5304 21.1832 12.695 21.8022C11.8251 21.0192 11.0138 20.1752 10.2721 19.2808C10.2004 19.1944 10.0942 19.145 9.98289 19.145C9.97407 19.145 9.96517 19.1453 9.95626 19.1459C8.96368 19.2162 7.45581 19.1847 5.90832 18.6356C5.07503 18.3399 4.31012 17.9247 3.61764 17.394C4.25701 16.966 4.81618 16.4427 5.28306 15.8337C5.40929 15.669 5.37807 15.4332 5.2134 15.3069C5.04873 15.1807 4.81295 15.2119 4.68662 15.3765C4.22603 15.9774 3.66353 16.4841 3.01539 16.8869C2.81476 16.7015 2.62126 16.5049 2.43493 16.2975C3.79679 15.3943 4.49382 14.2626 4.78843 13.6667C5.40943 14.4877 6.14143 15.1376 6.96915 15.6001C7.11446 15.6814 7.29582 15.6572 7.41484 15.5411C7.5339 15.4249 7.56236 15.2441 7.48478 15.0969C7.26582 14.6817 7.06314 14.2684 6.87475 13.8584C7.7147 13.7681 8.58845 13.5951 9.4794 13.3403C9.6789 13.2833 9.7944 13.0753 9.73736 12.8758C9.68036 12.6763 9.47228 12.5606 9.27287 12.6179C8.33771 12.8852 7.42501 13.0578 6.55553 13.1344C5.49123 10.6154 4.9697 8.26528 4.71648 6.47166C5.09162 6.22144 6.23078 5.544 7.95329 5.24953C8.15786 5.21456 8.29529 5.02041 8.26032 4.81589C8.22535 4.61133 8.03115 4.4738 7.82668 4.50886C6.30053 4.76977 5.20267 5.30203 4.61359 5.64867C4.53156 4.89206 4.4994 4.27322 4.48825 3.83297C4.48759 3.80752 4.4882 3.78225 4.4882 3.75694C4.80756 3.60356 7.12496 2.57686 10.4797 3.29709C10.5061 3.46317 10.5197 3.63244 10.5184 3.80414C10.517 3.99886 10.5182 4.19414 10.5208 4.38961C10.1745 4.36336 9.82787 4.35169 9.48761 4.35684C9.28009 4.35994 9.11443 4.53061 9.11753 4.73812C9.12062 4.94564 9.29261 5.11055 9.49881 5.1082C9.8417 5.10319 10.1918 5.11617 10.5412 5.14514C10.5634 5.69681 10.6012 6.24844 10.6554 6.79533C10.6697 6.93891 10.7649 7.06162 10.9004 7.11112C11.036 7.16062 11.1879 7.12809 11.2913 7.02755C11.6991 6.63094 12.0653 6.21319 12.3891 5.77678C12.817 5.96653 13.9051 6.55167 14.8148 7.89886C14.3448 8.31272 13.8623 8.68402 13.4042 8.98523C12.7728 9.4005 12.2992 10.0068 12.0706 10.6927L12.0207 10.8424C11.9338 11.1032 11.8813 11.3735 11.8625 11.6454C11.6745 11.7361 11.3296 11.8952 10.8654 12.0779C10.6723 12.1539 10.5774 12.3721 10.6533 12.5651C10.7116 12.7131 10.8532 12.8033 11.0031 12.8033C11.0489 12.8033 11.0954 12.7949 11.1406 12.7771C11.4498 12.6554 11.7079 12.5439 11.9075 12.4536C11.937 12.6146 11.9782 12.7736 12.0323 12.9285C12.3272 13.7733 12.656 14.578 13.0093 15.3204C13.0817 15.4725 13.2466 15.5579 13.4124 15.5292C14.1412 15.4037 15.1053 15.0469 15.7235 14.0769C16.4147 15.0669 17.2407 15.6222 17.7531 15.8958C16.9469 16.659 15.9413 17.1809 14.7508 17.4491ZM18.3679 15.2196C18.3409 15.2543 18.3127 15.2874 18.2851 15.3214C17.8725 15.1249 16.9022 14.5668 16.1805 13.4052C16.4887 13.108 16.9182 12.9284 17.3747 12.9235C17.8996 12.9825 18.3367 13.308 18.5464 13.7973C18.7529 14.2789 18.6862 14.8107 18.3679 15.2196Z" fill="#4C42E8"/>
</svg>
