<svg width="24" height="24" viewBox="0 0 24 24" fill="none" xmlns="http://www.w3.org/2000/svg">
<path d="M8.96117 21.6679C6.76414 23.8649 3.49976 24.1616 1.66883 22.3312C-0.161642 20.5002 0.135077 17.2359 2.33211 15.0388C4.52867 12.8423 7.79351 12.5455 9.62398 14.376C11.4545 16.2065 11.1577 19.4713 8.96117 21.6679Z" stroke="#4C42E8" stroke-miterlimit="10" stroke-linecap="round" stroke-linejoin="round"/>
<path d="M6.97221 19.6795C5.69065 20.9606 3.32628 20.6737 3.32628 20.6737C3.32628 20.6737 3.0394 18.3093 4.3205 17.0278C5.60206 15.7462 7.96643 16.0336 7.96643 16.0336C7.96643 16.0336 8.25378 18.3979 6.97221 19.6795Z" stroke="#4C42E8" stroke-miterlimit="10" stroke-linecap="round" stroke-linejoin="round"/>
<path d="M14.596 17.5669C14.0803 16.815 13.8216 15.1055 14.483 14.4441C15.1186 13.8089 16.756 13.9894 17.5102 14.5027" stroke="#4C42E8" stroke-miterlimit="10" stroke-linecap="round" stroke-linejoin="round"/>
<path d="M7.90035 5.21558C7.93832 5.20714 7.97675 5.19964 8.01472 5.19313H8.01566C9.72004 4.89547 11.1657 6.44183 10.6889 8.16734C10.4822 8.91547 9.87847 9.52906 9.13222 9.74375C4.103 11.1917 -0.231058 5.03235 0.559723 2.15C0.770661 1.38031 1.40394 0.755892 2.1755 0.552501C3.74441 0.139017 5.15629 1.31089 5.15629 2.8123V2.81797C5.10988 4.34281 6.43175 5.47438 7.90035 5.21558ZM7.90035 5.21558C7.93832 5.20949 7.97629 5.20203 8.01472 5.19313" stroke="#4C42E8" stroke-miterlimit="10" stroke-linecap="round" stroke-linejoin="round"/>
<path d="M23.0343 7.44895C22.8773 7.70114 22.6814 7.9477 22.4428 8.18625C19.7282 10.9008 14.4881 9.51192 14.4881 9.51192C14.4881 9.51192 13.0992 4.27176 15.8137 1.55723C16.0523 1.31864 16.2989 1.1227 16.551 0.965623C18.2366 -0.0805799 20.188 0.62817 21.7799 2.22004C23.3718 3.81192 24.0805 5.76333 23.0343 7.44895Z" stroke="#4C42E8" stroke-miterlimit="10" stroke-linecap="round" stroke-linejoin="round"/>
<path d="M23.1057 0.894102L21.78 2.21973" stroke="#4C42E8" stroke-miterlimit="10" stroke-linecap="round" stroke-linejoin="round"/>
<path d="M16.551 0.965402C16.6715 1.04321 18.0862 1.96712 18.4654 2.88259C18.6407 3.30681 18.6609 3.8754 18.6285 4.37743C18.5924 4.94368 19.056 5.40732 19.6223 5.37118C20.1243 5.33889 20.6929 5.359 21.1171 5.53436C22.0326 5.91357 22.9565 7.32821 23.0344 7.44873" stroke="#4C42E8" stroke-miterlimit="10" stroke-linecap="round" stroke-linejoin="round"/>
<path d="M22.8056 17.0314C22.6944 16.8305 22.5679 16.6345 22.4242 16.4451C21.1787 14.803 17.8027 12.5587 17.5304 14.5054C17.4236 15.2662 17.7915 16.6677 18.947 18.9965C16.7429 17.9038 15.3732 17.5265 14.5979 17.593C12.5387 17.7684 14.6645 21.0698 16.4631 22.408C19.1232 24.388 22.9773 23.1594 23.0537 23.1027C23.0823 23.0642 23.4363 22.0272 23.515 20.6702" stroke="#4C42E8" stroke-miterlimit="10" stroke-linecap="round" stroke-linejoin="round"/>
<path d="M23.9062 18.7969C23.9062 19.0557 23.6963 19.2656 23.4375 19.2656C23.1787 19.2656 22.9688 19.0557 22.9688 18.7969C22.9688 18.538 23.1787 18.3281 23.4375 18.3281C23.6963 18.3281 23.9062 18.538 23.9062 18.7969Z" fill="#4C42E8"/>
</svg>
