<svg width="24" height="24" viewBox="0 0 24 24" fill="none" xmlns="http://www.w3.org/2000/svg">
<path d="M1.18685 14.9501C3.92675 24.538 15.7809 21.1551 13.0411 11.5672C12.2913 8.94307 6.8142 -0.415014 3.48007 0.536362C0.145949 1.48774 0.437089 12.3259 1.18685 14.9501Z" stroke="#4C42E8" stroke-miterlimit="10" stroke-linecap="round" stroke-linejoin="round"/>
<path d="M16.2556 23.402C14.5686 23.7129 12.8231 23.4631 11.2784 22.6513C10.2854 22.1291 9.43851 21.4089 8.77246 20.5466M13.3616 13.0833L15.672 14.2964L21.8763 17.5557C22.9332 18.1124 22.9691 18.0978 22.0332 19.4438C21.4722 20.2503 20.8168 20.9824 20.067 21.5989" stroke="#4C42E8" stroke-miterlimit="10" stroke-linecap="round" stroke-linejoin="round"/>
<path d="M21.1277 17.1636C22.3972 14.748 24.8991 4.19809 21.8296 2.58639C19.4712 1.34673 14.6256 5.81115 11.9336 9.0399" stroke="#4C42E8" stroke-miterlimit="10" stroke-linecap="round" stroke-linejoin="round"/>
<path d="M10.135 12.3965C9.38522 9.77231 5.17899 0.0515149 3.48005 0.536484C1.78111 1.02145 3.34313 11.4969 4.09294 14.1211" stroke="#4C42E8" stroke-miterlimit="10" stroke-linecap="round" stroke-linejoin="round"/>
<path d="M3.47998 0.53615L7.36976 14.1514" stroke="#4C42E8" stroke-miterlimit="10" stroke-linecap="round" stroke-linejoin="round"/>
<path d="M21.8297 2.58641C20.3727 1.81976 14.9713 9.28573 13.2139 12.2607M18.4517 15.7578C18.9621 14.7866 19.8608 12.6008 20.6518 10.2809M21.8297 2.58641L17.4772 10.8629" stroke="#4C42E8" stroke-miterlimit="10" stroke-linecap="round" stroke-linejoin="round"/>
<path d="M7.94749 16.1777L7.94556 16.1758" stroke="#4C42E8" stroke-miterlimit="10" stroke-linecap="round" stroke-linejoin="round"/>
<path d="M18.2701 22.7465L18.2668 22.748" stroke="#4C42E8" stroke-miterlimit="10" stroke-linecap="round" stroke-linejoin="round"/>
</svg>
