<svg width="24" height="24" viewBox="0 0 24 24" fill="none" xmlns="http://www.w3.org/2000/svg">
<path d="M24 11.3563C24 8.25361 22.7918 5.33662 20.5979 3.14274C20.4608 3.00569 20.2385 3.00569 20.1014 3.14274L7.84872 15.3954C6.93763 14.9143 6.10498 15.0539 5.14985 15.2211C4.71637 13.6571 3.62948 13.0513 3.57218 13.0205C3.40148 12.9285 3.1886 12.9924 3.09668 13.1632C3.00475 13.3339 3.06859 13.5467 3.23934 13.6387C3.2495 13.6441 3.98628 14.0554 4.38091 15.1268C3.24608 14.8452 2.03683 15.2343 1.22755 16.0636C0.115844 12.0095 1.45264 5.92722 6.62866 5.93443C8.93126 5.93443 10.9641 7.4498 11.7234 9.60154C11.7878 9.78437 11.9884 9.88042 12.1711 9.81592C12.354 9.75146 12.4499 9.55099 12.3855 9.36817C11.941 8.10598 11.1304 7.01599 10.0165 6.26648C10.1163 5.74566 10.3293 5.24848 10.6392 4.8173L11.102 4.17329C11.5465 3.55469 10.8597 2.69541 10.1524 3.01782L9.0501 3.52099C9.02595 2.57863 9.26546 1.85453 9.83678 1.10474C10.0105 0.862982 10.0002 0.546007 9.81123 0.316046C9.62222 0.0859917 9.3132 0.0146584 9.04238 0.138087C8.06071 0.586167 7.11385 0.983977 6.58751 2.00614C6.06515 0.9917 5.10927 0.583827 4.13265 0.138087C3.86187 0.0144244 3.55281 0.0860385 3.36385 0.315999C3.17484 0.546007 3.16455 0.862935 3.33825 1.10474C3.90671 1.85524 4.15128 2.57685 4.12497 3.52099L3.02253 3.01782C2.32966 2.70164 1.61946 3.54201 2.07302 4.17329L2.53584 4.8173C2.84996 5.25438 3.06433 5.75891 3.16235 6.2874C-0.0556561 8.47631 -0.403429 13.348 0.700131 16.7487C-0.184093 18.2103 -0.224347 20.4217 0.542907 21.9349C0.630623 22.1079 0.841861 22.177 1.01476 22.0893C1.18767 22.0016 1.2568 21.7904 1.16913 21.6175C0.321044 19.9445 0.57483 17.106 2.32699 16.0863C3.09391 15.6399 3.7662 15.7422 4.57586 15.9042C4.60656 16.1134 4.62458 16.3386 4.62458 16.5824C4.62458 16.7763 4.78171 16.9334 4.97563 16.9334C5.16955 16.9334 5.32668 16.7763 5.32668 16.5824C5.32668 16.3442 5.31222 16.1203 5.28624 15.9095C6.11346 15.7574 6.81003 15.6077 7.59985 16.0587C9.82185 17.3275 9.82583 21.6448 7.59175 22.8912C6.97746 23.2338 6.19153 23.3263 5.52533 23.0794C5.14596 22.9575 4.74492 22.9575 4.36556 23.0794C3.62297 23.3181 2.84682 23.2072 2.18034 22.767C2.01858 22.6601 1.80079 22.7047 1.69398 22.8664C1.58712 23.0283 1.63163 23.246 1.79344 23.3529C2.6288 23.9046 3.64464 24.0486 4.5804 23.7478C4.81916 23.671 5.07163 23.671 5.31049 23.7478C6.17819 24.0416 7.13347 23.9509 7.93381 23.5043C8.20801 23.3514 8.46006 23.1604 8.68506 22.9385C9.50057 23.574 10.5033 23.9215 11.5455 23.9215C12.7255 23.9215 13.8041 23.4803 14.6258 22.7544C16.8933 22.3108 18.9565 21.2114 20.5979 19.57C22.7918 17.3761 24 14.4591 24 11.3563ZM3.10599 4.40755L2.64317 3.76354C2.61756 3.6828 2.64686 3.64713 2.73102 3.65659C3.2561 3.89624 3.80098 4.11272 4.30976 4.38612C4.41859 4.44467 4.55012 4.44168 4.65609 4.37825C4.76215 4.31488 4.82702 4.20043 4.82702 4.07691C4.82702 2.87239 4.79426 1.87967 4.02869 0.862467C5.16904 1.383 6.23642 2.0089 6.23642 3.45139C6.23642 3.64531 6.39355 3.80244 6.58747 3.80244C6.78139 3.80244 6.93852 3.64531 6.93852 3.45139C6.93852 2.01639 8.00604 1.383 9.1462 0.862513C8.38072 1.87971 8.34796 2.87239 8.34796 4.07691C8.34796 4.20048 8.41293 4.31488 8.51894 4.37825C8.62501 4.44158 8.75649 4.44458 8.86531 4.38602C9.37401 4.11244 9.91869 3.89624 10.4439 3.65654C10.528 3.64709 10.5573 3.68275 10.5318 3.76349L10.069 4.40755C9.74818 4.85409 9.51466 5.36007 9.38089 5.89221C8.53172 5.45925 7.59451 5.23233 6.6287 5.23233C5.64717 5.22447 4.67046 5.45897 3.79831 5.90897C3.66524 5.37065 3.43036 4.85891 3.10599 4.40755ZM9.13524 22.3995C10.2889 20.7283 10.2356 17.8819 8.9358 16.291C9.65747 15.6548 10.5721 15.307 11.5456 15.307C13.7269 15.307 15.5017 17.0817 15.5017 19.2631C15.5017 21.4445 13.727 23.2193 11.5456 23.2193C10.6685 23.2193 9.82433 22.9297 9.13524 22.3995ZM15.4239 21.8403C15.7085 21.4135 15.9247 20.9375 16.0564 20.4277C17.2737 19.9359 18.3654 19.2128 19.3031 18.2751C20.6742 16.9039 21.5993 15.1782 21.9781 13.2847C22.0161 13.0945 21.8929 12.9096 21.7027 12.8715C21.5125 12.8334 21.3277 12.9568 21.2896 13.1469C20.938 14.9042 20.0795 16.5058 18.8066 17.7787C18.0395 18.5457 17.1616 19.1578 16.1912 19.6048C16.3848 16.9458 14.213 14.6049 11.5456 14.6049C10.408 14.6049 9.33815 15.0074 8.49147 15.7457L19.0502 5.18693C20.6367 6.89757 21.4923 9.11073 21.4663 11.4576C21.4641 11.6515 21.6196 11.8104 21.8134 11.8125C22.007 11.8144 22.1662 11.6593 22.1684 11.4654C22.1964 8.92804 21.2675 6.53622 19.5464 4.69064L20.3458 3.89128C22.2523 5.92128 23.2979 8.55836 23.2979 11.3563C23.2979 14.2715 22.1627 17.0122 20.1014 19.0734C18.7876 20.3872 17.1863 21.3317 15.4239 21.8403Z" fill="#4C42E8"/>
<path d="M16.8044 15.28C16.6672 15.143 16.445 15.143 16.3079 15.28C16.1708 15.4172 16.1708 15.6394 16.3079 15.7765L16.838 16.3066C16.9066 16.3752 16.9965 16.4094 17.0863 16.4094C17.1761 16.4094 17.266 16.3752 17.3346 16.3066C17.4717 16.1695 17.4717 15.9473 17.3346 15.8102L16.8044 15.28Z" fill="#4C42E8"/>
<path d="M18.7013 13.5694L18.0179 13.2649C17.8408 13.1859 17.6333 13.2656 17.5544 13.4427C17.4755 13.6198 17.5551 13.8273 17.7322 13.9062L18.4155 14.2107C18.4619 14.2314 18.5104 14.2411 18.5582 14.2411C18.6926 14.2411 18.8208 14.1635 18.879 14.0329C18.9579 13.8558 18.8783 13.6483 18.7013 13.5694Z" fill="#4C42E8"/>
<path d="M19.1503 10.9713L18.4072 10.9341C18.4012 10.9337 18.3952 10.9336 18.3893 10.9336C18.2035 10.9336 18.0484 11.0794 18.039 11.267C18.0293 11.4607 18.1784 11.6255 18.372 11.6352L19.1151 11.6725C19.1211 11.6728 19.1271 11.673 19.133 11.673C19.3188 11.673 19.4739 11.5271 19.4833 11.3395C19.493 11.1459 19.3439 10.981 19.1503 10.9713Z" fill="#4C42E8"/>
<path d="M18.0298 9.29093C18.0668 9.29093 18.1045 9.28503 18.1414 9.27263L18.8427 9.03752C19.0266 8.97587 19.1256 8.7769 19.064 8.59309C19.0024 8.40923 18.8033 8.31024 18.6196 8.37179L17.9183 8.6069C17.7344 8.66854 17.6354 8.86752 17.697 9.05133C17.7462 9.19816 17.883 9.29093 18.0298 9.29093Z" fill="#4C42E8"/>
<path d="M6.58745 10.2231C6.67727 10.2231 6.76714 10.1888 6.83566 10.1203L7.60914 9.34684C7.74629 9.20974 7.74629 8.98745 7.60919 8.8504C7.47209 8.71335 7.24981 8.71326 7.11276 8.85036L6.58745 9.37562L6.06214 8.85036C5.92509 8.71331 5.7028 8.71326 5.56571 8.8504C5.42861 8.9875 5.42861 9.20979 5.56575 9.34684L6.33923 10.1203C6.40776 10.1887 6.49763 10.2231 6.58745 10.2231Z" fill="#4C42E8"/>
<path d="M9.75371 10.2231C9.84353 10.2231 9.9334 10.1888 10.0019 10.1203L10.7754 9.34684C10.9125 9.20974 10.9125 8.98745 10.7755 8.8504C10.6383 8.71331 10.416 8.71326 10.279 8.85036L9.75371 9.37562L9.2284 8.85036C9.09135 8.71331 8.86906 8.71326 8.73197 8.8504C8.59487 8.9875 8.59487 9.20979 8.73201 9.34684L9.50549 10.1203C9.57402 10.1887 9.66389 10.2231 9.75371 10.2231Z" fill="#4C42E8"/>
<path d="M5.51428 11.0672L4.98901 11.5925L4.4638 11.0672C4.32665 10.9301 4.10437 10.9301 3.96737 11.0672C3.83022 11.2043 3.83022 11.4265 3.96732 11.5636L4.74075 12.3371C4.80661 12.4029 4.89587 12.4399 4.98901 12.4399C5.08216 12.4399 5.17137 12.4029 5.23728 12.3371L6.01076 11.5636C6.14785 11.4265 6.14785 11.2043 6.01076 11.0672C5.87366 10.9301 5.65142 10.9301 5.51428 11.0672Z" fill="#4C42E8"/>
<path d="M7.90701 12.3371C7.97287 12.4029 8.06213 12.4399 8.15527 12.4399C8.24842 12.4399 8.33763 12.4029 8.40354 12.3371L9.17701 11.5636C9.31411 11.4265 9.31411 11.2043 9.17701 11.0672C9.03987 10.9301 8.81763 10.9301 8.68054 11.0672L8.15527 11.5925L7.63006 11.0672C7.49296 10.9301 7.27068 10.9301 7.13363 11.0672C6.99648 11.2043 6.99648 11.4265 7.13358 11.5636L7.90701 12.3371Z" fill="#4C42E8"/>
<path d="M12.331 17.1445C12.5249 17.1445 12.6821 16.9873 12.6821 16.7934C12.6821 16.5996 12.5249 16.4424 12.331 16.4424C12.1372 16.4424 11.98 16.5996 11.98 16.7934C11.98 16.9873 12.1372 17.1445 12.331 17.1445Z" fill="#4C42E8"/>
</svg>
