<svg width="24" height="24" viewBox="0 0 24 24" fill="none" xmlns="http://www.w3.org/2000/svg">
<path d="M23.634 5.74982C23.3316 5.27784 22.8967 4.94142 22.3971 4.77393C22.8582 3.89981 22.731 2.77753 21.9794 2.02593C21.2369 1.28353 20.116 1.14445 19.2318 1.60889C19.0644 1.10896 18.7279 0.674104 18.2559 0.37162C16.7384 -0.602584 14.7091 0.481073 14.6668 2.30282C14.6453 3.21904 14.2613 4.61053 13.9705 5.77101C11.8028 4.90453 10.0846 6.09464 8.78315 8.00976C6.64996 11.1485 3.64162 15.2979 1.78293 18.4571C0.0498206 21.403 -0.385367 22.9641 0.327883 23.6775C1.99738 25.347 8.82407 20.0965 15.9957 15.2227C17.9117 13.9205 19.101 12.2022 18.2347 10.0348C19.4465 9.7312 20.8052 9.35962 21.7025 9.33862C23.5214 9.29638 24.6098 7.27003 23.634 5.74982ZM19.0805 3.02287C19.0819 3.02024 19.0834 3.01767 19.0848 3.01504C19.5361 2.18217 20.657 2.02893 21.3167 2.6887C21.9801 3.35207 21.8187 4.4722 20.9904 4.92051C20.9877 4.92196 20.9851 4.92346 20.9825 4.92492L16.5896 7.41576L19.0805 3.02287ZM15.6037 2.32467C15.6293 1.22507 16.8557 0.586448 17.7499 1.16048C18.1622 1.42467 18.4036 1.85315 18.4139 2.32462C18.2884 2.50059 18.4835 2.18254 15.7903 6.9254C15.462 6.64406 15.1428 6.40706 14.8269 6.21013C15.2144 4.66307 15.5799 3.34481 15.6037 2.32467ZM15.469 14.4476C15.1764 14.6465 14.8767 14.8518 14.5713 15.0621L13.0829 13.5737C12.8999 13.3907 12.6033 13.3907 12.4202 13.5737C12.2372 13.7567 12.2372 14.0534 12.4202 14.2364L13.7873 15.6036C12.5118 16.4872 11.205 17.4014 9.86971 18.3129L9.10677 17.5499C8.92377 17.3669 8.62715 17.3669 8.44401 17.5499C8.26101 17.7329 8.26101 18.0297 8.44401 18.2127L9.08024 18.8489C7.38041 19.9961 4.10999 22.1789 2.18629 22.861C1.20159 23.2101 0.998946 23.023 0.990789 23.015C0.982539 23.0066 0.795415 22.8042 1.14463 21.8194C1.3987 21.1028 1.88531 20.1314 2.59082 18.9323C2.89143 18.4213 3.22429 17.8817 3.57913 17.3239L4.4677 18.2125C4.65074 18.3955 4.94737 18.3955 5.13046 18.2125C5.31346 18.0295 5.31346 17.7328 5.13046 17.5498L4.09865 16.518C4.93902 15.2298 5.86776 13.8737 6.77348 12.5655L8.44387 14.2363C8.62682 14.4192 8.92354 14.4194 9.10663 14.2363C9.28963 14.0533 9.28968 13.7566 9.10673 13.5736L7.31634 11.7828C8.07416 10.6915 8.8687 9.55138 9.55841 8.53654C9.72266 8.29485 9.88504 8.0789 10.0454 7.88531L11.7576 9.59704C11.9406 9.77999 12.2372 9.78004 12.4203 9.59699C12.6033 9.41395 12.6032 9.11728 12.4202 8.93428L10.696 7.21045C12.4451 5.68738 14.1498 6.5632 15.7961 8.20949C18.2571 10.6697 18.2036 12.5891 15.469 14.4476ZM21.6806 8.40173C20.6226 8.42653 19.1928 8.82848 17.7955 9.17854C17.5981 8.86209 17.3611 8.54282 17.0801 8.21512C21.8391 5.51287 21.5069 5.7157 21.6809 5.59157C22.1524 5.60165 22.5807 5.84324 22.8451 6.25584C23.4213 7.15349 22.7776 8.37618 21.6806 8.40173Z" fill="#4C42E8"/>
</svg>
