<svg width="25" height="24" viewBox="0 0 25 24" fill="none" xmlns="http://www.w3.org/2000/svg">
<g clip-path="url(#clip0_5119_6308)">
<path d="M24.4734 15.5065C24.4633 15.4515 24.4388 15.4031 24.4137 15.3538C24.2446 15.0245 23.5536 13.8657 21.7591 12.7784C21.0782 12.3659 20.3245 12.0141 19.5015 11.7226C20.0861 11.1645 20.6069 10.5782 21.0539 9.97391C21.1695 9.81749 21.1365 9.59689 20.9801 9.4812C20.8237 9.36552 20.6031 9.39852 20.4874 9.55494C19.9942 10.2216 19.4039 10.8662 18.733 11.474C16.9504 10.9495 14.8744 10.683 12.5235 10.6798C12.5082 10.6797 12.4929 10.6797 12.4776 10.6799C11.4874 10.6813 10.5765 10.7299 9.73814 10.816C10.2264 10.0997 11.0259 9.17999 12.2127 8.52261C14.4946 7.25872 16.8482 7.71772 16.8712 7.72236C17.015 7.75213 17.1623 7.68936 17.2406 7.565C18.9741 4.81002 21.3798 3.84664 22.3336 3.56033C22.3632 3.55142 22.3937 3.57327 22.3963 3.6035C22.4707 4.49099 22.4184 6.29539 21.2312 8.40861C21.1359 8.57825 21.1961 8.79299 21.3658 8.88828C21.5353 8.98358 21.7501 8.92335 21.8454 8.7537C23.1248 6.47642 23.1795 4.51255 23.0983 3.54463C23.0792 3.3171 22.96 3.11291 22.7712 2.98438C22.7684 2.98245 22.7654 2.981 22.7625 2.97913C22.7622 2.97885 22.7618 2.97856 22.7614 2.97828C22.454 2.77217 21.288 2.09324 19.1914 2.01167C16.5103 1.90696 13.4435 2.79889 10.0754 4.66185C9.1935 5.15099 8.36676 5.66661 7.61817 6.19438C7.47356 6.29633 7.42692 6.49686 7.51237 6.65197C7.61226 6.83328 7.85461 6.88972 8.02411 6.77024C8.75212 6.257 9.55725 5.75492 10.4167 5.2782C16.2519 2.05072 19.8556 2.56311 21.4474 3.12594C20.9485 3.32544 20.324 3.62764 19.656 4.07413C18.639 3.30088 17.2517 3.19152 16.119 3.81899C15.2156 4.31938 14.6256 5.21085 14.4809 6.19175C14.0999 5.81642 13.6293 5.53967 13.1008 5.38799C12.2673 5.14869 11.3904 5.2483 10.6317 5.66849C9.87304 6.08867 9.32348 6.77919 9.08414 7.61277C8.93245 8.14119 8.9174 8.68695 9.03347 9.20905C8.12522 8.81136 7.05647 8.83864 6.15314 9.33894C5.13759 9.90144 4.50051 10.9768 4.48078 12.128C3.85223 12.4095 3.31753 12.7117 2.86401 13.015C3.2639 11.6901 4.29642 9.72725 6.91776 7.60499C7.06898 7.48255 7.09232 7.26074 6.96989 7.10952C6.84745 6.9583 6.62564 6.93496 6.47442 7.05739C3.0959 9.79274 2.2072 12.3312 1.98572 13.6822C1.15739 14.3991 0.758528 15.036 0.611997 15.3078C0.4822 15.5185 0.46345 15.7863 0.565028 16.0125C1.12425 17.2576 2.96268 20.2842 7.94414 21.4925C8.13323 21.5382 8.32368 21.4222 8.36953 21.2331C8.41537 21.044 8.29931 20.8536 8.11022 20.8078C3.43139 19.6729 1.72443 16.8744 1.20773 15.7238C1.19512 15.6958 1.21162 15.6622 1.24157 15.6557C2.2147 15.444 4.78593 15.1211 7.6372 16.6912C7.76596 16.762 7.92515 16.7456 8.03667 16.6498C8.05481 16.6343 9.87979 15.0927 12.4995 15.0927C15.108 15.0927 16.9445 16.6346 16.9623 16.6498C17.0738 16.7456 17.233 16.7621 17.3618 16.6912C20.2132 15.121 22.7844 15.444 23.7574 15.6557C23.7869 15.6621 23.8036 15.6963 23.7913 15.7238C23.4747 16.4288 22.6899 17.7919 20.9916 19C18.8539 20.5206 15.9968 21.2917 12.4994 21.2917C11.4338 21.2917 10.4127 21.2182 9.46425 21.0734C9.2722 21.0441 9.0922 21.1761 9.06281 21.3684C9.03342 21.5608 9.16551 21.7405 9.35784 21.7699C10.3413 21.9201 11.3983 21.9963 12.4996 21.9963C16.1461 21.9963 19.1406 21.1813 21.3999 19.5741C23.2339 18.2695 24.0881 16.7826 24.434 16.0125C24.5064 15.8512 24.5188 15.6733 24.4734 15.5065ZM16.4603 4.4353C17.2827 3.97977 18.2763 4.02036 19.0514 4.51124C18.2757 5.11714 17.476 5.92339 16.7712 6.99275C16.4642 6.95089 15.8905 6.8982 15.1668 6.94902C15.0512 5.93966 15.555 4.93677 16.4603 4.4353ZM9.76139 7.80716C9.94875 7.15447 10.3791 6.61381 10.9731 6.2848C11.5672 5.95583 12.2536 5.87778 12.9064 6.06514C13.4755 6.2285 13.9593 6.57669 14.292 7.05692C13.5439 7.1892 12.7076 7.44308 11.8713 7.90635C11.0356 8.36924 10.3759 8.94899 9.86878 9.51195C9.63665 8.97406 9.59761 8.37767 9.76139 7.80716ZM6.49457 9.95525C7.40095 9.45322 8.52 9.55902 9.31462 10.1945C9.11803 10.4638 8.95968 10.7136 8.83551 10.9271C7.40353 11.1328 6.20686 11.4521 5.20997 11.8283C5.32059 11.0477 5.79173 10.3445 6.49457 9.95525ZM7.77061 15.9631C6.636 15.3693 5.54573 15.0511 4.57368 14.8969C5.01384 14.0922 5.86326 13.5753 6.80329 13.5753C7.8382 13.5753 8.76487 14.2085 9.15286 15.1475C8.49511 15.4537 8.01881 15.7778 7.77061 15.9631ZM12.4995 14.3882C11.5434 14.3882 10.6889 14.5712 9.97036 14.818C10.1004 13.5373 11.185 12.5345 12.4995 12.5345C13.814 12.5345 14.8986 13.5373 15.0286 14.818C14.3101 14.5712 13.4556 14.3882 12.4995 14.3882ZM17.2284 15.9631C16.9802 15.7778 16.5039 15.4537 15.8461 15.1475C16.2341 14.2085 17.1608 13.5753 18.1957 13.5753C19.1357 13.5753 19.9852 14.0921 20.4253 14.8969C19.4533 15.0511 18.363 15.3693 17.2284 15.9631ZM21.1659 14.8072C20.6509 13.6383 19.4905 12.8707 18.1957 12.8707C17.1624 12.8707 16.2137 13.3653 15.6119 14.1541C15.2134 12.812 13.9693 11.8299 12.4995 11.8299C11.0297 11.8299 9.78557 12.812 9.38704 14.1541C8.78526 13.3653 7.83665 12.8707 6.80329 12.8707C5.50851 12.8707 4.34807 13.6384 3.83306 14.8072C3.033 14.7403 2.34093 14.7789 1.80797 14.8459C2.19768 14.4058 2.80223 13.8551 3.70729 13.3213C5.88332 12.0382 8.84194 11.3865 12.5005 11.3843C19.1685 11.3883 22.0727 13.5825 23.1925 14.8461C22.6594 14.779 21.9667 14.7403 21.1659 14.8072Z" fill="#4C42E8"/>
</g>
<defs>
<clipPath id="clip0_5119_6308">
<rect width="24" height="24" fill="white" transform="translate(0.5)"/>
</clipPath>
</defs>
</svg>
